SplineFontDB: 2.0
FontName: THChakraPetch-Bold
FullName: THChakraPetch-Bold
FamilyName: TH Chakra Petch
Weight: Bold
Copyright: Copyright (c) 2006 by Department of Intellectual Property (DIP), Ministry of Commerce and Software Industry Promotion Agency (Public Organization) (SIPA). All rights reserved.
Version: 1.1
ItalicAngle: 0
UnderlinePosition: -35
UnderlineWidth: 30
Ascent: 800
Descent: 200
Order2: 1
XUID: [1021 375 425136265 4400732]
FSType: 0
OS2Version: 3
OS2_WeightWidthSlopeOnly: 0
OS2_UseTypoMetrics: 1
CreationTime: 1158666600
ModificationTime: 1196254497
PfmFamily: 17
TTFWeight: 700
TTFWidth: 5
LineGap: 60
VLineGap: 0
Panose: 2 0 5 6 0 0 0 2 0 4
OS2TypoAscent: 0
OS2TypoAOffset: 1
OS2TypoDescent: 0
OS2TypoDOffset: 1
OS2TypoLinegap: 0
OS2WinAscent: -3
OS2WinAOffset: 1
OS2WinDescent: -213
OS2WinDOffset: 1
HheadAscent: -3
HheadAOffset: 1
HheadDescent: 213
HheadDOffset: 1
OS2SubXSize: 700
OS2SubYSize: 650
OS2SubXOff: 0
OS2SubYOff: 140
OS2SupXSize: 700
OS2SupYSize: 650
OS2SupXOff: 0
OS2SupYOff: 477
OS2StrikeYSize: 30
OS2StrikeYPos: 250
OS2FamilyClass: 773
OS2Vendor: 'ASSA'
Lookup: 4 0 0 "'frac' Diagonal Fractions in Latin lookup 0"  {"'frac' Diagonal Fractions in Latin lookup 0 subtable"  } ['frac' ('latn' <'dflt' > ) ]
Lookup: 6 0 0 "'liga' Standard Ligatures in Latin lookup 1"  {"'liga' Standard Ligatures in Latin lookup 1 subtable"  } ['liga' ('latn' <'dflt' > ) ]
Lookup: 6 0 0 "'liga' Standard Ligatures in Latin lookup 2"  {"'liga' Standard Ligatures in Latin lookup 2 subtable"  } ['liga' ('latn' <'dflt' > ) ]
Lookup: 6 0 0 "'liga' Standard Ligatures in Latin lookup 3"  {"'liga' Standard Ligatures in Latin lookup 3 subtable"  } ['liga' ('latn' <'dflt' > ) ]
Lookup: 6 0 0 "'liga' Standard Ligatures in Latin lookup 4"  {"'liga' Standard Ligatures in Latin lookup 4 subtable"  } ['liga' ('latn' <'dflt' > ) ]
Lookup: 6 0 0 "'liga' Standard Ligatures in Latin lookup 5"  {"'liga' Standard Ligatures in Latin lookup 5 subtable"  } ['liga' ('latn' <'dflt' > ) ]

StartChar: .notdef
Encoding: 65536 -1 0
Width: 669
VWidth: 1661
Flags: W
HStem: 0 90<133 492> 867 90<133 492>
VStem: 43 90<90 867> 492 88<90 867>
Fore
580 0 m 1,0,-1
 43 0 l 1,1,-1
 43 957 l 1,2,-1
 580 957 l 1,3,-1
 580 0 l 1,0,-1
492 90 m 1,4,-1
 492 867 l 1,5,-1
 133 867 l 1,6,-1
 133 90 l 1,7,-1
 492 90 l 1,4,-1
EndSplineSet
EndChar
StartChar: numbersign
Encoding: 35 35 4
Width: 617
VWidth: 1661
Flags: W
HStem: 0 21G<121 213.256 301 392.256> 133 90<56 136 236 316 414 495> 372 90<81 161 261 341 440 520>
VStem: 47 483<133 462 133 141.594>
Fore
520 372 m 1,0,-1
 430 372 l 1,1,-1
 414 223 l 1,2,-1
 503 223 l 1,3,-1
 495 133 l 1,4,-1
 405 133 l 1,5,-1
 390 0 l 1,6,-1
 301 0 l 1,7,-1
 316 133 l 1,8,-1
 226 133 l 1,9,-1
 211 0 l 1,10,-1
 121 0 l 1,11,-1
 136 133 l 1,12,-1
 47 133 l 1,13,-1
 56 223 l 1,14,-1
 146 223 l 1,15,-1
 161 372 l 1,16,-1
 71 372 l 1,17,-1
 81 462 l 1,18,-1
 171 462 l 1,19,-1
 184 596 l 1,20,-1
 274 596 l 1,21,-1
 261 462 l 1,22,-1
 351 462 l 1,23,-1
 364 596 l 1,24,-1
 454 596 l 1,25,-1
 440 462 l 1,26,-1
 530 462 l 1,27,-1
 520 372 l 1,0,-1
326 223 m 1,28,-1
 341 372 l 1,29,-1
 251 372 l 1,30,-1
 236 223 l 1,31,-1
 326 223 l 1,28,-1
EndSplineSet
EndChar
StartChar: dollar
Encoding: 36 36 5
Width: 639
VWidth: 1661
Flags: W
HStem: 0 90<184 253 342 425> 282 90<169 425> 566 90<169 253 342 410> 696 20G<253 342>
VStem: 43 90<410 530> 253 89<-60 0 656 716> 462 90<126 246>
CounterMasks: 1 0e
Fore
552 88 m 1,0,-1
 462 0 l 1,1,-1
 342 0 l 1,2,-1
 342 -60 l 1,3,-1
 253 -60 l 1,4,-1
 253 0 l 1,5,-1
 148 0 l 1,6,-1
 58 88 l 1,7,-1
 58 163 l 1,8,-1
 148 163 l 1,9,-1
 148 126 l 1,10,-1
 184 90 l 1,11,-1
 425 90 l 1,12,-1
 462 126 l 1,13,-1
 462 246 l 1,14,-1
 425 282 l 1,15,-1
 133 282 l 1,16,-1
 43 372 l 1,17,-1
 43 568 l 1,18,-1
 133 656 l 1,19,-1
 253 656 l 1,20,-1
 253 716 l 1,21,-1
 342 716 l 1,22,-1
 342 656 l 1,23,-1
 447 656 l 1,24,-1
 537 566 l 1,25,-1
 537 492 l 1,26,-1
 447 492 l 1,27,-1
 447 530 l 1,28,-1
 410 566 l 1,29,-1
 169 566 l 1,30,-1
 133 530 l 1,31,-1
 133 410 l 1,32,-1
 169 372 l 1,33,-1
 462 372 l 1,34,-1
 552 284 l 1,35,-1
 552 88 l 1,0,-1
EndSplineSet
EndChar
StartChar: percent
Encoding: 37 37 6
Width: 765
VWidth: 1661
Flags: W
HStem: 0 21G<110 224.369> 60 75<510 576> 253 74<510 576> 387 76<151 218> 581 75<151 218> 696 20G<505.631 620>
VStem: 50 75<488 557> 244 75<488 557> 409 74<159 228> 603 75<159 228>
Fore
249 387 m 1,0,-1
 120 387 l 1,1,-1
 50 457 l 1,2,-1
 50 586 l 1,3,-1
 120 656 l 1,4,-1
 249 656 l 1,5,-1
 319 586 l 1,6,-1
 319 457 l 1,7,-1
 249 387 l 1,0,-1
125 557 m 1,8,-1
 125 488 l 1,9,-1
 151 463 l 1,10,-1
 218 463 l 1,11,-1
 244 488 l 1,12,-1
 244 557 l 1,13,-1
 218 581 l 1,14,-1
 151 581 l 1,15,-1
 125 557 l 1,8,-1
608 327 m 1,16,-1
 678 257 l 1,17,-1
 678 130 l 1,18,-1
 608 60 l 1,19,-1
 478 60 l 1,20,-1
 409 130 l 1,21,-1
 409 257 l 1,22,-1
 478 327 l 1,23,-1
 608 327 l 1,16,-1
603 159 m 1,24,-1
 603 228 l 1,25,-1
 576 253 l 1,26,-1
 510 253 l 1,27,-1
 483 228 l 1,28,-1
 483 159 l 1,29,-1
 510 135 l 1,30,-1
 576 135 l 1,31,-1
 603 159 l 1,24,-1
517 716 m 1,32,-1
 620 716 l 1,33,-1
 213 0 l 1,34,-1
 110 0 l 1,35,-1
 517 716 l 1,32,-1
EndSplineSet
EndChar
StartChar: ampersand
Encoding: 38 38 7
Width: 699
VWidth: 1661
Flags: W
HStem: 0 88<168 424> 312 90<198 460 550 610> 626 90<198 394>
VStem: 42 89<126 276> 71 90<440 590> 460 90<126 312 402 447>
Fore
610 402 m 1,0,-1
 610 312 l 1,1,-1
 550 312 l 1,2,-1
 550 88 l 1,3,-1
 460 0 l 1,4,-1
 131 0 l 1,5,-1
 42 88 l 1,6,-1
 42 312 l 1,7,-1
 101 372 l 1,8,-1
 71 402 l 1,9,-1
 71 628 l 1,10,-1
 161 716 l 1,11,-1
 430 716 l 1,12,-1
 520 626 l 1,13,-1
 520 552 l 1,14,-1
 430 552 l 1,15,-1
 430 590 l 1,16,-1
 394 626 l 1,17,-1
 198 626 l 1,18,-1
 161 590 l 1,19,-1
 161 440 l 1,20,-1
 198 402 l 1,21,-1
 460 402 l 1,22,-1
 460 447 l 1,23,-1
 550 447 l 1,24,-1
 550 402 l 1,25,-1
 610 402 l 1,0,-1
460 126 m 1,26,-1
 460 312 l 1,27,-1
 168 312 l 1,28,-1
 131 276 l 1,29,-1
 131 126 l 1,30,-1
 168 88 l 1,31,-1
 424 88 l 1,32,-1
 460 126 l 1,26,-1
EndSplineSet
EndChar
StartChar: quotesingle
Encoding: 39 39 8
Width: 225
VWidth: 1661
Flags: W
HStem: 568 150<60 120>
VStem: 45 90<683 718 718 718 718 718>
Fore
60 568 m 1,0,-1
 45 718 l 1,1,-1
 135 718 l 1,2,-1
 120 568 l 1,3,-1
 60 568 l 1,0,-1
EndSplineSet
EndChar
StartChar: parenleft
Encoding: 40 40 9
Width: 310
VWidth: 1661
Flags: W
HStem: -118 90<169 223> 748 89<169 223>
VStem: 43 90<8 711>
Fore
133 711 m 1,0,-1
 133 8 l 1,1,-1
 169 -28 l 1,2,-1
 223 -28 l 1,3,-1
 223 -118 l 1,4,-1
 133 -118 l 1,5,-1
 43 -30 l 1,6,-1
 43 748 l 1,7,-1
 133 837 l 1,8,-1
 223 837 l 1,9,-1
 223 748 l 1,10,-1
 169 748 l 1,11,-1
 133 711 l 1,0,-1
EndSplineSet
EndChar
StartChar: parenright
Encoding: 41 41 10
Width: 267
VWidth: 1661
Flags: W
HStem: -118 90<0 53> 748 89<0 53>
VStem: 0 179<-30 -28 -118 748 -28 -28> 90 89<8 711>
Fore
90 837 m 1,0,-1
 179 748 l 1,1,-1
 179 -30 l 1,2,-1
 90 -118 l 1,3,-1
 0 -118 l 1,4,-1
 0 -28 l 1,5,-1
 53 -28 l 1,6,-1
 90 8 l 1,7,-1
 90 711 l 1,8,-1
 53 748 l 1,9,-1
 0 748 l 1,10,-1
 0 837 l 1,11,-1
 90 837 l 1,0,-1
EndSplineSet
EndChar
StartChar: asterisk
Encoding: 42 42 11
Width: 410
VWidth: 1661
Flags: W
HStem: 449 269<143 219 136 226 136 136>
VStem: 43 278<555 555 555 645>
Fore
321 555 m 1,0,-1
 276 477 l 1,1,-1
 219 518 l 1,2,-1
 226 449 l 1,3,-1
 136 449 l 1,4,-1
 143 518 l 1,5,-1
 88 477 l 1,6,-1
 43 555 l 1,7,-1
 106 583 l 1,8,-1
 43 611 l 1,9,-1
 88 689 l 1,10,-1
 143 650 l 1,11,-1
 136 718 l 1,12,-1
 226 718 l 1,13,-1
 219 650 l 1,14,-1
 276 689 l 1,15,-1
 321 611 l 1,16,-1
 257 583 l 1,17,-1
 321 555 l 1,0,-1
EndSplineSet
EndChar
StartChar: plus
Encoding: 43 43 12
Width: 729
VWidth: 1661
Flags: W
HStem: 314 90<58 297 387 626>
VStem: 297 90<75 314 404 641>
Fore
626 404 m 1,0,-1
 626 314 l 1,1,-1
 387 314 l 1,2,-1
 387 75 l 1,3,-1
 297 75 l 1,4,-1
 297 314 l 1,5,-1
 58 314 l 1,6,-1
 58 404 l 1,7,-1
 297 404 l 1,8,-1
 297 641 l 1,9,-1
 387 641 l 1,10,-1
 387 404 l 1,11,-1
 626 404 l 1,0,-1
EndSplineSet
EndChar
StartChar: comma
Encoding: 44 44 13
Width: 285
VWidth: 1661
Flags: W
HStem: -90 238<98 108>
VStem: 48 150<43 105 -90 105 43 43>
Fore
198 105 m 1,0,-1
 198 43 l 1,1,-1
 108 -90 l 1,2,-1
 48 -90 l 1,3,-1
 98 0 l 1,4,-1
 91 0 l 1,5,-1
 48 43 l 1,6,-1
 48 105 l 1,7,-1
 91 148 l 1,8,-1
 153 148 l 1,9,-1
 198 105 l 1,0,-1
EndSplineSet
EndChar
StartChar: hyphen
Encoding: 45 45 14
Width: 461
VWidth: 1661
Flags: W
HStem: 224 90<45 374>
VStem: 45 329<224 314 224 314 224 224>
Fore
374 224 m 1,0,-1
 45 224 l 1,1,-1
 45 314 l 1,2,-1
 374 314 l 1,3,-1
 374 224 l 1,0,-1
EndSplineSet
EndChar
StartChar: period
Encoding: 46 46 15
Width: 285
VWidth: 1661
Flags: W
HStem: 0 148<90 151 90 151 90 90>
VStem: 47 149<43 105 43 105 43 43>
Fore
196 105 m 1,0,-1
 196 43 l 1,1,-1
 151 0 l 1,2,-1
 90 0 l 1,3,-1
 47 43 l 1,4,-1
 47 105 l 1,5,-1
 90 148 l 1,6,-1
 151 148 l 1,7,-1
 196 105 l 1,0,-1
EndSplineSet
EndChar
StartChar: slash
Encoding: 47 47 16
Width: 598
VWidth: 1661
Flags: W
HStem: 0 21G<0 114.337>
Fore
407 718 m 1,0,-1
 510 718 l 1,1,-1
 103 0 l 1,2,-1
 0 0 l 1,3,-1
 407 718 l 1,0,-1
EndSplineSet
EndChar
StartChar: zero
Encoding: 48 48 17
Width: 609
VWidth: 1661
Flags: W
HStem: 0 90<169 395> 628 90<169 394>
VStem: 43 90<128 591> 432 90<126 591>
Fore
432 718 m 1,0,-1
 522 628 l 1,1,-1
 522 90 l 1,2,-1
 432 0 l 1,3,-1
 133 0 l 1,4,-1
 43 90 l 1,5,-1
 43 628 l 1,6,-1
 133 718 l 1,7,-1
 432 718 l 1,0,-1
432 126 m 1,8,-1
 432 591 l 1,9,-1
 394 628 l 1,10,-1
 169 628 l 1,11,-1
 133 591 l 1,12,-1
 133 128 l 1,13,-1
 169 90 l 1,14,-1
 395 90 l 1,15,-1
 432 126 l 1,8,-1
EndSplineSet
EndChar
StartChar: one
Encoding: 49 49 18
Width: 337
VWidth: 1661
Flags: W
HStem: 0 21G<158 248>
VStem: 53 195<613 718 613 613> 158 90<0 591>
Fore
159 718 m 1,0,-1
 248 718 l 1,1,-1
 248 0 l 1,2,-1
 158 0 l 1,3,-1
 158 591 l 1,4,-1
 116 550 l 1,5,-1
 53 613 l 1,6,-1
 158 718 l 1,7,-1
 159 718 l 1,0,-1
EndSplineSet
EndChar
StartChar: two
Encoding: 50 50 19
Width: 609
VWidth: 1661
Flags: W
HStem: 0 90<130 518> 628 90<166 377>
VStem: 40 90<90 135 555 591> 414 89<493 591>
Fore
518 90 m 1,0,-1
 518 0 l 1,1,-1
 40 0 l 1,2,-1
 40 164 l 1,3,-1
 414 493 l 1,4,-1
 414 591 l 1,5,-1
 377 628 l 1,6,-1
 166 628 l 1,7,-1
 130 591 l 1,8,-1
 130 555 l 1,9,-1
 40 555 l 1,10,-1
 40 628 l 1,11,-1
 130 718 l 1,12,-1
 414 718 l 1,13,-1
 503 628 l 1,14,-1
 503 463 l 1,15,-1
 130 135 l 1,16,-1
 130 90 l 1,17,-1
 518 90 l 1,0,-1
EndSplineSet
EndChar
StartChar: three
Encoding: 51 51 20
Width: 609
VWidth: 1661
Flags: W
HStem: 0 90<169 395> 344 90<193 395> 626 90<184 395>
VStem: 43 479<90 626 434 554> 432 90<126 307 470 590>
Fore
432 716 m 1,0,-1
 522 626 l 1,1,-1
 522 432 l 1,2,-1
 477 389 l 1,3,-1
 522 344 l 1,4,-1
 522 90 l 1,5,-1
 432 0 l 1,6,-1
 133 0 l 1,7,-1
 43 90 l 1,8,-1
 43 164 l 1,9,-1
 133 164 l 1,10,-1
 133 126 l 1,11,-1
 169 90 l 1,12,-1
 395 90 l 1,13,-1
 432 126 l 1,14,-1
 432 307 l 1,15,-1
 395 344 l 1,16,-1
 193 344 l 1,17,-1
 193 434 l 1,18,-1
 395 434 l 1,19,-1
 432 470 l 1,20,-1
 432 590 l 1,21,-1
 395 626 l 1,22,-1
 184 626 l 1,23,-1
 148 590 l 1,24,-1
 148 553 l 1,25,-1
 58 553 l 1,26,-1
 58 626 l 1,27,-1
 148 716 l 1,28,-1
 432 716 l 1,0,-1
EndSplineSet
EndChar
StartChar: four
Encoding: 52 52 21
Width: 594
VWidth: 1661
Flags: W
HStem: 0 21G<372 462> 105 89<133 372 462 507 43 507 133 133>
VStem: 372 90<0 105 194 628>
Fore
507 194 m 1,0,-1
 507 105 l 1,1,-1
 462 105 l 1,2,-1
 462 0 l 1,3,-1
 372 0 l 1,4,-1
 372 105 l 1,5,-1
 43 105 l 1,6,-1
 43 239 l 1,7,-1
 312 718 l 1,8,-1
 462 718 l 1,9,-1
 462 194 l 1,10,-1
 507 194 l 1,0,-1
133 194 m 1,11,-1
 372 194 l 1,12,-1
 372 628 l 1,13,-1
 355 628 l 1,14,-1
 133 231 l 1,15,-1
 133 194 l 1,11,-1
EndSplineSet
EndChar
StartChar: five
Encoding: 53 53 22
Width: 611
VWidth: 1661
Flags: W
HStem: 0 90<169 394> 374 89<133 394> 628 90<133 490>
VStem: 43 90<128 166 463 628> 43 477<374 375 90 375 374 374> 430 90<126 337>
Fore
432 463 m 1,0,-1
 520 375 l 1,1,-1
 520 90 l 1,2,-1
 432 0 l 1,3,-1
 133 0 l 1,4,-1
 43 90 l 1,5,-1
 43 166 l 1,6,-1
 133 166 l 1,7,-1
 133 128 l 1,8,-1
 169 90 l 1,9,-1
 394 90 l 1,10,-1
 430 126 l 1,11,-1
 430 337 l 1,12,-1
 394 374 l 1,13,-1
 43 374 l 1,14,-1
 43 718 l 1,15,-1
 490 718 l 1,16,-1
 490 628 l 1,17,-1
 133 628 l 1,18,-1
 133 463 l 1,19,-1
 432 463 l 1,0,-1
EndSplineSet
EndChar
StartChar: six
Encoding: 54 54 23
Width: 611
VWidth: 1661
Flags: W
HStem: 0 90<169 394> 375 90<168 394> 628 90<168 379>
VStem: 42 478<90 375 -73 53> 42 89<128 339 465 591> 430 90<126 337>
Fore
430 465 m 1,0,-1
 520 375 l 1,1,-1
 520 90 l 1,2,-1
 432 0 l 1,3,-1
 131 0 l 1,4,-1
 42 90 l 1,5,-1
 42 628 l 1,6,-1
 131 718 l 1,7,-1
 415 718 l 1,8,-1
 505 628 l 1,9,-1
 505 555 l 1,10,-1
 415 555 l 1,11,-1
 415 591 l 1,12,-1
 379 628 l 1,13,-1
 168 628 l 1,14,-1
 131 591 l 1,15,-1
 131 465 l 1,16,-1
 430 465 l 1,0,-1
430 126 m 1,17,-1
 430 337 l 1,18,-1
 394 375 l 1,19,-1
 168 375 l 1,20,-1
 131 339 l 1,21,-1
 131 128 l 1,22,-1
 169 90 l 1,23,-1
 394 90 l 1,24,-1
 430 126 l 1,17,-1
EndSplineSet
EndChar
StartChar: seven
Encoding: 55 55 24
Width: 614
VWidth: 1661
Flags: W
HStem: 0 21G<239 329> 628 90<135 434>
VStem: 45 90<555 628> 45 478<628 718> 239 90<0 341> 434 89<528 628>
Fore
45 718 m 1,0,-1
 523 718 l 1,1,-1
 523 493 l 1,2,-1
 329 341 l 1,3,-1
 329 0 l 1,4,-1
 239 0 l 1,5,-1
 239 374 l 1,6,-1
 434 528 l 1,7,-1
 434 628 l 1,8,-1
 135 628 l 1,9,-1
 135 555 l 1,10,-1
 45 555 l 1,11,-1
 45 718 l 1,0,-1
EndSplineSet
EndChar
StartChar: eight
Encoding: 56 56 25
Width: 611
VWidth: 1661
Flags: W
HStem: 0 90<168 394> 344 90<198 364> 628 90<198 364>
VStem: 42 89<128 307> 71 90<470 591> 400 90<470 591> 430 90<126 307>
Fore
460 404 m 1,0,-1
 520 344 l 1,1,-1
 520 90 l 1,2,-1
 430 0 l 1,3,-1
 131 0 l 1,4,-1
 42 90 l 1,5,-1
 42 346 l 1,6,-1
 101 404 l 1,7,-1
 71 434 l 1,8,-1
 71 628 l 1,9,-1
 161 718 l 1,10,-1
 400 718 l 1,11,-1
 490 628 l 1,12,-1
 490 434 l 1,13,-1
 460 404 l 1,0,-1
161 591 m 1,14,-1
 161 470 l 1,15,-1
 198 434 l 1,16,-1
 364 434 l 1,17,-1
 400 470 l 1,18,-1
 400 591 l 1,19,-1
 364 628 l 1,20,-1
 198 628 l 1,21,-1
 161 591 l 1,14,-1
430 126 m 1,22,-1
 430 307 l 1,23,-1
 394 344 l 1,24,-1
 168 344 l 1,25,-1
 131 307 l 1,26,-1
 131 128 l 1,27,-1
 168 90 l 1,28,-1
 394 90 l 1,29,-1
 430 126 l 1,22,-1
EndSplineSet
EndChar
StartChar: nine
Encoding: 57 57 26
Width: 611
VWidth: 1661
Flags: W
HStem: 0 90<169 394> 256 90<169 394> 628 90<168 394>
VStem: 42 89<128 166 382 591> 430 90<126 256 382 591>
Fore
430 718 m 1,0,-1
 520 628 l 1,1,-1
 520 90 l 1,2,-1
 432 0 l 1,3,-1
 131 0 l 1,4,-1
 42 90 l 1,5,-1
 42 166 l 1,6,-1
 131 166 l 1,7,-1
 131 128 l 1,8,-1
 169 90 l 1,9,-1
 394 90 l 1,10,-1
 430 126 l 1,11,-1
 430 256 l 1,12,-1
 131 256 l 1,13,-1
 42 346 l 1,14,-1
 42 628 l 1,15,-1
 131 718 l 1,16,-1
 430 718 l 1,0,-1
430 382 m 1,17,-1
 430 591 l 1,18,-1
 394 628 l 1,19,-1
 168 628 l 1,20,-1
 131 591 l 1,21,-1
 131 382 l 1,22,-1
 169 346 l 1,23,-1
 394 346 l 1,24,-1
 430 382 l 1,17,-1
EndSplineSet
EndChar
StartChar: colon
Encoding: 58 58 27
Width: 285
VWidth: 1661
Flags: W
HStem: 0 449<153 153 390 452>
VStem: 48 150<43 105 342 404 43 105 43 43>
Fore
91 150 m 1,0,-1
 153 150 l 1,1,-1
 198 105 l 1,2,-1
 198 43 l 1,3,-1
 153 0 l 1,4,-1
 91 0 l 1,5,-1
 48 43 l 1,6,-1
 48 105 l 1,7,-1
 91 150 l 1,0,-1
153 449 m 1,8,-1
 198 404 l 1,9,-1
 198 342 l 1,10,-1
 153 299 l 1,11,-1
 91 299 l 1,12,-1
 48 342 l 1,13,-1
 48 404 l 1,14,-1
 91 449 l 1,15,-1
 153 449 l 1,8,-1
EndSplineSet
EndChar
StartChar: semicolon
Encoding: 59 59 28
Width: 285
VWidth: 1661
Flags: W
VStem: 48 150<43 105 342 404 342 404 43 43>
Fore
153 449 m 1,0,-1
 198 404 l 1,1,-1
 198 342 l 1,2,-1
 153 299 l 1,3,-1
 91 299 l 1,4,-1
 48 342 l 1,5,-1
 48 404 l 1,6,-1
 91 449 l 1,7,-1
 153 449 l 1,0,-1
91 150 m 1,8,-1
 153 150 l 1,9,-1
 198 105 l 1,10,-1
 198 43 l 1,11,-1
 108 -90 l 1,12,-1
 48 -90 l 1,13,-1
 98 0 l 1,14,-1
 91 0 l 1,15,-1
 48 43 l 1,16,-1
 48 105 l 1,17,-1
 91 150 l 1,8,-1
EndSplineSet
EndChar
StartChar: less
Encoding: 60 60 29
Width: 699
VWidth: 1661
Flags: W
Fore
596 598 m 1,0,-1
 596 500 l 1,1,-1
 174 301 l 1,2,-1
 596 100 l 1,3,-1
 596 2 l 1,4,-1
 58 256 l 1,5,-1
 58 346 l 1,6,-1
 596 598 l 1,0,-1
EndSplineSet
EndChar
StartChar: equal
Encoding: 61 61 30
Width: 729
VWidth: 1661
Flags: W
HStem: 209 299<60 60 -29 60> 209 90<60 626> 419 89<60 626>
Fore
60 508 m 1,0,-1
 626 508 l 1,1,-1
 626 419 l 1,2,-1
 60 419 l 1,3,-1
 60 508 l 1,0,-1
60 209 m 1,4,-1
 60 299 l 1,5,-1
 626 299 l 1,6,-1
 626 209 l 1,7,-1
 60 209 l 1,4,-1
EndSplineSet
EndChar
StartChar: greater
Encoding: 62 62 31
Width: 699
VWidth: 1661
Flags: W
Fore
58 598 m 1,0,-1
 596 346 l 1,1,-1
 596 256 l 1,2,-1
 58 2 l 1,3,-1
 58 100 l 1,4,-1
 482 301 l 1,5,-1
 58 500 l 1,6,-1
 58 598 l 1,0,-1
EndSplineSet
EndChar
StartChar: question
Encoding: 63 63 32
Width: 611
VWidth: 1661
Flags: W
HStem: 0 21G<242.25 324> 628 90<169 394>
VStem: 238 89<150 302> 432 90<505 591>
Fore
522 628 m 1,0,-1
 522 463 l 1,1,-1
 327 302 l 1,2,-1
 327 150 l 1,3,-1
 238 150 l 1,4,-1
 238 344 l 1,5,-1
 432 505 l 1,6,-1
 432 591 l 1,7,-1
 394 628 l 1,8,-1
 169 628 l 1,9,-1
 133 591 l 1,10,-1
 133 553 l 1,11,-1
 43 553 l 1,12,-1
 43 628 l 1,13,-1
 133 718 l 1,14,-1
 432 718 l 1,15,-1
 522 628 l 1,0,-1
261 105 m 1,16,-1
 304 105 l 1,17,-1
 336 75 l 1,18,-1
 336 32 l 1,19,-1
 304 0 l 1,20,-1
 261 0 l 1,21,-1
 231 32 l 1,22,-1
 231 75 l 1,23,-1
 261 105 l 1,16,-1
EndSplineSet
EndChar
StartChar: at
Encoding: 64 64 33
Width: 789
VWidth: 1661
Flags: W
HStem: -90 90<259 640> 75 89<319 379 550 573> 314 90<317 424> 478 88<259 483>
VStem: 42 89<126 351> 191 90<201 277> 610 89<201 351>
Fore
520 566 m 1,0,-1
 699 387 l 1,1,-1
 699 164 l 1,2,-1
 610 75 l 1,3,-1
 460 75 l 1,4,-1
 460 120 l 1,5,-1
 415 75 l 1,6,-1
 281 75 l 1,7,-1
 191 164 l 1,8,-1
 191 314 l 1,9,-1
 281 404 l 1,10,-1
 460 404 l 1,11,-1
 550 314 l 1,12,-1
 550 164 l 1,13,-1
 573 164 l 1,14,-1
 610 201 l 1,15,-1
 610 351 l 1,16,-1
 483 478 l 1,17,-1
 259 478 l 1,18,-1
 131 351 l 1,19,-1
 131 126 l 1,20,-1
 259 0 l 1,21,-1
 640 0 l 1,22,-1
 640 -90 l 1,23,-1
 221 -90 l 1,24,-1
 42 90 l 1,25,-1
 42 387 l 1,26,-1
 223 566 l 1,27,-1
 520 566 l 1,0,-1
379 164 m 1,28,-1
 460 246 l 1,29,-1
 460 276 l 1,30,-1
 424 314 l 1,31,-1
 317 314 l 1,32,-1
 281 277 l 1,33,-1
 281 201 l 1,34,-1
 319 164 l 1,35,-1
 379 164 l 1,28,-1
EndSplineSet
EndChar
StartChar: A
Encoding: 65 65 34
Width: 639
VWidth: 1661
Flags: W
HStem: 0 21G<45 135 462 552> 194 90<135 462> 696 20G<226.643 369.42>
VStem: 45 90<0 194 284 377> 462 90<0 194 284 377>
Fore
357 716 m 1,0,-1
 552 402 l 1,1,-1
 552 0 l 1,2,-1
 462 0 l 1,3,-1
 462 194 l 1,4,-1
 135 194 l 1,5,-1
 135 0 l 1,6,-1
 45 0 l 1,7,-1
 45 402 l 1,8,-1
 239 716 l 1,9,-1
 357 716 l 1,0,-1
135 284 m 1,10,-1
 462 284 l 1,11,-1
 462 377 l 1,12,-1
 307 626 l 1,13,-1
 289 626 l 1,14,-1
 135 377 l 1,15,-1
 135 284 l 1,10,-1
EndSplineSet
EndChar
StartChar: B
Encoding: 66 66 35
Width: 611
VWidth: 1661
Flags: W
HStem: 0 90<135 397> 314 90<135 367> 626 90<135 367>
VStem: 45 90<90 314 404 626> 45 478<88 90 0 314 1.53064e-18 1.53064e-18> 404 89<440 590> 434 89<126 276>
Fore
463 372 m 1,0,-1
 523 314 l 1,1,-1
 523 88 l 1,2,-1
 434 0 l 1,3,-1
 45 0 l 1,4,-1
 45 716 l 1,5,-1
 404 716 l 1,6,-1
 493 626 l 1,7,-1
 493 402 l 1,8,-1
 463 372 l 1,0,-1
367 626 m 1,9,-1
 135 626 l 1,10,-1
 135 404 l 1,11,-1
 367 404 l 1,12,-1
 404 440 l 1,13,-1
 404 590 l 1,14,-1
 367 626 l 1,9,-1
434 126 m 1,15,-1
 434 276 l 1,16,-1
 397 314 l 1,17,-1
 135 314 l 1,18,-1
 135 90 l 1,19,-1
 397 90 l 1,20,-1
 434 126 l 1,15,-1
EndSplineSet
EndChar
StartChar: C
Encoding: 67 67 36
Width: 639
VWidth: 1661
Flags: W
HStem: 0 90<169 425> 626 90<169 425>
VStem: 43 90<126 590> 462 90<126 164 552 590>
Fore
552 552 m 1,0,-1
 462 552 l 1,1,-1
 462 590 l 1,2,-1
 425 626 l 1,3,-1
 169 626 l 1,4,-1
 133 590 l 1,5,-1
 133 126 l 1,6,-1
 169 90 l 1,7,-1
 425 90 l 1,8,-1
 462 126 l 1,9,-1
 462 164 l 1,10,-1
 552 164 l 1,11,-1
 552 88 l 1,12,-1
 462 0 l 1,13,-1
 133 0 l 1,14,-1
 43 90 l 1,15,-1
 43 628 l 1,16,-1
 133 716 l 1,17,-1
 462 716 l 1,18,-1
 552 626 l 1,19,-1
 552 552 l 1,0,-1
EndSplineSet
EndChar
StartChar: D
Encoding: 68 68 37
Width: 639
VWidth: 1661
Flags: W
HStem: 0 90<131 424> 626 90<131 424>
VStem: 42 89<90 626> 460 90<126 590>
Fore
460 716 m 1,0,-1
 550 626 l 1,1,-1
 550 90 l 1,2,-1
 460 0 l 1,3,-1
 42 0 l 1,4,-1
 42 716 l 1,5,-1
 460 716 l 1,0,-1
460 126 m 1,6,-1
 460 590 l 1,7,-1
 424 626 l 1,8,-1
 131 626 l 1,9,-1
 131 90 l 1,10,-1
 424 90 l 1,11,-1
 460 126 l 1,6,-1
EndSplineSet
EndChar
StartChar: E
Encoding: 69 69 38
Width: 611
VWidth: 1661
Flags: W
HStem: 0 90<169 522> 314 90<133 492> 626 90<169 522>
VStem: 43 90<126 314 404 590>
Fore
133 590 m 1,0,-1
 133 404 l 1,1,-1
 492 404 l 1,2,-1
 492 314 l 1,3,-1
 133 314 l 1,4,-1
 133 126 l 1,5,-1
 169 90 l 1,6,-1
 522 90 l 1,7,-1
 522 0 l 1,8,-1
 133 0 l 1,9,-1
 43 90 l 1,10,-1
 43 626 l 1,11,-1
 133 716 l 1,12,-1
 522 716 l 1,13,-1
 522 626 l 1,14,-1
 169 626 l 1,15,-1
 133 590 l 1,0,-1
EndSplineSet
EndChar
StartChar: F
Encoding: 70 70 39
Width: 611
VWidth: 1661
Flags: W
HStem: 0 21G<45 135> 314 90<135 492> 626 90<171 522>
VStem: 45 90<0 314 404 590>
Fore
171 626 m 1,0,-1
 135 590 l 1,1,-1
 135 404 l 1,2,-1
 492 404 l 1,3,-1
 492 314 l 1,4,-1
 135 314 l 1,5,-1
 135 0 l 1,6,-1
 45 0 l 1,7,-1
 45 626 l 1,8,-1
 135 716 l 1,9,-1
 522 716 l 1,10,-1
 522 626 l 1,11,-1
 171 626 l 1,0,-1
EndSplineSet
EndChar
StartChar: G
Encoding: 71 71 40
Width: 641
VWidth: 1661
Flags: W
HStem: 0 90<171 425> 314 90<282 462> 626 90<171 425>
VStem: 45 88<126 590> 462 90<126 314 552 590>
Fore
552 552 m 1,0,-1
 462 552 l 1,1,-1
 462 590 l 1,2,-1
 425 626 l 1,3,-1
 171 626 l 1,4,-1
 133 590 l 1,5,-1
 133 126 l 1,6,-1
 171 90 l 1,7,-1
 425 90 l 1,8,-1
 462 126 l 1,9,-1
 462 314 l 1,10,-1
 282 314 l 1,11,-1
 282 404 l 1,12,-1
 552 404 l 1,13,-1
 552 88 l 1,14,-1
 463 0 l 1,15,-1
 133 0 l 1,16,-1
 45 90 l 1,17,-1
 45 628 l 1,18,-1
 133 716 l 1,19,-1
 462 716 l 1,20,-1
 552 626 l 1,21,-1
 552 552 l 1,0,-1
EndSplineSet
EndChar
StartChar: H
Encoding: 72 72 41
Width: 639
VWidth: 1661
Flags: W
HStem: 0 21G<43 133 460 550> 314 90<133 460> 696 20G<43 133 460 550>
VStem: 43 90<0 314 404 716> 460 90<0 314 404 716>
Fore
460 716 m 1,0,-1
 550 716 l 1,1,-1
 550 0 l 1,2,-1
 460 0 l 1,3,-1
 460 314 l 1,4,-1
 133 314 l 1,5,-1
 133 0 l 1,6,-1
 43 0 l 1,7,-1
 43 716 l 1,8,-1
 133 716 l 1,9,-1
 133 404 l 1,10,-1
 460 404 l 1,11,-1
 460 716 l 1,0,-1
EndSplineSet
EndChar
StartChar: I
Encoding: 73 73 42
Width: 222
VWidth: 1661
Flags: W
HStem: 0 716<43 133 43 133 43 43>
VStem: 43 90<0 716>
Fore
43 0 m 1,0,-1
 43 716 l 1,1,-1
 133 716 l 1,2,-1
 133 0 l 1,3,-1
 43 0 l 1,0,-1
EndSplineSet
EndChar
StartChar: J
Encoding: 74 74 43
Width: 581
VWidth: 1661
Flags: W
HStem: 0 90<171 365> 696 20G<402 492>
VStem: 43 90<126 209> 402 90<126 716>
Fore
133 209 m 1,0,-1
 133 126 l 1,1,-1
 171 90 l 1,2,-1
 365 90 l 1,3,-1
 402 126 l 1,4,-1
 402 716 l 1,5,-1
 492 716 l 1,6,-1
 492 88 l 1,7,-1
 402 0 l 1,8,-1
 133 0 l 1,9,-1
 43 90 l 1,10,-1
 43 209 l 1,11,-1
 133 209 l 1,0,-1
EndSplineSet
EndChar
StartChar: K
Encoding: 75 75 44
Width: 639
VWidth: 1661
Flags: W
HStem: 0 21G<42 131 460 550> 314 90<131 327> 696 20G<42 131 460 550>
VStem: 42 89<0 314 404 716> 460 90<0 181 535 716>
Fore
460 716 m 1,0,-1
 550 716 l 1,1,-1
 550 508 l 1,2,-1
 399 359 l 1,3,-1
 550 208 l 1,4,-1
 550 0 l 1,5,-1
 460 0 l 1,6,-1
 460 181 l 1,7,-1
 327 314 l 1,8,-1
 131 314 l 1,9,-1
 131 0 l 1,10,-1
 42 0 l 1,11,-1
 42 716 l 1,12,-1
 131 716 l 1,13,-1
 131 404 l 1,14,-1
 327 404 l 1,15,-1
 460 535 l 1,16,-1
 460 716 l 1,0,-1
EndSplineSet
EndChar
StartChar: L
Encoding: 76 76 45
Width: 581
VWidth: 1661
Flags: W
HStem: 0 90<133 492> 696 20G<43 133>
VStem: 43 90<90 716>
Fore
133 90 m 1,0,-1
 492 90 l 1,1,-1
 492 0 l 1,2,-1
 43 0 l 1,3,-1
 43 716 l 1,4,-1
 133 716 l 1,5,-1
 133 90 l 1,0,-1
EndSplineSet
EndChar
StartChar: M
Encoding: 77 77 46
Width: 822
VWidth: 1661
Flags: W
HStem: 0 21G<45 135 335.434 442.566 643 731> 696 20G<45 143.567 634.433 731>
VStem: 45 90<0 488> 643 88<0 488>
Fore
731 716 m 1,0,-1
 731 0 l 1,1,-1
 643 0 l 1,2,-1
 643 488 l 1,3,-1
 434 0 l 1,4,-1
 344 0 l 1,5,-1
 135 488 l 1,6,-1
 135 0 l 1,7,-1
 45 0 l 1,8,-1
 45 716 l 1,9,-1
 135 716 l 1,10,-1
 389 123 l 1,11,-1
 643 716 l 1,12,-1
 731 716 l 1,0,-1
EndSplineSet
EndChar
StartChar: N
Encoding: 78 78 47
Width: 641
VWidth: 1661
Flags: W
HStem: 0 21G<43 133 447.956 552> 696 20G<43 145.073 462 552>
VStem: 43 90<0 543> 462 90<171 716>
Fore
462 716 m 1,0,-1
 552 716 l 1,1,-1
 552 0 l 1,2,-1
 460 0 l 1,3,-1
 133 543 l 1,4,-1
 133 0 l 1,5,-1
 43 0 l 1,6,-1
 43 716 l 1,7,-1
 133 716 l 1,8,-1
 462 171 l 1,9,-1
 462 716 l 1,0,-1
EndSplineSet
EndChar
StartChar: O
Encoding: 79 79 48
Width: 671
VWidth: 1661
Flags: W
HStem: 0 90<169 455> 626 90<169 455>
VStem: 43 90<126 590> 492 89<126 590>
Fore
492 716 m 1,0,-1
 581 626 l 1,1,-1
 581 88 l 1,2,-1
 492 0 l 1,3,-1
 133 0 l 1,4,-1
 43 90 l 1,5,-1
 43 628 l 1,6,-1
 133 716 l 1,7,-1
 492 716 l 1,0,-1
492 126 m 1,8,-1
 492 590 l 1,9,-1
 455 626 l 1,10,-1
 169 626 l 1,11,-1
 133 590 l 1,12,-1
 133 126 l 1,13,-1
 169 90 l 1,14,-1
 455 90 l 1,15,-1
 492 126 l 1,8,-1
EndSplineSet
EndChar
StartChar: P
Encoding: 80 80 49
Width: 611
VWidth: 1661
Flags: W
HStem: 0 21G<43 133> 314 90<133 394> 626 90<133 394>
VStem: 43 90<0 314 404 626> 43 477<402 404 0 626 716 716> 430 90<440 590>
Fore
432 716 m 1,0,-1
 520 626 l 1,1,-1
 520 402 l 1,2,-1
 432 314 l 1,3,-1
 133 314 l 1,4,-1
 133 0 l 1,5,-1
 43 0 l 1,6,-1
 43 716 l 1,7,-1
 432 716 l 1,0,-1
430 440 m 1,8,-1
 430 590 l 1,9,-1
 394 626 l 1,10,-1
 133 626 l 1,11,-1
 133 404 l 1,12,-1
 394 404 l 1,13,-1
 430 440 l 1,8,-1
EndSplineSet
EndChar
StartChar: Q
Encoding: 81 81 50
Width: 672
VWidth: 1661
Flags: W
HStem: 0 90<171 457> 626 90<171 457>
VStem: 45 90<126 590> 493 90<126 590>
Fore
613 -32 m 1,0,-1
 555 -90 l 1,1,-1
 465 0 l 1,2,-1
 135 0 l 1,3,-1
 45 90 l 1,4,-1
 45 628 l 1,5,-1
 135 716 l 1,6,-1
 493 716 l 1,7,-1
 583 626 l 1,8,-1
 583 88 l 1,9,-1
 538 43 l 1,10,-1
 613 -32 l 1,0,-1
135 126 m 1,11,-1
 171 90 l 1,12,-1
 457 90 l 1,13,-1
 493 126 l 1,14,-1
 493 590 l 1,15,-1
 457 626 l 1,16,-1
 171 626 l 1,17,-1
 135 590 l 1,18,-1
 135 126 l 1,11,-1
EndSplineSet
EndChar
StartChar: R
Encoding: 82 82 51
Width: 609
VWidth: 1661
Flags: W
HStem: 0 21G<43 133 432 522> 314 90<133 395> 626 90<133 395>
VStem: 43 90<0 314 404 626> 43 479<402 404 0 626 716 716> 432 90<0 276 440 590>
Fore
432 716 m 1,0,-1
 522 626 l 1,1,-1
 522 402 l 1,2,-1
 477 357 l 1,3,-1
 522 314 l 1,4,-1
 522 0 l 1,5,-1
 432 0 l 1,6,-1
 432 276 l 1,7,-1
 395 314 l 1,8,-1
 133 314 l 1,9,-1
 133 0 l 1,10,-1
 43 0 l 1,11,-1
 43 716 l 1,12,-1
 432 716 l 1,0,-1
432 440 m 1,13,-1
 432 590 l 1,14,-1
 395 626 l 1,15,-1
 133 626 l 1,16,-1
 133 404 l 1,17,-1
 395 404 l 1,18,-1
 432 440 l 1,13,-1
EndSplineSet
EndChar
StartChar: S
Encoding: 83 83 52
Width: 641
VWidth: 1661
Flags: W
HStem: 0 90<184 425> 344 90<169 425> 626 90<169 410>
VStem: 43 90<470 590> 462 90<126 306>
Fore
552 344 m 1,0,-1
 552 88 l 1,1,-1
 462 0 l 1,2,-1
 148 0 l 1,3,-1
 58 90 l 1,4,-1
 58 164 l 1,5,-1
 148 164 l 1,6,-1
 148 126 l 1,7,-1
 184 90 l 1,8,-1
 425 90 l 1,9,-1
 462 126 l 1,10,-1
 462 306 l 1,11,-1
 425 344 l 1,12,-1
 133 344 l 1,13,-1
 43 432 l 1,14,-1
 43 628 l 1,15,-1
 133 716 l 1,16,-1
 447 716 l 1,17,-1
 537 626 l 1,18,-1
 537 552 l 1,19,-1
 447 552 l 1,20,-1
 447 590 l 1,21,-1
 410 626 l 1,22,-1
 169 626 l 1,23,-1
 133 590 l 1,24,-1
 133 470 l 1,25,-1
 169 434 l 1,26,-1
 462 434 l 1,27,-1
 552 344 l 1,0,-1
EndSplineSet
EndChar
StartChar: T
Encoding: 84 84 53
Width: 642
VWidth: 1661
Flags: W
HStem: 0 21G<256 346> 626 90<47 256 346 553>
VStem: 256 90<0 626>
Fore
553 716 m 1,0,-1
 553 626 l 1,1,-1
 346 626 l 1,2,-1
 346 0 l 1,3,-1
 256 0 l 1,4,-1
 256 626 l 1,5,-1
 47 626 l 1,6,-1
 47 716 l 1,7,-1
 553 716 l 1,0,-1
EndSplineSet
EndChar
StartChar: U
Encoding: 85 85 54
Width: 644
VWidth: 1661
Flags: W
HStem: 0 90<171 427> 696 20G<45 135 463 553>
VStem: 45 90<126 716> 463 90<126 716>
Fore
135 0 m 1,0,-1
 45 90 l 1,1,-1
 45 716 l 1,2,-1
 135 716 l 1,3,-1
 135 126 l 1,4,-1
 171 90 l 1,5,-1
 427 90 l 1,6,-1
 463 126 l 1,7,-1
 463 716 l 1,8,-1
 553 716 l 1,9,-1
 553 88 l 1,10,-1
 463 0 l 1,11,-1
 135 0 l 1,0,-1
EndSplineSet
EndChar
StartChar: V
Encoding: 86 86 55
Width: 641
VWidth: 1661
Flags: W
HStem: 0 21G<225.58 369.42> 696 20G<43 133 462 552>
VStem: 43 90<341 716> 462 90<341 716>
Fore
462 716 m 1,0,-1
 552 716 l 1,1,-1
 552 314 l 1,2,-1
 357 0 l 1,3,-1
 238 0 l 1,4,-1
 43 314 l 1,5,-1
 43 716 l 1,6,-1
 133 716 l 1,7,-1
 133 341 l 1,8,-1
 287 90 l 1,9,-1
 306 90 l 1,10,-1
 462 341 l 1,11,-1
 462 716 l 1,0,-1
EndSplineSet
EndChar
StartChar: W
Encoding: 87 87 56
Width: 878
VWidth: 1661
Flags: W
HStem: 0 21G<183.446 321.589 512.411 650.615> 696 20G<43 133 372 462 701 791>
VStem: 43 90<334 716> 372 90<334 716> 701 90<332 716>
CounterMasks: 1 38
Fore
701 716 m 1,0,-1
 791 716 l 1,1,-1
 791 312 l 1,2,-1
 641 0 l 1,3,-1
 522 0 l 1,4,-1
 417 219 l 1,5,-1
 312 0 l 1,6,-1
 193 0 l 1,7,-1
 43 314 l 1,8,-1
 43 716 l 1,9,-1
 133 716 l 1,10,-1
 133 334 l 1,11,-1
 253 83 l 1,12,-1
 372 332 l 1,13,-1
 372 716 l 1,14,-1
 462 716 l 1,15,-1
 462 334 l 1,16,-1
 581 83 l 1,17,-1
 701 332 l 1,18,-1
 701 716 l 1,0,-1
EndSplineSet
EndChar
StartChar: X
Encoding: 88 88 57
Width: 641
VWidth: 1661
Flags: W
HStem: 0 21G<43 133 462 552> 314 90<266 329> 696 20G<43 133 462 552>
VStem: 43 90<0 181 537 716> 462 90<0 181 537 716>
Fore
462 716 m 1,0,-1
 552 716 l 1,1,-1
 552 510 l 1,2,-1
 400 359 l 1,3,-1
 552 208 l 1,4,-1
 552 0 l 1,5,-1
 462 0 l 1,6,-1
 462 181 l 1,7,-1
 329 314 l 1,8,-1
 266 314 l 1,9,-1
 133 181 l 1,10,-1
 133 0 l 1,11,-1
 43 0 l 1,12,-1
 43 208 l 1,13,-1
 194 359 l 1,14,-1
 43 510 l 1,15,-1
 43 716 l 1,16,-1
 133 716 l 1,17,-1
 133 537 l 1,18,-1
 266 404 l 1,19,-1
 329 404 l 1,20,-1
 462 537 l 1,21,-1
 462 716 l 1,0,-1
EndSplineSet
EndChar
StartChar: Y
Encoding: 89 89 58
Width: 641
VWidth: 1661
Flags: W
HStem: 0 21G<253 342> 696 20G<43 133 462 552>
VStem: 43 90<537 716> 253 89<0 327> 462 90<537 716>
CounterMasks: 1 38
Fore
462 716 m 1,0,-1
 552 716 l 1,1,-1
 552 492 l 1,2,-1
 342 327 l 1,3,-1
 342 0 l 1,4,-1
 253 0 l 1,5,-1
 253 329 l 1,6,-1
 43 493 l 1,7,-1
 43 716 l 1,8,-1
 133 716 l 1,9,-1
 133 537 l 1,10,-1
 297 407 l 1,11,-1
 462 537 l 1,12,-1
 462 716 l 1,0,-1
EndSplineSet
EndChar
StartChar: Z
Encoding: 90 90 59
Width: 641
VWidth: 1661
Flags: W
HStem: 0 90<135 552> 626 90<45 462>
Fore
45 716 m 1,0,-1
 552 716 l 1,1,-1
 552 553 l 1,2,-1
 135 126 l 1,3,-1
 135 90 l 1,4,-1
 552 90 l 1,5,-1
 552 0 l 1,6,-1
 45 0 l 1,7,-1
 45 164 l 1,8,-1
 462 590 l 1,9,-1
 462 626 l 1,10,-1
 45 626 l 1,11,-1
 45 716 l 1,0,-1
EndSplineSet
EndChar
StartChar: bracketleft
Encoding: 91 91 60
Width: 313
VWidth: 1661
Flags: W
HStem: -118 90<135 224> 748 89<135 224>
VStem: 45 90<-28 748>
Fore
224 748 m 1,0,-1
 135 748 l 1,1,-1
 135 -28 l 1,2,-1
 224 -28 l 1,3,-1
 224 -118 l 1,4,-1
 45 -118 l 1,5,-1
 45 837 l 1,6,-1
 224 837 l 1,7,-1
 224 748 l 1,0,-1
EndSplineSet
EndChar
StartChar: backslash
Encoding: 92 92 61
Width: 598
VWidth: 1661
Flags: W
HStem: 0 21G<395.631 510> 696 20G<0 114.369>
Fore
0 716 m 1,0,-1
 103 716 l 1,1,-1
 510 0 l 1,2,-1
 407 0 l 1,3,-1
 0 716 l 1,0,-1
EndSplineSet
EndChar
StartChar: bracketright
Encoding: 93 93 62
Width: 267
VWidth: 1661
Flags: W
HStem: -118 90<0 90> 748 89<0 90>
VStem: 90 89<-28 748>
Fore
0 837 m 1,0,-1
 179 837 l 1,1,-1
 179 -118 l 1,2,-1
 0 -118 l 1,3,-1
 0 -28 l 1,4,-1
 90 -28 l 1,5,-1
 90 748 l 1,6,-1
 0 748 l 1,7,-1
 0 837 l 1,0,-1
EndSplineSet
EndChar
StartChar: asciicircum
Encoding: 94 94 63
Width: 737
VWidth: 1661
Flags: W
HStem: 241 477<409 646 409 409>
Fore
409 718 m 1,0,-1
 646 241 l 1,1,-1
 547 241 l 1,2,-1
 352 628 l 1,3,-1
 342 628 l 1,4,-1
 148 241 l 1,5,-1
 48 241 l 1,6,-1
 287 718 l 1,7,-1
 409 718 l 1,0,-1
EndSplineSet
EndChar
StartChar: underscore
Encoding: 95 95 64
Width: 644
VWidth: 1661
Flags: W
HStem: -163 90<47 555>
VStem: 47 508<-163 -73 -163 -73 -163 -163>
Fore
555 -163 m 1,0,-1
 47 -163 l 1,1,-1
 47 -73 l 1,2,-1
 555 -73 l 1,3,-1
 555 -163 l 1,0,-1
EndSplineSet
EndChar
StartChar: grave
Encoding: 96 96 65
Width: 274
VWidth: 1661
Flags: W
HStem: 570 148<125 140 35 184 35 35>
Fore
125 570 m 1,0,-1
 35 718 l 1,1,-1
 140 718 l 1,2,-1
 184 570 l 1,3,-1
 125 570 l 1,0,-1
EndSplineSet
EndChar
StartChar: a
Encoding: 97 97 66
Width: 644
VWidth: 1661
Flags: W
HStem: 0 90<174 349> 224 90<174 465> 417 90<174 429>
VStem: 47 89<126 186 342 380> 465 90<0 90 206 224 314 380>
Fore
465 507 m 1,0,-1
 555 419 l 1,1,-1
 555 0 l 1,2,-1
 465 0 l 1,3,-1
 465 90 l 1,4,-1
 375 0 l 1,5,-1
 136 0 l 1,6,-1
 47 90 l 1,7,-1
 47 224 l 1,8,-1
 136 314 l 1,9,-1
 465 314 l 1,10,-1
 465 380 l 1,11,-1
 429 417 l 1,12,-1
 174 417 l 1,13,-1
 136 380 l 1,14,-1
 136 342 l 1,15,-1
 47 342 l 1,16,-1
 47 419 l 1,17,-1
 136 507 l 1,18,-1
 465 507 l 1,0,-1
349 90 m 1,19,-1
 465 206 l 1,20,-1
 465 224 l 1,21,-1
 174 224 l 1,22,-1
 136 186 l 1,23,-1
 136 126 l 1,24,-1
 174 90 l 1,25,-1
 349 90 l 1,19,-1
EndSplineSet
Substitution2: "Single Substitution lookup 22 subtable" uni0E38
Substitution2: "Single Substitution lookup 22 subtable" uni0E38
EndChar
StartChar: b
Encoding: 98 98 67
Width: 644
VWidth: 1661
Flags: W
HStem: 0 90<174 429> 417 90<254 429> 696 20G<48 138>
VStem: 48 90<126 301 417 716> 465 90<126 380>
Fore
555 419 m 1,0,-1
 555 88 l 1,1,-1
 467 0 l 1,2,-1
 138 0 l 1,3,-1
 48 90 l 1,4,-1
 48 716 l 1,5,-1
 138 716 l 1,6,-1
 138 417 l 1,7,-1
 226 507 l 1,8,-1
 465 507 l 1,9,-1
 555 419 l 1,0,-1
429 90 m 1,10,-1
 465 126 l 1,11,-1
 465 380 l 1,12,-1
 429 417 l 1,13,-1
 254 417 l 1,14,-1
 138 301 l 1,15,-1
 138 126 l 1,16,-1
 174 90 l 1,17,-1
 429 90 l 1,10,-1
EndSplineSet
Substitution2: "Single Substitution lookup 22 subtable" uni0E39
Substitution2: "Single Substitution lookup 22 subtable" uni0E39
EndChar
StartChar: c
Encoding: 99 99 68
Width: 642
VWidth: 1661
Flags: W
HStem: 0 90<173 427> 417 90<171 427>
VStem: 45 90<126 380> 463 90<126 164 342 380>
Fore
553 342 m 1,0,-1
 463 342 l 1,1,-1
 463 380 l 1,2,-1
 427 417 l 1,3,-1
 171 417 l 1,4,-1
 135 380 l 1,5,-1
 135 126 l 1,6,-1
 173 90 l 1,7,-1
 427 90 l 1,8,-1
 463 126 l 1,9,-1
 463 164 l 1,10,-1
 553 164 l 1,11,-1
 553 88 l 1,12,-1
 465 0 l 1,13,-1
 135 0 l 1,14,-1
 45 90 l 1,15,-1
 45 419 l 1,16,-1
 135 507 l 1,17,-1
 463 507 l 1,18,-1
 553 419 l 1,19,-1
 553 342 l 1,0,-1
EndSplineSet
Substitution2: "Single Substitution lookup 22 subtable" uni0E3A
Substitution2: "Single Substitution lookup 22 subtable" uni0E3A
EndChar
StartChar: d
Encoding: 100 100 69
Width: 642
VWidth: 1661
Flags: W
HStem: 0 90<171 427> 417 90<173 347> 696 20G<463 553>
VStem: 45 90<126 380> 463 90<126 301 417 716>
Fore
463 716 m 1,0,-1
 553 716 l 1,1,-1
 553 90 l 1,2,-1
 463 0 l 1,3,-1
 135 0 l 1,4,-1
 45 88 l 1,5,-1
 45 419 l 1,6,-1
 135 507 l 1,7,-1
 374 507 l 1,8,-1
 463 417 l 1,9,-1
 463 716 l 1,0,-1
427 90 m 1,10,-1
 463 126 l 1,11,-1
 463 301 l 1,12,-1
 347 417 l 1,13,-1
 173 417 l 1,14,-1
 135 380 l 1,15,-1
 135 126 l 1,16,-1
 171 90 l 1,17,-1
 427 90 l 1,10,-1
EndSplineSet
EndChar
StartChar: e
Encoding: 101 101 70
Width: 641
VWidth: 1661
Flags: W
HStem: 0 90<171 427> 224 90<135 463> 417 90<171 427>
VStem: 45 90<126 224 314 380> 463 90<126 164 314 380>
Fore
463 507 m 1,0,-1
 553 419 l 1,1,-1
 553 224 l 1,2,-1
 135 224 l 1,3,-1
 135 126 l 1,4,-1
 171 90 l 1,5,-1
 427 90 l 1,6,-1
 463 126 l 1,7,-1
 463 164 l 1,8,-1
 553 164 l 1,9,-1
 553 88 l 1,10,-1
 463 0 l 1,11,-1
 135 0 l 1,12,-1
 45 90 l 1,13,-1
 45 419 l 1,14,-1
 135 507 l 1,15,-1
 463 507 l 1,0,-1
135 314 m 1,16,-1
 463 314 l 1,17,-1
 463 380 l 1,18,-1
 427 417 l 1,19,-1
 171 417 l 1,20,-1
 135 380 l 1,21,-1
 135 314 l 1,16,-1
EndSplineSet
EndChar
StartChar: f
Encoding: 102 102 71
Width: 372
VWidth: 1661
Flags: W
HStem: 0 21G<45 135> 372 90<135 284> 626 90<171 284>
VStem: 45 90<0 372 462 590>
Fore
171 626 m 1,0,-1
 135 590 l 1,1,-1
 135 462 l 1,2,-1
 284 462 l 1,3,-1
 284 372 l 1,4,-1
 135 372 l 1,5,-1
 135 0 l 1,6,-1
 45 0 l 1,7,-1
 45 628 l 1,8,-1
 133 716 l 1,9,-1
 284 716 l 1,10,-1
 284 626 l 1,11,-1
 171 626 l 1,0,-1
EndSplineSet
EndChar
StartChar: g
Encoding: 103 103 72
Width: 647
VWidth: 1661
Flags: W
HStem: -209 89<291 434> 0 90<179 354> 417 90<178 434>
VStem: 53 88<126 380> 470 90<-83 90 206 380>
Fore
560 419 m 1,0,-1
 560 -121 l 1,1,-1
 470 -209 l 1,2,-1
 291 -209 l 1,3,-1
 291 -120 l 1,4,-1
 434 -120 l 1,5,-1
 470 -83 l 1,6,-1
 470 90 l 1,7,-1
 380 0 l 1,8,-1
 141 0 l 1,9,-1
 53 90 l 1,10,-1
 51 419 l 1,11,-1
 141 507 l 1,12,-1
 470 507 l 1,13,-1
 560 419 l 1,0,-1
354 90 m 1,14,-1
 470 206 l 1,15,-1
 470 380 l 1,16,-1
 434 417 l 1,17,-1
 178 417 l 1,18,-1
 141 380 l 1,19,-1
 141 126 l 1,20,-1
 179 90 l 1,21,-1
 354 90 l 1,14,-1
EndSplineSet
EndChar
StartChar: h
Encoding: 104 104 73
Width: 616
VWidth: 1661
Flags: W
HStem: 0 21G<48 138 437 527> 417 90<256 400> 696 20G<48 138>
VStem: 48 90<0 301 417 716> 437 90<0 380>
Fore
437 507 m 1,0,-1
 527 419 l 1,1,-1
 527 0 l 1,2,-1
 437 0 l 1,3,-1
 437 380 l 1,4,-1
 400 417 l 1,5,-1
 256 417 l 1,6,-1
 138 301 l 1,7,-1
 138 0 l 1,8,-1
 48 0 l 1,9,-1
 48 716 l 1,10,-1
 138 716 l 1,11,-1
 138 417 l 1,12,-1
 228 507 l 1,13,-1
 437 507 l 1,0,-1
EndSplineSet
EndChar
StartChar: i
Encoding: 105 105 74
Width: 227
VWidth: 1661
Flags: W
HStem: 0 21G<48 138> 487 20G<48 138>
VStem: 42 104<578 621 578 621 578 578> 48 90<0 507>
Fore
48 0 m 1,0,-1
 48 507 l 1,1,-1
 138 507 l 1,2,-1
 138 0 l 1,3,-1
 48 0 l 1,0,-1
115 651 m 1,4,-1
 146 621 l 1,5,-1
 146 578 l 1,6,-1
 115 547 l 1,7,-1
 71 547 l 1,8,-1
 42 578 l 1,9,-1
 42 621 l 1,10,-1
 71 651 l 1,11,-1
 115 651 l 1,4,-1
EndSplineSet
EndChar
StartChar: j
Encoding: 106 106 75
Width: 282
VWidth: 1661
Flags: W
HStem: -209 89<-76 66> 487 20G<103 193>
VStem: 103 90<-83 507>
Fore
103 -83 m 1,0,-1
 103 507 l 1,1,-1
 193 507 l 1,2,-1
 193 -121 l 1,3,-1
 103 -209 l 1,4,-1
 -76 -209 l 1,5,-1
 -76 -120 l 1,6,-1
 66 -120 l 1,7,-1
 103 -83 l 1,0,-1
169 651 m 1,8,-1
 201 621 l 1,9,-1
 201 578 l 1,10,-1
 169 547 l 1,11,-1
 126 547 l 1,12,-1
 96 578 l 1,13,-1
 96 621 l 1,14,-1
 126 651 l 1,15,-1
 169 651 l 1,8,-1
EndSplineSet
EndChar
StartChar: k
Encoding: 107 107 76
Width: 616
VWidth: 1661
Flags: W
HStem: 0 21G<50 140 439 528> 209 90<140 306> 487 20G<439 528> 696 20G<50 140>
VStem: 50 90<0 209 299 716> 439 89<0 76 430 507>
Fore
439 507 m 1,0,-1
 528 507 l 1,1,-1
 528 404 l 1,2,-1
 377 254 l 1,3,-1
 528 103 l 1,4,-1
 528 0 l 1,5,-1
 439 0 l 1,6,-1
 439 76 l 1,7,-1
 306 209 l 1,8,-1
 140 209 l 1,9,-1
 140 0 l 1,10,-1
 50 0 l 1,11,-1
 50 716 l 1,12,-1
 140 716 l 1,13,-1
 140 299 l 1,14,-1
 306 299 l 1,15,-1
 439 430 l 1,16,-1
 439 507 l 1,0,-1
EndSplineSet
EndChar
StartChar: l
Encoding: 108 108 77
Width: 227
VWidth: 1661
Flags: W
HStem: 0 716<50 140 50 140 50 50>
VStem: 50 90<0 716>
Fore
50 0 m 1,0,-1
 50 716 l 1,1,-1
 140 716 l 1,2,-1
 140 0 l 1,3,-1
 50 0 l 1,0,-1
EndSplineSet
EndChar
StartChar: m
Encoding: 109 109 78
Width: 823
VWidth: 1661
Flags: W
HStem: 0 21G<47 136 346 435 643 733> 417 90<253 307 472 606>
VStem: 47 89<0 301 417 507> 346 89<0 380> 643 90<0 380>
Fore
645 507 m 1,0,-1
 733 419 l 1,1,-1
 733 0 l 1,2,-1
 643 0 l 1,3,-1
 643 380 l 1,4,-1
 606 417 l 1,5,-1
 472 417 l 1,6,-1
 435 380 l 1,7,-1
 435 0 l 1,8,-1
 346 0 l 1,9,-1
 346 380 l 1,10,-1
 307 417 l 1,11,-1
 253 417 l 1,12,-1
 136 301 l 1,13,-1
 136 0 l 1,14,-1
 47 0 l 1,15,-1
 47 507 l 1,16,-1
 136 507 l 1,17,-1
 136 417 l 1,18,-1
 226 507 l 1,19,-1
 346 507 l 1,20,-1
 389 463 l 1,21,-1
 434 507 l 1,22,-1
 645 507 l 1,0,-1
EndSplineSet
EndChar
StartChar: n
Encoding: 110 110 79
Width: 612
VWidth: 1661
Flags: W
HStem: 0 21G<45 135 434 523> 417 90<253 397>
VStem: 45 90<0 301 417 507> 434 89<0 380>
Fore
434 507 m 1,0,-1
 523 419 l 1,1,-1
 523 0 l 1,2,-1
 434 0 l 1,3,-1
 434 380 l 1,4,-1
 397 417 l 1,5,-1
 253 417 l 1,6,-1
 135 301 l 1,7,-1
 135 0 l 1,8,-1
 45 0 l 1,9,-1
 45 507 l 1,10,-1
 135 507 l 1,11,-1
 135 417 l 1,12,-1
 224 507 l 1,13,-1
 434 507 l 1,0,-1
EndSplineSet
EndChar
StartChar: o
Encoding: 111 111 80
Width: 666
VWidth: 1661
Flags: W
HStem: 0 90<183 439> 419 89<183 437>
VStem: 56 90<128 382> 475 90<126 382>
Fore
475 508 m 1,0,-1
 565 419 l 1,1,-1
 565 90 l 1,2,-1
 475 0 l 1,3,-1
 146 0 l 1,4,-1
 56 90 l 1,5,-1
 56 419 l 1,6,-1
 146 508 l 1,7,-1
 475 508 l 1,0,-1
475 126 m 1,8,-1
 475 382 l 1,9,-1
 437 419 l 1,10,-1
 183 419 l 1,11,-1
 146 382 l 1,12,-1
 146 128 l 1,13,-1
 183 90 l 1,14,-1
 439 90 l 1,15,-1
 475 126 l 1,8,-1
EndSplineSet
EndChar
StartChar: p
Encoding: 112 112 81
Width: 639
VWidth: 1661
Flags: W
HStem: -209 21G<43 133> 0 90<133 425> 417 90<169 425>
VStem: 43 90<-209 0 90 380> 462 90<126 380>
Fore
462 507 m 1,0,-1
 552 419 l 1,1,-1
 552 88 l 1,2,-1
 462 0 l 1,3,-1
 133 0 l 1,4,-1
 133 -209 l 1,5,-1
 43 -209 l 1,6,-1
 43 419 l 1,7,-1
 133 507 l 1,8,-1
 462 507 l 1,0,-1
462 126 m 1,9,-1
 462 380 l 1,10,-1
 425 417 l 1,11,-1
 169 417 l 1,12,-1
 133 380 l 1,13,-1
 133 90 l 1,14,-1
 425 90 l 1,15,-1
 462 126 l 1,9,-1
EndSplineSet
EndChar
StartChar: q
Encoding: 113 113 82
Width: 641
VWidth: 1661
Flags: W
HStem: -209 21G<462 552> 0 90<171 462> 417 90<171 425>
VStem: 45 88<126 380> 462 90<-209 0 90 380>
Fore
552 419 m 1,0,-1
 552 -209 l 1,1,-1
 462 -209 l 1,2,-1
 462 0 l 1,3,-1
 133 0 l 1,4,-1
 45 88 l 1,5,-1
 45 419 l 1,6,-1
 133 507 l 1,7,-1
 463 507 l 1,8,-1
 552 419 l 1,0,-1
171 90 m 1,9,-1
 462 90 l 1,10,-1
 462 380 l 1,11,-1
 425 417 l 1,12,-1
 171 417 l 1,13,-1
 133 380 l 1,14,-1
 133 126 l 1,15,-1
 171 90 l 1,9,-1
EndSplineSet
EndChar
StartChar: r
Encoding: 114 114 83
Width: 490
VWidth: 1661
Flags: W
HStem: 0 21G<43 133> 417 90<249 402>
VStem: 43 90<0 301 417 507>
Fore
402 417 m 1,0,-1
 249 417 l 1,1,-1
 133 301 l 1,2,-1
 133 0 l 1,3,-1
 43 0 l 1,4,-1
 43 507 l 1,5,-1
 133 507 l 1,6,-1
 133 417 l 1,7,-1
 223 507 l 1,8,-1
 402 507 l 1,9,-1
 402 417 l 1,0,-1
EndSplineSet
EndChar
StartChar: s
Encoding: 115 115 84
Width: 641
VWidth: 1661
Flags: W
HStem: 0 90<186 425> 209 90<171 425> 417 90<171 410>
VStem: 462 90<126 171>
Fore
552 209 m 1,0,-1
 552 88 l 1,1,-1
 463 0 l 1,2,-1
 150 0 l 1,3,-1
 60 90 l 1,4,-1
 60 164 l 1,5,-1
 150 164 l 1,6,-1
 150 126 l 1,7,-1
 186 90 l 1,8,-1
 425 90 l 1,9,-1
 462 126 l 1,10,-1
 462 171 l 1,11,-1
 425 209 l 1,12,-1
 135 209 l 1,13,-1
 45 297 l 1,14,-1
 45 419 l 1,15,-1
 133 507 l 1,16,-1
 449 507 l 1,17,-1
 537 419 l 1,18,-1
 537 342 l 1,19,-1
 447 342 l 1,20,-1
 447 380 l 1,21,-1
 410 417 l 1,22,-1
 171 417 l 1,23,-1
 135 380 l 1,24,-1
 135 336 l 1,25,-1
 171 299 l 1,26,-1
 463 299 l 1,27,-1
 552 209 l 1,0,-1
EndSplineSet
EndChar
StartChar: t
Encoding: 116 116 85
Width: 368
VWidth: 1661
Flags: W
HStem: 0 90<171 281> 432 90<135 281> 696 20G<45 135>
VStem: 45 90<126 432 522 716> 45 236<88 90 432 522 88 432 716 716>
Fore
281 432 m 1,0,-1
 135 432 l 1,1,-1
 135 126 l 1,2,-1
 171 90 l 1,3,-1
 281 90 l 1,4,-1
 281 0 l 1,5,-1
 133 0 l 1,6,-1
 45 88 l 1,7,-1
 45 716 l 1,8,-1
 135 716 l 1,9,-1
 135 522 l 1,10,-1
 281 522 l 1,11,-1
 281 432 l 1,0,-1
EndSplineSet
EndChar
StartChar: u
Encoding: 117 117 86
Width: 611
VWidth: 1661
Flags: W
HStem: 0 90<171 316> 487 20G<45 135 434 523>
VStem: 45 90<126 507> 434 89<0 90 206 507>
Fore
434 507 m 1,0,-1
 523 507 l 1,1,-1
 523 0 l 1,2,-1
 434 0 l 1,3,-1
 434 90 l 1,4,-1
 344 0 l 1,5,-1
 135 0 l 1,6,-1
 45 90 l 1,7,-1
 45 507 l 1,8,-1
 135 507 l 1,9,-1
 135 126 l 1,10,-1
 171 90 l 1,11,-1
 316 90 l 1,12,-1
 434 206 l 1,13,-1
 434 507 l 1,0,-1
EndSplineSet
EndChar
StartChar: v
Encoding: 118 118 87
Width: 584
VWidth: 1661
Flags: W
HStem: 0 75<248 292> 487 20G<47 136 405 493>
VStem: 47 89<216 507> 405 88<216 507>
Fore
405 507 m 1,0,-1
 493 507 l 1,1,-1
 493 209 l 1,2,-1
 331 0 l 1,3,-1
 211 0 l 1,4,-1
 47 209 l 1,5,-1
 47 507 l 1,6,-1
 136 507 l 1,7,-1
 136 216 l 1,8,-1
 248 75 l 1,9,-1
 292 75 l 1,10,-1
 405 216 l 1,11,-1
 405 507 l 1,0,-1
EndSplineSet
EndChar
StartChar: w
Encoding: 119 119 88
Width: 822
VWidth: 1661
Flags: W
HStem: 0 90<211 267 508 566> 487 20G<45 135 344 434 643 733>
VStem: 45 90<209 507> 344 90<208 507> 643 90<209 507>
CounterMasks: 1 38
Fore
643 507 m 1,0,-1
 733 507 l 1,1,-1
 733 209 l 1,2,-1
 596 0 l 1,3,-1
 478 0 l 1,4,-1
 389 138 l 1,5,-1
 299 0 l 1,6,-1
 179 0 l 1,7,-1
 45 209 l 1,8,-1
 45 507 l 1,9,-1
 135 507 l 1,10,-1
 135 208 l 1,11,-1
 211 90 l 1,12,-1
 267 90 l 1,13,-1
 344 208 l 1,14,-1
 344 507 l 1,15,-1
 434 507 l 1,16,-1
 434 206 l 1,17,-1
 508 90 l 1,18,-1
 566 90 l 1,19,-1
 643 208 l 1,20,-1
 643 507 l 1,0,-1
EndSplineSet
EndChar
StartChar: x
Encoding: 120 120 89
Width: 641
VWidth: 1661
Flags: W
HStem: 0 21G<45 135 463 553> 209 90<267 331> 487 20G<45 135 463 553>
VStem: 45 90<0 76 430 507> 463 90<0 76 430 507>
Fore
463 507 m 1,0,-1
 553 507 l 1,1,-1
 553 404 l 1,2,-1
 402 254 l 1,3,-1
 553 103 l 1,4,-1
 553 0 l 1,5,-1
 463 0 l 1,6,-1
 463 76 l 1,7,-1
 331 209 l 1,8,-1
 267 209 l 1,9,-1
 135 76 l 1,10,-1
 135 0 l 1,11,-1
 45 0 l 1,12,-1
 45 103 l 1,13,-1
 196 254 l 1,14,-1
 45 404 l 1,15,-1
 45 507 l 1,16,-1
 135 507 l 1,17,-1
 135 430 l 1,18,-1
 267 299 l 1,19,-1
 331 299 l 1,20,-1
 463 430 l 1,21,-1
 463 507 l 1,0,-1
EndSplineSet
EndChar
StartChar: y
Encoding: 121 121 90
Width: 641
VWidth: 1661
Flags: W
HStem: -209 89<282 425> 0 90<169 346> 487 20G<43 133 462 552>
VStem: 43 90<126 507> 462 90<-83 90 206 507>
Fore
552 507 m 1,0,-1
 552 -121 l 1,1,-1
 462 -209 l 1,2,-1
 282 -209 l 1,3,-1
 282 -120 l 1,4,-1
 425 -120 l 1,5,-1
 462 -83 l 1,6,-1
 462 90 l 1,7,-1
 372 0 l 1,8,-1
 133 0 l 1,9,-1
 43 90 l 1,10,-1
 43 507 l 1,11,-1
 133 507 l 1,12,-1
 133 126 l 1,13,-1
 169 90 l 1,14,-1
 346 90 l 1,15,-1
 462 206 l 1,16,-1
 462 507 l 1,17,-1
 552 507 l 1,0,-1
EndSplineSet
EndChar
StartChar: z
Encoding: 122 122 91
Width: 632
VWidth: 1661
Flags: W
HStem: 0 90<141 545> 417 90<37 440>
Fore
37 507 m 1,0,-1
 545 507 l 1,1,-1
 545 372 l 1,2,-1
 141 111 l 1,3,-1
 141 90 l 1,4,-1
 545 90 l 1,5,-1
 545 0 l 1,6,-1
 37 0 l 1,7,-1
 37 135 l 1,8,-1
 440 394 l 1,9,-1
 440 417 l 1,10,-1
 37 417 l 1,11,-1
 37 507 l 1,0,-1
EndSplineSet
EndChar
StartChar: braceleft
Encoding: 123 123 92
Width: 406
VWidth: 1661
Flags: W
HStem: -116 89<264 317> 751 90<264 317>
VStem: 138 90<12 272 452 714>
Fore
228 714 m 1,0,-1
 228 415 l 1,1,-1
 174 362 l 1,2,-1
 228 311 l 1,3,-1
 228 12 l 1,4,-1
 264 -27 l 1,5,-1
 317 -27 l 1,6,-1
 317 -116 l 1,7,-1
 228 -116 l 1,8,-1
 138 -27 l 1,9,-1
 138 272 l 1,10,-1
 48 362 l 1,11,-1
 138 452 l 1,12,-1
 138 751 l 1,13,-1
 228 841 l 1,14,-1
 317 841 l 1,15,-1
 317 751 l 1,16,-1
 264 751 l 1,17,-1
 228 714 l 1,0,-1
EndSplineSet
EndChar
StartChar: bar
Encoding: 124 124 93
Width: 222
VWidth: 1661
Flags: W
HStem: -206 1076<45 135 45 135 45 45>
VStem: 45 90<-206 870>
Fore
45 -206 m 1,0,-1
 45 870 l 1,1,-1
 135 870 l 1,2,-1
 135 -206 l 1,3,-1
 45 -206 l 1,0,-1
EndSplineSet
EndChar
StartChar: braceright
Encoding: 125 125 94
Width: 357
VWidth: 1661
Flags: W
HStem: -116 89<0 51> 751 90<0 51>
VStem: 90 89<12 272 452 714>
Fore
179 452 m 1,0,-1
 267 362 l 1,1,-1
 179 272 l 1,2,-1
 179 -27 l 1,3,-1
 90 -116 l 1,4,-1
 0 -116 l 1,5,-1
 0 -27 l 1,6,-1
 51 -27 l 1,7,-1
 90 12 l 1,8,-1
 90 309 l 1,9,-1
 141 362 l 1,10,-1
 90 415 l 1,11,-1
 90 714 l 1,12,-1
 51 751 l 1,13,-1
 0 751 l 1,14,-1
 0 841 l 1,15,-1
 90 841 l 1,16,-1
 179 751 l 1,17,-1
 179 452 l 1,0,-1
EndSplineSet
EndChar
StartChar: asciitilde
Encoding: 126 126 95
Width: 644
VWidth: 1661
Flags: W
HStem: 347 180<467 467 467 467>
VStem: 48 90<347 400> 467 90<473 527>
Fore
467 527 m 1,0,-1
 557 527 l 1,1,-1
 557 437 l 1,2,-1
 467 347 l 1,3,-1
 377 347 l 1,4,-1
 204 437 l 1,5,-1
 174 437 l 1,6,-1
 138 400 l 1,7,-1
 138 347 l 1,8,-1
 48 347 l 1,9,-1
 48 437 l 1,10,-1
 138 527 l 1,11,-1
 228 527 l 1,12,-1
 399 437 l 1,13,-1
 430 437 l 1,14,-1
 467 473 l 1,15,-1
 467 527 l 1,0,-1
EndSplineSet
EndChar
StartChar: uni0E33.alt1
Encoding: 65539 -1 96
Width: 611
VWidth: 1661
Flags: W
HStem: 0 21G<432 522> 568 90<169 395> 756 75<-384 -346> 920 75<-384 -346>
VStem: 432 90<0 532>
Fore
432 658 m 1,0,-1
 522 568 l 1,1,-1
 522 0 l 1,2,-1
 432 0 l 1,3,-1
 432 532 l 1,4,-1
 395 568 l 1,5,-1
 169 568 l 1,6,-1
 133 530 l 1,7,-1
 133 493 l 1,8,-1
 43 493 l 1,9,-1
 43 568 l 1,10,-1
 133 658 l 1,11,-1
 432 658 l 1,0,-1
-414 995 m 1,12,-1
 -316 995 l 1,13,-1
 -246 925 l 1,14,-1
 -246 826 l 1,15,-1
 -316 756 l 1,16,-1
 -414 756 l 1,17,-1
 -485 826 l 1,18,-1
 -485 925 l 1,19,-1
 -414 995 l 1,12,-1
-321 857 m 1,20,-1
 -321 894 l 1,21,-1
 -346 920 l 1,22,-1
 -384 920 l 1,23,-1
 -409 894 l 1,24,-1
 -409 857 l 1,25,-1
 -384 831 l 1,26,-1
 -346 831 l 1,27,-1
 -321 857 l 1,20,-1
EndSplineSet
EndChar
StartChar: quotedbl
Encoding: 34 34 97
Width: 358
VWidth: 1661
Flags: W
HStem: 568 150<60 120 194 254>
VStem: 45 224<683 718 718 718 718 718>
Fore
60 568 m 1,0,-1
 45 718 l 1,1,-1
 135 718 l 1,2,-1
 120 568 l 1,3,-1
 60 568 l 1,0,-1
179 718 m 1,4,-1
 269 718 l 1,5,-1
 254 568 l 1,6,-1
 194 568 l 1,7,-1
 179 718 l 1,4,-1
EndSplineSet
EndChar
StartChar: exclam
Encoding: 33 33 98
Width: 244
VWidth: 1661
Flags: W
HStem: 0 21G<60 143.667> 696 20G<50 154>
VStem: 50 104<30 73 583.467 716 30 73 30 30> 65 75<148 280.533>
Fore
80 103 m 1,0,-1
 123 103 l 1,1,-1
 154 73 l 1,2,-1
 154 30 l 1,3,-1
 123 0 l 1,4,-1
 80 0 l 1,5,-1
 50 30 l 1,6,-1
 50 73 l 1,7,-1
 80 103 l 1,0,-1
140 148 m 1,8,-1
 65 148 l 1,9,-1
 50 716 l 1,10,-1
 154 716 l 1,11,-1
 140 148 l 1,8,-1
EndSplineSet
EndChar
StartChar: uni0E4E.alt1
Encoding: 65540 -1 99
Width: 0
VWidth: 1661
Flags: W
HStem: 756 284<-530 -455 -455 -455> 950 90<-419 -321>
VStem: -620 90<756 839>
Fore
-455 1040 m 1,0,-1
 -321 1040 l 1,1,-1
 -321 950 l 1,2,-1
 -419 950 l 1,3,-1
 -425 944 l 1,4,-1
 -425 846 l 1,5,-1
 -523 846 l 1,6,-1
 -530 839 l 1,7,-1
 -530 756 l 1,8,-1
 -620 756 l 1,9,-1
 -620 875 l 1,10,-1
 -560 935 l 1,11,-1
 -515 935 l 1,12,-1
 -515 980 l 1,13,-1
 -455 1040 l 1,0,-1
EndSplineSet
EndChar
StartChar: exclamdown
Encoding: 161 161 100
Width: 240
VWidth: 1661
Flags: W
HStem: -209 21G<47 151> 488 20G<58 140.355>
VStem: 47 104<-209 -76.4667 434 477 434 477 -209 -209> 61 75<226.467 359>
Fore
121 508 m 1,0,-1
 151 477 l 1,1,-1
 151 434 l 1,2,-1
 121 404 l 1,3,-1
 78 404 l 1,4,-1
 47 434 l 1,5,-1
 47 477 l 1,6,-1
 78 508 l 1,7,-1
 121 508 l 1,0,-1
61 359 m 1,8,-1
 136 359 l 1,9,-1
 151 -209 l 1,10,-1
 47 -209 l 1,11,-1
 61 359 l 1,8,-1
EndSplineSet
EndChar
StartChar: cent
Encoding: 162 162 101
Width: 581
VWidth: 1661
Flags: W
HStem: 0 90<169 223 312 365> 568 90<169 223 312 365>
VStem: 43 90<126 532> 223 89<-60 0 658 718> 402 90<126 164 493 532>
CounterMasks: 1 38
Fore
492 493 m 1,0,-1
 402 493 l 1,1,-1
 402 532 l 1,2,-1
 365 568 l 1,3,-1
 169 568 l 1,4,-1
 133 532 l 1,5,-1
 133 126 l 1,6,-1
 169 90 l 1,7,-1
 365 90 l 1,8,-1
 402 126 l 1,9,-1
 402 164 l 1,10,-1
 492 164 l 1,11,-1
 492 90 l 1,12,-1
 402 0 l 1,13,-1
 312 0 l 1,14,-1
 312 -60 l 1,15,-1
 223 -60 l 1,16,-1
 223 0 l 1,17,-1
 133 0 l 1,18,-1
 43 90 l 1,19,-1
 43 568 l 1,20,-1
 133 658 l 1,21,-1
 223 658 l 1,22,-1
 223 718 l 1,23,-1
 312 718 l 1,24,-1
 312 658 l 1,25,-1
 402 658 l 1,26,-1
 492 568 l 1,27,-1
 492 493 l 1,0,-1
EndSplineSet
EndChar
StartChar: sterling
Encoding: 163 163 102
Width: 669
VWidth: 1661
Flags: W
HStem: 0 90<171 581> 314 90<43 163 253 372> 628 90<289 425>
VStem: 163 90<209 314 404 591>
CounterMasks: 1 e0
Fore
171 90 m 1,0,-1
 581 90 l 1,1,-1
 581 0 l 1,2,-1
 43 0 l 1,3,-1
 43 90 l 1,4,-1
 163 209 l 1,5,-1
 163 314 l 1,6,-1
 43 314 l 1,7,-1
 43 404 l 1,8,-1
 163 404 l 1,9,-1
 163 628 l 1,10,-1
 253 718 l 1,11,-1
 462 718 l 1,12,-1
 552 628 l 1,13,-1
 552 553 l 1,14,-1
 462 553 l 1,15,-1
 462 591 l 1,16,-1
 425 628 l 1,17,-1
 289 628 l 1,18,-1
 253 591 l 1,19,-1
 253 404 l 1,20,-1
 372 404 l 1,21,-1
 372 314 l 1,22,-1
 253 314 l 1,23,-1
 253 173 l 1,24,-1
 171 90 l 1,0,-1
EndSplineSet
EndChar
StartChar: currency
Encoding: 164 164 103
Width: 642
VWidth: 1661
Flags: W
HStem: 120 89<171 425> 508 90<171 425>
VStem: 45 88<246 472> 462 90<246 472>
Fore
552 209 m 1,0,-1
 528 186 l 1,1,-1
 581 133 l 1,2,-1
 523 75 l 1,3,-1
 470 128 l 1,4,-1
 463 120 l 1,5,-1
 133 120 l 1,6,-1
 125 128 l 1,7,-1
 73 75 l 1,8,-1
 15 133 l 1,9,-1
 66 186 l 1,10,-1
 45 209 l 1,11,-1
 45 508 l 1,12,-1
 66 532 l 1,13,-1
 15 585 l 1,14,-1
 73 643 l 1,15,-1
 125 590 l 1,16,-1
 133 598 l 1,17,-1
 462 598 l 1,18,-1
 470 590 l 1,19,-1
 523 643 l 1,20,-1
 581 585 l 1,21,-1
 528 532 l 1,22,-1
 552 508 l 1,23,-1
 552 209 l 1,0,-1
171 209 m 1,24,-1
 425 209 l 1,25,-1
 462 246 l 1,26,-1
 462 472 l 1,27,-1
 425 508 l 1,28,-1
 171 508 l 1,29,-1
 133 472 l 1,30,-1
 133 246 l 1,31,-1
 171 209 l 1,24,-1
EndSplineSet
EndChar
StartChar: yen
Encoding: 165 165 104
Width: 641
VWidth: 1661
Flags: W
HStem: 0 21G<253 342> 150 89<103 253 342 492> 299 90<103 176 419 492>
VStem: 43 90<537 718> 253 89<0 150 239 299> 462 90<537 718>
CounterMasks: 1 1c
Fore
462 718 m 1,0,-1
 552 718 l 1,1,-1
 552 493 l 1,2,-1
 419 389 l 1,3,-1
 492 389 l 1,4,-1
 492 299 l 1,5,-1
 342 299 l 1,6,-1
 342 239 l 1,7,-1
 492 239 l 1,8,-1
 492 150 l 1,9,-1
 342 150 l 1,10,-1
 342 0 l 1,11,-1
 253 0 l 1,12,-1
 253 150 l 1,13,-1
 103 150 l 1,14,-1
 103 239 l 1,15,-1
 253 239 l 1,16,-1
 253 299 l 1,17,-1
 103 299 l 1,18,-1
 103 389 l 1,19,-1
 176 389 l 1,20,-1
 43 493 l 1,21,-1
 43 718 l 1,22,-1
 133 718 l 1,23,-1
 133 537 l 1,24,-1
 297 407 l 1,25,-1
 462 537 l 1,26,-1
 462 718 l 1,0,-1
EndSplineSet
EndChar
StartChar: brokenbar
Encoding: 166 166 105
Width: 222
VWidth: 1661
Flags: W
HStem: -208 21G<42 131>
VStem: 42 89<-208 301 359 837>
Fore
42 837 m 1,0,-1
 131 837 l 1,1,-1
 131 359 l 1,2,-1
 42 359 l 1,3,-1
 42 837 l 1,0,-1
42 -208 m 1,4,-1
 42 301 l 1,5,-1
 131 301 l 1,6,-1
 131 -208 l 1,7,-1
 42 -208 l 1,4,-1
EndSplineSet
EndChar
StartChar: section
Encoding: 167 167 106
Width: 583
VWidth: 1661
Flags: W
HStem: -60 90<199 365> 164 90<171 365 43 492 171 171> 404 89<169 365> 626 90<169 336>
VStem: 43 90<291 365 530 590> 402 90<66 126 291 365>
Fore
492 164 m 1,0,-1
 492 28 l 1,1,-1
 402 -60 l 1,2,-1
 163 -60 l 1,3,-1
 73 30 l 1,4,-1
 73 105 l 1,5,-1
 163 105 l 1,6,-1
 163 66 l 1,7,-1
 199 30 l 1,8,-1
 365 30 l 1,9,-1
 402 66 l 1,10,-1
 402 126 l 1,11,-1
 365 164 l 1,12,-1
 133 164 l 1,13,-1
 43 254 l 1,14,-1
 43 404 l 1,15,-1
 88 449 l 1,16,-1
 43 492 l 1,17,-1
 43 628 l 1,18,-1
 133 716 l 1,19,-1
 372 716 l 1,20,-1
 462 628 l 1,21,-1
 462 552 l 1,22,-1
 372 552 l 1,23,-1
 372 590 l 1,24,-1
 336 626 l 1,25,-1
 169 626 l 1,26,-1
 133 590 l 1,27,-1
 133 530 l 1,28,-1
 169 493 l 1,29,-1
 402 493 l 1,30,-1
 492 404 l 1,31,-1
 492 253 l 1,32,-1
 447 209 l 1,33,-1
 492 164 l 1,0,-1
171 254 m 1,34,-1
 365 254 l 1,35,-1
 402 291 l 1,36,-1
 402 365 l 1,37,-1
 365 404 l 1,38,-1
 169 404 l 1,39,-1
 133 365 l 1,40,-1
 133 291 l 1,41,-1
 171 254 l 1,34,-1
EndSplineSet
EndChar
StartChar: dieresis
Encoding: 168 168 107
Width: 491
VWidth: 1661
Flags: W
HStem: 781 134<100 154 294 349>
VStem: 60 329<819 875 764 819>
Fore
349 915 m 1,0,-1
 389 875 l 1,1,-1
 389 819 l 1,2,-1
 349 781 l 1,3,-1
 294 781 l 1,4,-1
 254 819 l 1,5,-1
 254 875 l 1,6,-1
 294 915 l 1,7,-1
 349 915 l 1,0,-1
100 915 m 1,8,-1
 154 915 l 1,9,-1
 194 875 l 1,10,-1
 194 819 l 1,11,-1
 154 781 l 1,12,-1
 100 781 l 1,13,-1
 60 819 l 1,14,-1
 60 875 l 1,15,-1
 100 915 l 1,8,-1
EndSplineSet
EndChar
StartChar: copyright
Encoding: 169 169 108
Width: 739
VWidth: 1661
Flags: W
HStem: 0 75<233 468> 120 74<282 419> 402 75<282 419> 522 74<231 468>
VStem: 51 75<179 417> 171 75<231 365> 455 75<231 269 329 365> 575 75<179 417>
Fore
261 477 m 1,0,-1
 440 477 l 1,1,-1
 530 389 l 1,2,-1
 530 329 l 1,3,-1
 455 329 l 1,4,-1
 455 365 l 1,5,-1
 419 402 l 1,6,-1
 282 402 l 1,7,-1
 246 365 l 1,8,-1
 246 231 l 1,9,-1
 282 194 l 1,10,-1
 419 194 l 1,11,-1
 455 231 l 1,12,-1
 455 269 l 1,13,-1
 530 269 l 1,14,-1
 530 208 l 1,15,-1
 440 120 l 1,16,-1
 261 120 l 1,17,-1
 171 208 l 1,18,-1
 171 389 l 1,19,-1
 261 477 l 1,0,-1
500 596 m 1,20,-1
 650 449 l 1,21,-1
 650 150 l 1,22,-1
 500 0 l 1,23,-1
 201 0 l 1,24,-1
 51 150 l 1,25,-1
 51 449 l 1,26,-1
 201 596 l 1,27,-1
 500 596 l 1,20,-1
575 179 m 1,28,-1
 575 417 l 1,29,-1
 468 522 l 1,30,-1
 231 522 l 1,31,-1
 126 417 l 1,32,-1
 126 179 l 1,33,-1
 233 75 l 1,34,-1
 468 75 l 1,35,-1
 575 179 l 1,28,-1
EndSplineSet
EndChar
StartChar: ordfeminine
Encoding: 170 170 109
Width: 516
VWidth: 1661
Flags: W
HStem: 277 69<136 271> 447 70<136 359> 596 68<136 331>
VStem: 40 68<374 419 538 568> 359 68<277 346 434 447 517 568 277 664 277 277>
Fore
359 664 m 1,0,-1
 427 596 l 1,1,-1
 427 277 l 1,2,-1
 359 277 l 1,3,-1
 359 346 l 1,4,-1
 291 277 l 1,5,-1
 108 277 l 1,6,-1
 40 346 l 1,7,-1
 40 449 l 1,8,-1
 108 517 l 1,9,-1
 359 517 l 1,10,-1
 359 568 l 1,11,-1
 331 596 l 1,12,-1
 136 596 l 1,13,-1
 108 568 l 1,14,-1
 108 538 l 1,15,-1
 40 538 l 1,16,-1
 40 596 l 1,17,-1
 108 664 l 1,18,-1
 359 664 l 1,0,-1
271 346 m 1,19,-1
 359 434 l 1,20,-1
 359 447 l 1,21,-1
 136 447 l 1,22,-1
 108 419 l 1,23,-1
 108 374 l 1,24,-1
 136 346 l 1,25,-1
 271 346 l 1,19,-1
EndSplineSet
EndChar
StartChar: guillemotleft
Encoding: 171 171 110
Width: 526
VWidth: 1661
Flags: W
HStem: 81 421<228 228 228 228>
VStem: 48 389<248 502 248 248>
Fore
48 248 m 1,0,-1
 48 336 l 1,1,-1
 228 502 l 1,2,-1
 228 379 l 1,3,-1
 133 291 l 1,4,-1
 228 204 l 1,5,-1
 228 81 l 1,6,-1
 48 248 l 1,0,-1
437 502 m 1,7,-1
 437 379 l 1,8,-1
 341 291 l 1,9,-1
 437 204 l 1,10,-1
 437 81 l 1,11,-1
 257 248 l 1,12,-1
 257 336 l 1,13,-1
 437 502 l 1,7,-1
EndSplineSet
EndChar
StartChar: logicalnot
Encoding: 172 172 111
Width: 674
VWidth: 1661
Flags: W
HStem: 314 90<48 497>
VStem: 48 538<314 404 150 404 404 404> 497 89<150 314>
Fore
48 404 m 1,0,-1
 586 404 l 1,1,-1
 586 150 l 1,2,-1
 497 150 l 1,3,-1
 497 314 l 1,4,-1
 48 314 l 1,5,-1
 48 404 l 1,0,-1
EndSplineSet
EndChar
StartChar: registered
Encoding: 174 174 112
Width: 579
VWidth: 1661
Flags: W
HStem: 299 58<209 339> 472 46<246 299> 566 47<246 304.225> 671 60<209 339>
VStem: 56 60<450 580> 199 47<410 472 518 566> 324 46<409 447> 430 60<450 580>
Fore
490 605 m 1,0,-1
 490 425 l 1,1,-1
 364 299 l 1,2,-1
 184 299 l 1,3,-1
 56 425 l 1,4,-1
 56 605 l 1,5,-1
 184 731 l 1,6,-1
 364 731 l 1,7,-1
 490 605 l 1,0,-1
430 450 m 1,8,-1
 430 580 l 1,9,-1
 339 671 l 1,10,-1
 209 671 l 1,11,-1
 116 580 l 1,12,-1
 116 450 l 1,13,-1
 209 357 l 1,14,-1
 339 357 l 1,15,-1
 430 450 l 1,8,-1
199 613 m 1,16,-1
 319 613 l 1,17,-1
 370 561 l 1,18,-1
 370 525 l 1,19,20
 365 518 365 518 359 512 c 2,21,-1
 342 495 l 1,22,23
 344 493 344 493 349 489 c 128,-1,24
 354 485 354 485 359 480 c 0,25,26
 365 473 365 473 370 467 c 1,27,-1
 370 409 l 1,28,-1
 324 409 l 1,29,-1
 324 447 l 1,30,-1
 299 472 l 1,31,-1
 246 472 l 1,32,-1
 246 410 l 1,33,-1
 199 410 l 1,34,-1
 199 613 l 1,16,-1
324 543 m 1,35,36
 321 547 321 547 311.5 556 c 128,-1,37
 302 565 302 565 299 566 c 1,38,-1
 246 566 l 1,39,-1
 246 518 l 1,40,-1
 299 518 l 1,41,-1
 324 543 l 1,35,36
EndSplineSet
EndChar
StartChar: macron
Encoding: 175 175 113
Width: 370
VWidth: 1661
Flags: W
HStem: 756 90<58 296 58 296 58 58>
Fore
58 756 m 1,0,-1
 58 846 l 1,1,-1
 296 846 l 1,2,-1
 296 756 l 1,3,-1
 58 756 l 1,0,-1
58 756 m 1,4,-1
 58 846 l 1,5,-1
 296 846 l 1,6,-1
 296 756 l 1,7,-1
 58 756 l 1,4,-1
58 756 m 1,8,-1
 58 846 l 1,9,-1
 296 846 l 1,10,-1
 296 756 l 1,11,-1
 58 756 l 1,8,-1
EndSplineSet
EndChar
StartChar: degree
Encoding: 176 176 114
Width: 431
VWidth: 1661
Flags: W
HStem: 417 90<171 216> 626 90<169 216>
VStem: 43 90<545 590> 253 89<543 590>
Fore
253 716 m 1,0,-1
 342 626 l 1,1,-1
 342 507 l 1,2,-1
 254 417 l 1,3,-1
 133 417 l 1,4,-1
 43 507 l 1,5,-1
 43 628 l 1,6,-1
 133 716 l 1,7,-1
 253 716 l 1,0,-1
253 543 m 1,8,-1
 253 590 l 1,9,-1
 216 626 l 1,10,-1
 169 626 l 1,11,-1
 133 590 l 1,12,-1
 133 545 l 1,13,-1
 171 507 l 1,14,-1
 216 507 l 1,15,-1
 253 543 l 1,8,-1
EndSplineSet
EndChar
StartChar: plusminus
Encoding: 177 177 115
Width: 729
VWidth: 1661
Flags: W
HStem: 0 90<60 297 387 626> 284 90<60 297 387 626>
VStem: 297 90<90 284 374 598>
Fore
626 284 m 1,0,-1
 387 284 l 1,1,-1
 387 90 l 1,2,-1
 626 90 l 1,3,-1
 626 0 l 1,4,-1
 60 0 l 1,5,-1
 60 90 l 1,6,-1
 297 90 l 1,7,-1
 297 284 l 1,8,-1
 60 284 l 1,9,-1
 60 374 l 1,10,-1
 297 374 l 1,11,-1
 297 598 l 1,12,-1
 387 598 l 1,13,-1
 387 374 l 1,14,-1
 626 374 l 1,15,-1
 626 284 l 1,0,-1
EndSplineSet
EndChar
StartChar: twosuperior
Encoding: 178 178 116
Width: 416
VWidth: 1661
Flags: W
HStem: 296 420<98 329 301 331.688> 296 69<113 329> 646 70<124.39 238.759>
VStem: 43 70<365 378.228 605 635.688> 251 70<583.375 634.315>
Fore
98 716 m 1,0,-1
 266 716 l 1,1,-1
 321 661 l 1,2,-1
 321 560 l 1,3,4
 262 508 262 508 218 468 c 0,5,6
 198 450 198 450 179.5 434.5 c 128,-1,7
 161 419 161 419 146 405.5 c 128,-1,8
 131 392 131 392 123 384.5 c 128,-1,9
 115 377 115 377 113 375 c 1,10,-1
 113 365 l 1,11,-1
 329 365 l 1,12,-1
 329 296 l 1,13,-1
 43 296 l 1,14,-1
 43 402 l 1,15,16
 101 452 101 452 146 493 c 0,17,18
 166 510 166 510 184.5 526.5 c 128,-1,19
 203 543 203 543 218 556.5 c 128,-1,20
 233 570 233 570 241 577.5 c 128,-1,21
 249 585 249 585 251 586 c 1,22,-1
 251 631 l 1,23,24
 249 633 249 633 243.5 638 c 128,-1,25
 238 643 238 643 236 646 c 1,26,-1
 128 646 l 1,27,28
 125 643 125 643 119 638 c 128,-1,29
 113 633 113 633 113 631 c 2,30,-1
 113 605 l 1,31,-1
 43 605 l 1,32,-1
 43 661 l 1,33,-1
 98 716 l 1,0,-1
EndSplineSet
EndChar
StartChar: threesuperior
Encoding: 179 179 117
Width: 416
VWidth: 1661
Flags: W
HStem: 296 71<123.863 247.609> 296 420<259 274 106 274 274 274> 488 70<126 244> 646 70<131.201 244>
VStem: 42 287<352 367 352 661 352 352> 259 70<377.507 473 568.469 631>
Fore
106 716 m 1,0,-1
 274 716 l 1,1,-1
 329 661 l 1,2,-1
 329 543 l 1,3,-1
 309 523 l 1,4,-1
 329 503 l 1,5,-1
 329 352 l 1,6,-1
 274 296 l 1,7,-1
 98 296 l 1,8,-1
 42 352 l 1,9,-1
 42 409 l 1,10,-1
 113 409 l 1,11,-1
 113 382 l 1,12,13
 115 380 115 380 120 374.5 c 128,-1,14
 125 369 125 369 128 367 c 1,15,-1
 244 367 l 1,16,17
 246 369 246 369 251.5 374 c 128,-1,18
 257 379 257 379 259 380 c 1,19,-1
 259 473 l 1,20,-1
 244 488 l 1,21,-1
 126 488 l 1,22,-1
 126 558 l 1,23,-1
 244 558 l 1,24,25
 248 560 248 560 252.5 565 c 128,-1,26
 257 570 257 570 259 573 c 1,27,-1
 259 631 l 1,28,-1
 244 646 l 1,29,-1
 136 646 l 1,30,31
 133 645 133 645 128 639 c 128,-1,32
 123 633 123 633 121 631 c 1,33,-1
 121 605 l 1,34,-1
 50 605 l 1,35,-1
 50 661 l 1,36,-1
 106 716 l 1,0,-1
EndSplineSet
EndChar
StartChar: acute
Encoding: 180 180 118
Width: 235
VWidth: 1661
Flags: W
HStem: 756 149<42 56 -3 146 42 42>
Fore
-3 756 m 1,0,-1
 42 905 l 1,1,-1
 146 905 l 1,2,-1
 56 756 l 1,3,-1
 -3 756 l 1,0,-1
EndSplineSet
EndChar
StartChar: mu
Encoding: 181 181 119
Width: 611
VWidth: 1661
Flags: W
HStem: -209 21G<43 133> 0 90<169 316> 487 20G<43 133 432 522>
VStem: 43 90<-209 0 126 507> 432 90<0 90 206 507>
Fore
432 507 m 1,0,-1
 522 507 l 1,1,-1
 522 0 l 1,2,-1
 432 0 l 1,3,-1
 432 90 l 1,4,-1
 342 0 l 1,5,-1
 133 0 l 1,6,-1
 133 -209 l 1,7,-1
 43 -209 l 1,8,-1
 43 507 l 1,9,-1
 133 507 l 1,10,-1
 133 126 l 1,11,-1
 169 90 l 1,12,-1
 316 90 l 1,13,-1
 432 206 l 1,14,-1
 432 507 l 1,0,-1
EndSplineSet
EndChar
StartChar: paragraph
Encoding: 182 182 120
Width: 509
VWidth: 1661
Flags: W
HStem: -209 21G<196 286 329 419> 696 20G<126.2 286 329 419>
VStem: 196 90<-209 372> 329 90<-209 716>
Fore
329 716 m 1,0,-1
 419 716 l 1,1,-1
 419 -209 l 1,2,-1
 329 -209 l 1,3,-1
 329 716 l 1,0,-1
286 716 m 1,4,-1
 286 -209 l 1,5,-1
 196 -209 l 1,6,-1
 196 372 l 1,7,-1
 146 372 l 1,8,-1
 47 473 l 1,9,-1
 47 616 l 1,10,-1
 146 716 l 1,11,-1
 286 716 l 1,4,-1
EndSplineSet
EndChar
StartChar: periodcentered
Encoding: 183 183 121
Width: 285
VWidth: 1661
Flags: W
HStem: 286 148<91 153 91 153 91 91>
VStem: 47 149<329 390 329 390 329 329>
Fore
196 390 m 1,0,-1
 196 329 l 1,1,-1
 153 286 l 1,2,-1
 91 286 l 1,3,-1
 47 329 l 1,4,-1
 47 390 l 1,5,-1
 91 434 l 1,6,-1
 153 434 l 1,7,-1
 196 390 l 1,0,-1
EndSplineSet
EndChar
StartChar: cedilla
Encoding: 184 184 122
Width: 340
VWidth: 1661
Flags: W
HStem: -282 312<166 173 166 176> -282 73<58 141>
VStem: 58 180<-218 -209 -135 -125 -282 -125 -282 -282>
Fore
173 -60 m 1,0,-1
 238 -125 l 1,1,-1
 238 -218 l 1,2,-1
 173 -282 l 1,3,-1
 58 -282 l 1,4,-1
 58 -209 l 1,5,-1
 141 -209 l 1,6,-1
 164 -188 l 1,7,-1
 164 -156 l 1,8,-1
 141 -135 l 1,9,-1
 58 -135 l 1,10,-1
 58 -88 l 1,11,-1
 166 30 l 1,12,-1
 204 3 l 1,13,-1
 173 -60 l 1,0,-1
EndSplineSet
EndChar
StartChar: onesuperior
Encoding: 185 185 123
Width: 260
VWidth: 1661
Flags: W
HStem: 296 420<110 173>
VStem: 40 133<648 716 648 648> 103 70<296 611>
Fore
173 716 m 1,0,-1
 173 296 l 1,1,-1
 103 296 l 1,2,-1
 103 611 l 1,3,-1
 90 598 l 1,4,-1
 40 648 l 1,5,-1
 110 716 l 1,6,-1
 173 716 l 1,0,-1
EndSplineSet
EndChar
StartChar: ordmasculine
Encoding: 186 186 124
Width: 431
VWidth: 1661
Flags: W
HStem: 357 90<171 216> 566 90<169 216>
VStem: 43 90<485 530> 253 89<483 530>
Fore
342 566 m 1,0,-1
 342 447 l 1,1,-1
 254 357 l 1,2,-1
 133 357 l 1,3,-1
 43 447 l 1,4,-1
 43 568 l 1,5,-1
 133 656 l 1,6,-1
 253 656 l 1,7,-1
 342 566 l 1,0,-1
253 530 m 1,8,-1
 216 566 l 1,9,-1
 169 566 l 1,10,-1
 133 530 l 1,11,-1
 133 485 l 1,12,-1
 171 447 l 1,13,-1
 216 447 l 1,14,-1
 253 483 l 1,15,-1
 253 530 l 1,8,-1
EndSplineSet
EndChar
StartChar: guillemotright
Encoding: 187 187 125
Width: 524
VWidth: 1661
Flags: W
HStem: 81 421<257 257 257 257>
VStem: 48 387<81 336 81 81>
Fore
435 336 m 1,0,-1
 435 248 l 1,1,-1
 257 81 l 1,2,-1
 257 204 l 1,3,-1
 352 291 l 1,4,-1
 257 379 l 1,5,-1
 257 502 l 1,6,-1
 435 336 l 1,0,-1
48 81 m 1,7,-1
 48 204 l 1,8,-1
 143 291 l 1,9,-1
 48 379 l 1,10,-1
 48 502 l 1,11,-1
 228 336 l 1,12,-1
 228 248 l 1,13,-1
 48 81 l 1,7,-1
EndSplineSet
EndChar
StartChar: onequarter
Encoding: 188 188 126
Width: 790
VWidth: 1661
Flags: W
HStem: 0 21G<103 219.281 593 663> 58 72<480 593 663 688>
VStem: 121 70<299 615> 593 70<0 58 130 337>
Fore
108 601 m 1,0,-1
 58 651 l 1,1,-1
 128 719 l 1,2,-1
 191 719 l 1,3,-1
 191 299 l 1,4,-1
 121 299 l 1,5,-1
 121 615 l 1,6,-1
 108 601 l 1,0,-1
688 130 m 1,7,-1
 688 58 l 1,8,-1
 663 58 l 1,9,-1
 663 0 l 1,10,-1
 593 0 l 1,11,-1
 593 58 l 1,12,-1
 409 58 l 1,13,-1
 409 146 l 1,14,-1
 563 420 l 1,15,-1
 663 420 l 1,16,-1
 663 130 l 1,17,-1
 688 130 l 1,7,-1
593 337 m 1,18,19
 588 327 588 327 570 294.5 c 128,-1,20
 552 262 552 262 532 227.5 c 128,-1,21
 512 193 512 193 496 165.5 c 128,-1,22
 480 138 480 138 480 136 c 2,23,-1
 480 130 l 1,24,-1
 593 130 l 1,25,-1
 593 337 l 1,18,19
613 718 m 1,26,-1
 208 0 l 1,27,-1
 103 0 l 1,28,-1
 510 718 l 1,29,-1
 613 718 l 1,26,-1
EndSplineSet
Ligature2: "'frac' Diagonal Fractions in Latin lookup 0 subtable" one fraction four
Ligature2: "'frac' Diagonal Fractions in Latin lookup 0 subtable" one slash four
EndChar
StartChar: onehalf
Encoding: 189 189 127
Width: 923
VWidth: 1661
Flags: W
HStem: 0 70<605 821> 351 69<620 729.638>
VStem: 121 72<299 299 299 615> 535 70<70 83.1816 309 340.134> 743 69<287.772 338.29>
Fore
121 615 m 1,0,1
 120 611 120 611 118 610.5 c 128,-1,2
 116 610 116 610 115 606 c 1,3,-1
 110 601 l 1,4,-1
 60 651 l 1,5,-1
 130 719 l 1,6,-1
 193 719 l 1,7,-1
 193 299 l 1,8,-1
 121 299 l 1,9,-1
 121 615 l 1,0,1
821 70 m 1,10,-1
 821 0 l 1,11,-1
 533 0 l 1,12,-1
 535 103 l 1,13,-1
 535 106 l 1,14,15
 593 156 593 156 638 198 c 0,16,17
 658 214 658 214 676 231 c 128,-1,18
 694 248 694 248 709 261 c 128,-1,19
 724 274 724 274 732.5 281.5 c 128,-1,20
 741 289 741 289 743 291 c 1,21,-1
 743 336 l 1,22,23
 741 337 741 337 735 342 c 128,-1,24
 729 347 729 347 728 351 c 1,25,-1
 620 351 l 1,26,27
 616 347 616 347 610.5 342 c 128,-1,28
 605 337 605 337 605 336 c 2,29,-1
 605 309 l 1,30,-1
 533 309 l 1,31,-1
 533 365 l 1,32,-1
 590 420 l 1,33,-1
 758 420 l 1,34,-1
 812 365 l 1,35,-1
 812 264 l 1,36,37
 754 213 754 213 709 173 c 0,38,39
 689 154 689 154 671 138.5 c 128,-1,40
 653 123 653 123 638 109.5 c 128,-1,41
 623 96 623 96 614.5 88.5 c 128,-1,42
 606 81 606 81 605 80 c 1,43,-1
 605 70 l 1,44,-1
 821 70 l 1,10,-1
643 718 m 1,45,-1
 238 0 l 1,46,-1
 135 0 l 1,47,-1
 540 718 l 1,48,-1
 643 718 l 1,45,-1
EndSplineSet
Ligature2: "'frac' Diagonal Fractions in Latin lookup 0 subtable" one fraction two
Ligature2: "'frac' Diagonal Fractions in Latin lookup 0 subtable" one slash two
EndChar
StartChar: threequarters
Encoding: 190 190 128
Width: 941
VWidth: 1661
Flags: W
HStem: 0 21G<256 370.337 743 814> 58 72<630 743 814 839> 299 70<136 255.25> 490 71<135 255.95> 648 71<139.897 257.137>
VStem: 267 70<380.083 480.035 570.704 635> 743 71<0 58 130 337>
Fore
282 299 m 1,0,-1
 106 299 l 1,1,-1
 50 355 l 1,2,-1
 50 410 l 1,3,-1
 121 410 l 1,4,-1
 121 384 l 1,5,-1
 136 369 l 1,6,-1
 253 369 l 1,7,8
 254 372 254 372 260 377 c 128,-1,9
 266 382 266 382 267 384 c 1,10,-1
 267 477 l 1,11,12
 266 478 266 478 260 483 c 128,-1,13
 254 488 254 488 253 490 c 1,14,-1
 135 490 l 1,15,-1
 135 561 l 1,16,-1
 253 561 l 1,17,18
 256 563 256 563 261 568 c 128,-1,19
 266 573 266 573 267 575 c 1,20,-1
 267 635 l 1,21,22
 266 635 266 635 261 640.5 c 128,-1,23
 256 646 256 646 253 648 c 1,24,-1
 145 648 l 1,25,26
 141 646 141 646 136 641 c 128,-1,27
 131 636 131 636 130 635 c 1,28,-1
 130 608 l 1,29,-1
 58 608 l 1,30,-1
 58 663 l 1,31,-1
 115 719 l 1,32,-1
 282 719 l 1,33,-1
 337 663 l 1,34,-1
 337 547 l 1,35,-1
 317 527 l 1,36,37
 319 523 319 523 329 513 c 2,38,-1
 337 505 l 1,39,-1
 337 355 l 1,40,-1
 282 299 l 1,0,-1
839 130 m 1,41,-1
 839 58 l 1,42,-1
 814 58 l 1,43,-1
 814 0 l 1,44,-1
 743 0 l 1,45,-1
 743 58 l 1,46,-1
 560 58 l 1,47,-1
 560 146 l 1,48,-1
 714 420 l 1,49,-1
 814 420 l 1,50,-1
 814 130 l 1,51,-1
 839 130 l 1,41,-1
743 337 m 1,52,53
 738 327 738 327 719.5 294.5 c 128,-1,54
 701 262 701 262 681 227.5 c 128,-1,55
 661 193 661 193 645.5 165.5 c 128,-1,56
 630 138 630 138 630 136 c 2,57,-1
 630 130 l 1,58,-1
 743 130 l 1,59,-1
 743 337 l 1,52,53
766 718 m 1,60,-1
 359 0 l 1,61,-1
 256 0 l 1,62,-1
 663 718 l 1,63,-1
 766 718 l 1,60,-1
EndSplineSet
Ligature2: "'frac' Diagonal Fractions in Latin lookup 0 subtable" three fraction four
Ligature2: "'frac' Diagonal Fractions in Latin lookup 0 subtable" three slash four
EndChar
StartChar: questiondown
Encoding: 191 191 129
Width: 611
VWidth: 1661
Flags: W
HStem: -209 89<169 394> 487 20G<239 323.333>
VStem: 43 477<-120 -45 -120 -120> 43 90<-83 2> 238 88<206 357>
Fore
430 -45 m 1,0,-1
 520 -45 l 1,1,-1
 520 -121 l 1,2,-1
 432 -209 l 1,3,-1
 133 -209 l 1,4,-1
 43 -120 l 1,5,-1
 43 45 l 1,6,-1
 238 206 l 1,7,-1
 238 357 l 1,8,-1
 326 357 l 1,9,-1
 326 164 l 1,10,-1
 133 2 l 1,11,-1
 133 -83 l 1,12,-1
 169 -120 l 1,13,-1
 394 -120 l 1,14,-1
 430 -83 l 1,15,-1
 430 -45 l 1,0,-1
302 402 m 1,16,-1
 259 402 l 1,17,-1
 229 434 l 1,18,-1
 229 477 l 1,19,-1
 259 507 l 1,20,-1
 302 507 l 1,21,-1
 334 477 l 1,22,-1
 334 434 l 1,23,-1
 302 402 l 1,16,-1
EndSplineSet
EndChar
StartChar: AE
Encoding: 198 198 135
Width: 1056
VWidth: 1661
Flags: W
HStem: 0 90<601 954> 194 90<146 475> 314 90<565 924> 628 90<457 475 601 954>
VStem: 56 90<0 194 284 362> 475 90<126 194 284 314 404 591>
Fore
601 628 m 1,0,-1
 565 591 l 1,1,-1
 565 404 l 1,2,-1
 924 404 l 1,3,-1
 924 314 l 1,4,-1
 565 314 l 1,5,-1
 565 126 l 1,6,-1
 601 90 l 1,7,-1
 954 90 l 1,8,-1
 954 0 l 1,9,-1
 565 0 l 1,10,-1
 475 90 l 1,11,-1
 475 194 l 1,12,-1
 146 194 l 1,13,-1
 146 0 l 1,14,-1
 56 0 l 1,15,-1
 56 402 l 1,16,-1
 430 718 l 1,17,-1
 954 718 l 1,18,-1
 954 628 l 1,19,-1
 601 628 l 1,0,-1
146 284 m 1,20,-1
 475 284 l 1,21,-1
 475 628 l 1,22,-1
 457 628 l 1,23,-1
 146 362 l 1,24,-1
 146 284 l 1,20,-1
EndSplineSet
EndChar
StartChar: Ccedilla
Encoding: 199 199 136
Width: 639
VWidth: 1661
Flags: W
HStem: -282 73<208 291> 0 90<169 287 352 425> 626 90<169 425>
VStem: 43 90<126 590> 462 90<126 164 552 590>
Fore
387 -125 m 1,0,-1
 387 -218 l 1,1,-1
 322 -282 l 1,2,-1
 208 -282 l 1,3,-1
 208 -209 l 1,4,-1
 291 -209 l 1,5,-1
 314 -188 l 1,6,-1
 314 -156 l 1,7,-1
 291 -135 l 1,8,-1
 208 -135 l 1,9,-1
 208 -88 l 1,10,-1
 287 0 l 1,11,-1
 133 0 l 1,12,-1
 43 90 l 1,13,-1
 43 628 l 1,14,-1
 133 716 l 1,15,-1
 462 716 l 1,16,-1
 552 626 l 1,17,-1
 552 552 l 1,18,-1
 462 552 l 1,19,-1
 462 590 l 1,20,-1
 425 626 l 1,21,-1
 169 626 l 1,22,-1
 133 590 l 1,23,-1
 133 126 l 1,24,-1
 169 90 l 1,25,-1
 425 90 l 1,26,-1
 462 126 l 1,27,-1
 462 164 l 1,28,-1
 552 164 l 1,29,-1
 552 88 l 1,30,-1
 462 0 l 1,31,-1
 352 0 l 1,32,-1
 322 -60 l 1,33,-1
 387 -125 l 1,0,-1
EndSplineSet
EndChar
StartChar: Eth
Encoding: 208 208 145
Width: 701
VWidth: 1661
Flags: W
HStem: 0 90<194 485> 314 88<45 105 194 374> 626 90<194 485>
VStem: 105 89<90 314 402 626> 523 90<126 590>
CounterMasks: 1 e0
Fore
523 716 m 1,0,-1
 613 626 l 1,1,-1
 613 90 l 1,2,-1
 523 0 l 1,3,-1
 105 0 l 1,4,-1
 105 314 l 1,5,-1
 45 314 l 1,6,-1
 45 402 l 1,7,-1
 105 402 l 1,8,-1
 105 716 l 1,9,-1
 523 716 l 1,0,-1
523 126 m 1,10,-1
 523 590 l 1,11,-1
 485 626 l 1,12,-1
 194 626 l 1,13,-1
 194 402 l 1,14,-1
 374 402 l 1,15,-1
 374 314 l 1,16,-1
 194 314 l 1,17,-1
 194 90 l 1,18,-1
 485 90 l 1,19,-1
 523 126 l 1,10,-1
EndSplineSet
EndChar
StartChar: multiply
Encoding: 215 215 152
Width: 642
VWidth: 1661
Flags: W
HStem: 115 488<477 477 477 477>
VStem: 60 482<186 540 186 186>
Fore
542 540 m 1,0,-1
 359 357 l 1,1,-1
 540 178 l 1,2,-1
 477 115 l 1,3,-1
 296 294 l 1,4,-1
 123 121 l 1,5,-1
 60 186 l 1,6,-1
 233 357 l 1,7,-1
 60 532 l 1,8,-1
 123 595 l 1,9,-1
 296 420 l 1,10,-1
 477 603 l 1,11,-1
 542 540 l 1,0,-1
EndSplineSet
EndChar
StartChar: Oslash
Encoding: 216 216 153
Width: 671
VWidth: 1661
Flags: W
HStem: 0 90<209 455> 626 90<169 437>
VStem: 43 90<138 590> 492 89<126 545>
Fore
591 706 m 1,0,-1
 558 651 l 1,1,-1
 581 626 l 1,2,-1
 581 88 l 1,3,-1
 492 0 l 1,4,-1
 153 0 l 1,5,-1
 126 -43 l 1,6,-1
 50 5 l 1,7,-1
 80 51 l 1,8,-1
 43 90 l 1,9,-1
 43 628 l 1,10,-1
 133 716 l 1,11,-1
 492 716 l 1,12,-1
 515 753 l 1,13,-1
 591 706 l 1,0,-1
133 590 m 1,14,-1
 133 138 l 1,15,-1
 437 626 l 1,16,-1
 169 626 l 1,17,-1
 133 590 l 1,14,-1
492 126 m 1,18,-1
 492 545 l 1,19,-1
 209 90 l 1,20,-1
 455 90 l 1,21,-1
 492 126 l 1,18,-1
EndSplineSet
EndChar
StartChar: Thorn
Encoding: 222 222 159
Width: 611
VWidth: 1661
Flags: W
HStem: 0 21G<43 133> 150 89<133 395> 477 89<133 395> 696 20G<43 133>
VStem: 43 90<0 150 239 477 566 716> 43 479<238 239 477 478 0 478 716 716> 432 90<276 440>
Fore
434 566 m 1,0,-1
 522 478 l 1,1,-1
 522 238 l 1,2,-1
 432 150 l 1,3,-1
 133 150 l 1,4,-1
 133 0 l 1,5,-1
 43 0 l 1,6,-1
 43 716 l 1,7,-1
 133 716 l 1,8,-1
 133 566 l 1,9,-1
 434 566 l 1,0,-1
432 276 m 1,10,-1
 432 440 l 1,11,-1
 395 477 l 1,12,-1
 133 477 l 1,13,-1
 133 239 l 1,14,-1
 395 239 l 1,15,-1
 432 276 l 1,10,-1
EndSplineSet
EndChar
StartChar: uni00DF
Encoding: 223 223 160
Width: 581
VWidth: 1661
Flags: W
HStem: -209 21G<43 133> -15 90<178 365> 628 90<171 336>
VStem: 43 90<-209 591> 372 90<468 590> 402 90<111 201>
Fore
380 351 m 1,0,-1
 492 239 l 1,1,-1
 492 75 l 1,2,-1
 402 -15 l 1,3,-1
 178 -15 l 1,4,-1
 178 75 l 1,5,-1
 365 75 l 1,6,-1
 402 111 l 1,7,-1
 402 201 l 1,8,-1
 253 351 l 1,9,-1
 372 468 l 1,10,-1
 372 590 l 1,11,-1
 336 628 l 1,12,-1
 171 628 l 1,13,-1
 133 591 l 1,14,-1
 133 -209 l 1,15,-1
 43 -209 l 1,16,-1
 43 628 l 1,17,-1
 133 718 l 1,18,-1
 372 718 l 1,19,-1
 462 628 l 1,20,-1
 462 430 l 1,21,-1
 380 351 l 1,0,-1
EndSplineSet
EndChar
StartChar: ae
Encoding: 230 230 167
Width: 1059
VWidth: 1661
Flags: W
HStem: 0 90<169 346 588 851> 224 90<169 462 552 880> 419 89<169 425 588 842>
VStem: 43 90<126 188 344 382> 462 90<208 224 314 382> 880 90<314 382>
Fore
880 508 m 1,0,-1
 970 419 l 1,1,-1
 970 224 l 1,2,-1
 552 224 l 1,3,-1
 552 126 l 1,4,-1
 588 90 l 1,5,-1
 851 90 l 1,6,-1
 851 0 l 1,7,-1
 552 0 l 1,8,-1
 462 91 l 1,9,-1
 372 0 l 1,10,-1
 133 0 l 1,11,-1
 43 90 l 1,12,-1
 43 224 l 1,13,-1
 133 314 l 1,14,-1
 462 314 l 1,15,-1
 462 382 l 1,16,-1
 425 419 l 1,17,-1
 169 419 l 1,18,-1
 133 382 l 1,19,-1
 133 344 l 1,20,-1
 43 344 l 1,21,-1
 43 419 l 1,22,-1
 133 508 l 1,23,-1
 462 508 l 1,24,-1
 507 463 l 1,25,-1
 552 508 l 1,26,-1
 880 508 l 1,0,-1
133 126 m 1,27,-1
 169 90 l 1,28,-1
 346 90 l 1,29,-1
 462 208 l 1,30,-1
 462 224 l 1,31,-1
 169 224 l 1,32,-1
 133 188 l 1,33,-1
 133 126 l 1,27,-1
552 314 m 1,34,-1
 880 314 l 1,35,-1
 880 382 l 1,36,-1
 842 419 l 1,37,-1
 588 419 l 1,38,-1
 552 382 l 1,39,-1
 552 314 l 1,34,-1
EndSplineSet
EndChar
StartChar: ccedilla
Encoding: 231 231 168
Width: 644
VWidth: 1661
Flags: W
HStem: -271 73<209 292> 0 90<173 279 347 427> 417 90<171 427>
VStem: 45 90<126 380> 463 90<126 164 342 380>
Fore
389 -113 m 1,0,-1
 389 -206 l 1,1,-1
 324 -271 l 1,2,-1
 209 -271 l 1,3,-1
 209 -198 l 1,4,-1
 292 -198 l 1,5,-1
 316 -176 l 1,6,-1
 316 -145 l 1,7,-1
 292 -123 l 1,8,-1
 209 -123 l 1,9,-1
 209 -76 l 1,10,-1
 279 0 l 1,11,-1
 135 0 l 1,12,-1
 45 90 l 1,13,-1
 45 419 l 1,14,-1
 135 507 l 1,15,-1
 463 507 l 1,16,-1
 553 419 l 1,17,-1
 553 342 l 1,18,-1
 463 342 l 1,19,-1
 463 380 l 1,20,-1
 427 417 l 1,21,-1
 171 417 l 1,22,-1
 135 380 l 1,23,-1
 135 126 l 1,24,-1
 173 90 l 1,25,-1
 427 90 l 1,26,-1
 463 126 l 1,27,-1
 463 164 l 1,28,-1
 553 164 l 1,29,-1
 553 88 l 1,30,-1
 465 0 l 1,31,-1
 347 0 l 1,32,-1
 324 -48 l 1,33,-1
 389 -113 l 1,0,-1
EndSplineSet
EndChar
StartChar: eth
Encoding: 240 240 177
Width: 641
VWidth: 1661
Flags: W
HStem: 0 90<169 425> 419 89<171 346> 696 20G<462 552>
VStem: 43 90<126 380> 462 90<126 301 417 538 676 716>
Fore
552 590 m 1,0,-1
 552 90 l 1,1,-1
 462 0 l 1,2,-1
 133 0 l 1,3,-1
 43 88 l 1,4,-1
 45 419 l 1,5,-1
 133 508 l 1,6,-1
 372 508 l 1,7,-1
 372 507 l 1,8,-1
 462 417 l 1,9,-1
 462 538 l 1,10,-1
 410 508 l 1,11,-1
 372 571 l 1,12,-1
 462 625 l 1,13,-1
 462 716 l 1,14,-1
 552 716 l 1,15,-1
 552 676 l 1,16,-1
 610 709 l 1,17,-1
 645 648 l 1,18,-1
 552 590 l 1,0,-1
462 126 m 1,19,-1
 462 301 l 1,20,-1
 346 419 l 1,21,-1
 171 419 l 1,22,-1
 133 380 l 1,23,-1
 133 126 l 1,24,-1
 169 90 l 1,25,-1
 425 90 l 1,26,-1
 462 126 l 1,19,-1
EndSplineSet
EndChar
StartChar: divide
Encoding: 247 247 184
Width: 729
VWidth: 1661
Flags: W
HStem: 150 418<317 367 317 367> 314 90<58 628>
VStem: 282 120<184 234 483 533>
Fore
367 449 m 1,0,-1
 317 449 l 1,1,-1
 282 483 l 1,2,-1
 282 533 l 1,3,-1
 317 568 l 1,4,-1
 367 568 l 1,5,-1
 402 533 l 1,6,-1
 402 483 l 1,7,-1
 367 449 l 1,0,-1
317 269 m 1,8,-1
 367 269 l 1,9,-1
 402 234 l 1,10,-1
 402 184 l 1,11,-1
 367 150 l 1,12,-1
 317 150 l 1,13,-1
 282 184 l 1,14,-1
 282 234 l 1,15,-1
 317 269 l 1,8,-1
58 404 m 1,16,-1
 628 404 l 1,17,-1
 628 314 l 1,18,-1
 58 314 l 1,19,-1
 58 404 l 1,16,-1
EndSplineSet
EndChar
StartChar: oslash
Encoding: 248 248 185
Width: 642
VWidth: 1661
Flags: W
HStem: 0 90<214 427> 419 89<173 385>
VStem: 47 89<136 382> 463 90<126 372>
Fore
571 495 m 1,0,-1
 528 445 l 1,1,-1
 553 419 l 1,2,-1
 553 90 l 1,3,-1
 465 0 l 1,4,-1
 136 0 l 1,5,-1
 95 -45 l 1,6,-1
 27 15 l 1,7,-1
 71 63 l 1,8,-1
 47 90 l 1,9,-1
 47 419 l 1,10,-1
 135 508 l 1,11,-1
 463 508 l 1,12,-1
 505 553 l 1,13,-1
 571 495 l 1,0,-1
136 382 m 1,14,-1
 136 136 l 1,15,-1
 385 419 l 1,16,-1
 173 419 l 1,17,-1
 136 382 l 1,14,-1
463 126 m 1,18,-1
 463 372 l 1,19,-1
 214 90 l 1,20,-1
 427 90 l 1,21,-1
 463 126 l 1,18,-1
EndSplineSet
EndChar
StartChar: thorn
Encoding: 254 254 191
Width: 642
VWidth: 1661
Flags: W
HStem: 0 90<173 427> 419 89<171 427>
VStem: 45 90<-179 0 126 382 508 688> 463 90<126 382>
Fore
463 508 m 1,0,-1
 553 419 l 1,1,-1
 553 90 l 1,2,-1
 463 0 l 1,3,-1
 135 0 l 1,4,-1
 135 -179 l 1,5,-1
 45 -179 l 1,6,-1
 45 688 l 1,7,-1
 135 688 l 1,8,-1
 135 508 l 1,9,-1
 463 508 l 1,0,-1
463 126 m 1,10,-1
 463 382 l 1,11,-1
 427 419 l 1,12,-1
 171 419 l 1,13,-1
 135 382 l 1,14,-1
 135 126 l 1,15,-1
 173 90 l 1,16,-1
 427 90 l 1,17,-1
 463 126 l 1,10,-1
EndSplineSet
EndChar
StartChar: Lslash
Encoding: 321 321 193
Width: 583
VWidth: 1661
Flags: W
HStem: 0 90<150 493>
VStem: 60 90<90 238 454 718>
Fore
150 90 m 1,0,-1
 493 90 l 1,1,-1
 493 0 l 1,2,-1
 60 0 l 1,3,-1
 60 238 l 1,4,-1
 0 178 l 1,5,-1
 0 304 l 1,6,-1
 60 364 l 1,7,-1
 60 718 l 1,8,-1
 150 718 l 1,9,-1
 150 454 l 1,10,-1
 239 543 l 1,11,-1
 239 417 l 1,12,-1
 150 327 l 1,13,-1
 150 90 l 1,0,-1
EndSplineSet
EndChar
StartChar: lslash
Encoding: 322 322 194
Width: 299
VWidth: 1661
Flags: W
HStem: 0 21G<60 150>
VStem: 0 209<189 525 654 907> 60 90<0 249 465 718>
Fore
209 525 m 1,0,-1
 209 399 l 1,1,-1
 150 339 l 1,2,-1
 150 0 l 1,3,-1
 60 0 l 1,4,-1
 60 249 l 1,5,-1
 0 189 l 1,6,-1
 0 317 l 1,7,-1
 60 377 l 1,8,-1
 60 718 l 1,9,-1
 150 718 l 1,10,-1
 150 465 l 1,11,-1
 209 525 l 1,0,-1
EndSplineSet
EndChar
StartChar: OE
Encoding: 338 338 195
Width: 1056
VWidth: 1661
Flags: W
HStem: 0 90<184 477 603 955> 314 90<566 925> 628 90<184 477 603 955>
VStem: 58 90<126 591> 477 89<126 314 404 591>
CounterMasks: 1 e0
Fore
603 628 m 1,0,-1
 566 591 l 1,1,-1
 566 404 l 1,2,-1
 925 404 l 1,3,-1
 925 314 l 1,4,-1
 566 314 l 1,5,-1
 566 126 l 1,6,-1
 603 90 l 1,7,-1
 955 90 l 1,8,-1
 955 0 l 1,9,-1
 148 0 l 1,10,-1
 58 90 l 1,11,-1
 58 628 l 1,12,-1
 148 718 l 1,13,-1
 955 718 l 1,14,-1
 955 628 l 1,15,-1
 603 628 l 1,0,-1
148 126 m 1,16,-1
 184 90 l 1,17,-1
 477 90 l 1,18,-1
 477 628 l 1,19,-1
 184 628 l 1,20,-1
 148 591 l 1,21,-1
 148 126 l 1,16,-1
EndSplineSet
EndChar
StartChar: oe
Encoding: 339 339 196
Width: 1058
VWidth: 1661
Flags: W
HStem: 0 90<169 425 588 849> 224 90<552 879> 419 89<169 424 588 842>
VStem: 43 90<126 382> 462 90<126 224 314 382> 879 89<314 382>
Fore
880 508 m 1,0,-1
 968 419 l 1,1,-1
 968 224 l 1,2,-1
 552 224 l 1,3,-1
 552 126 l 1,4,-1
 588 90 l 1,5,-1
 849 90 l 1,6,-1
 849 0 l 1,7,-1
 552 0 l 1,8,-1
 507 45 l 1,9,-1
 462 0 l 1,10,-1
 133 0 l 1,11,-1
 43 90 l 1,12,-1
 43 419 l 1,13,-1
 133 508 l 1,14,-1
 462 508 l 1,15,-1
 507 463 l 1,16,-1
 550 508 l 1,17,-1
 880 508 l 1,0,-1
169 90 m 1,18,-1
 425 90 l 1,19,-1
 462 126 l 1,20,-1
 462 382 l 1,21,-1
 424 419 l 1,22,-1
 169 419 l 1,23,-1
 133 382 l 1,24,-1
 133 126 l 1,25,-1
 169 90 l 1,18,-1
552 314 m 1,26,-1
 879 314 l 1,27,-1
 879 382 l 1,28,-1
 842 419 l 1,29,-1
 588 419 l 1,30,-1
 552 382 l 1,31,-1
 552 314 l 1,26,-1
EndSplineSet
EndChar
StartChar: florin
Encoding: 402 402 202
Width: 642
VWidth: 1661
Flags: W
HStem: 0 90<45 163> 372 90<159 259 369 468> 626 90<440 553>
Fore
440 626 m 1,0,-1
 395 590 l 1,1,-1
 369 462 l 1,2,-1
 488 462 l 1,3,-1
 468 372 l 1,4,-1
 349 372 l 1,5,-1
 289 88 l 1,6,-1
 181 0 l 1,7,-1
 45 0 l 1,8,-1
 45 90 l 1,9,-1
 163 90 l 1,10,-1
 208 126 l 1,11,-1
 259 372 l 1,12,-1
 140 372 l 1,13,-1
 159 462 l 1,14,-1
 279 462 l 1,15,-1
 314 628 l 1,16,-1
 422 716 l 1,17,-1
 553 716 l 1,18,-1
 553 626 l 1,19,-1
 440 626 l 1,0,-1
EndSplineSet
EndChar
StartChar: circumflex
Encoding: 710 710 203
Width: 521
VWidth: 1661
Flags: W
HStem: 756 179<271 387 271 271>
VStem: 60 359<787 787 787 787>
Fore
271 935 m 1,0,-1
 419 787 l 1,1,-1
 387 756 l 1,2,-1
 236 857 l 1,3,-1
 91 756 l 1,4,-1
 60 787 l 1,5,-1
 208 935 l 1,6,-1
 271 935 l 1,0,-1
EndSplineSet
EndChar
StartChar: caron
Encoding: 711 711 204
Width: 519
VWidth: 1661
Flags: W
HStem: 756 179<271 387 387 387>
VStem: 60 359<904 904 904 904>
Fore
387 935 m 1,0,-1
 419 904 l 1,1,-1
 271 756 l 1,2,-1
 208 756 l 1,3,-1
 60 904 l 1,4,-1
 91 935 l 1,5,-1
 243 834 l 1,6,-1
 387 935 l 1,0,-1
EndSplineSet
EndChar
StartChar: breve
Encoding: 728 728 205
Width: 505
VWidth: 1661
Flags: W
HStem: 756 75<194 269>
VStem: 60 344<912 912 912 912>
Fore
362 935 m 1,0,-1
 404 912 l 1,1,-1
 314 756 l 1,2,-1
 150 756 l 1,3,-1
 60 912 l 1,4,-1
 100 935 l 1,5,-1
 194 831 l 1,6,-1
 269 831 l 1,7,-1
 362 935 l 1,0,-1
EndSplineSet
EndChar
StartChar: dotaccent
Encoding: 729 729 206
Width: 295
VWidth: 1661
Flags: W
HStem: 758 132<98 153 98 153 98 98>
VStem: 58 135<796 852 796 852 796 796>
Fore
193 852 m 1,0,-1
 193 796 l 1,1,-1
 153 758 l 1,2,-1
 98 758 l 1,3,-1
 58 796 l 1,4,-1
 58 852 l 1,5,-1
 98 890 l 1,6,-1
 153 890 l 1,7,-1
 193 852 l 1,0,-1
EndSplineSet
EndChar
StartChar: ring
Encoding: 730 730 207
Width: 370
VWidth: 1661
Flags: W
HStem: 756 209<120 135 194 208 120 208 120 120>
VStem: 60 209<817 831 890 904 817 904 817 817>
Fore
269 904 m 1,0,-1
 269 817 l 1,1,-1
 208 756 l 1,2,-1
 120 756 l 1,3,-1
 60 817 l 1,4,-1
 60 904 l 1,5,-1
 120 965 l 1,6,-1
 208 965 l 1,7,-1
 269 904 l 1,0,-1
151 831 m 1,8,-1
 176 831 l 1,9,-1
 194 849 l 1,10,-1
 194 872 l 1,11,-1
 176 890 l 1,12,-1
 151 890 l 1,13,-1
 135 872 l 1,14,-1
 135 849 l 1,15,-1
 151 831 l 1,8,-1
EndSplineSet
EndChar
StartChar: tilde
Encoding: 732 732 209
Width: 435
VWidth: 1661
Flags: W
HStem: 606 135<254 306 306 306>
VStem: 47 300<646 699 646 646>
Fore
244 679 m 1,0,1
 248 681 248 681 257 691 c 128,-1,2
 266 701 266 701 277 713 c 2,3,-1
 306 741 l 1,4,-1
 347 699 l 1,5,-1
 254 606 l 1,6,7
 226 621 226 621 204 635 c 0,8,9
 186 646 186 646 169.5 655 c 128,-1,10
 153 664 153 664 150 666 c 1,11,12
 146 663 146 663 137 654.5 c 128,-1,13
 128 646 128 646 116 635 c 2,14,-1
 88 606 l 1,15,-1
 47 646 l 1,16,-1
 140 739 l 1,17,18
 168 724 168 724 189 711 c 0,19,20
 208 699 208 699 224.5 690 c 128,-1,21
 241 681 241 681 244 679 c 1,0,1
EndSplineSet
EndChar
StartChar: uni0E01
Encoding: 3585 3585 212
Width: 676
VWidth: 1661
Flags: W
HStem: 0 21G<78 168 497 586> 566 90<176 460>
VStem: 78 90<0 367> 497 89<0 530>
Fore
497 656 m 1,0,-1
 586 568 l 1,1,-1
 586 0 l 1,2,-1
 497 0 l 1,3,-1
 497 530 l 1,4,-1
 460 566 l 1,5,-1
 176 566 l 1,6,-1
 272 472 l 1,7,-1
 168 367 l 1,8,-1
 168 0 l 1,9,-1
 78 0 l 1,10,-1
 78 404 l 1,11,-1
 146 472 l 1,12,-1
 48 568 l 1,13,-1
 138 656 l 1,14,-1
 497 656 l 1,0,-1
EndSplineSet
EndChar
StartChar: uni0E02
Encoding: 3586 3586 213
Width: 654
VWidth: 1661
Flags: W
HStem: 0 21G<367 496.778> 568 90<198 276>
VStem: 297 90<128 547> 477 89<126 658>
Fore
477 658 m 1,0,-1
 566 658 l 1,1,-1
 566 90 l 1,2,-1
 477 0 l 1,3,-1
 387 0 l 1,4,-1
 297 90 l 1,5,-1
 297 547 l 1,6,-1
 276 568 l 1,7,-1
 198 568 l 1,8,-1
 253 513 l 1,9,-1
 253 414 l 1,10,-1
 183 344 l 1,11,-1
 83 344 l 1,12,-1
 13 414 l 1,13,-1
 13 568 l 1,14,-1
 103 658 l 1,15,-1
 297 658 l 1,16,-1
 387 568 l 1,17,-1
 387 128 l 1,18,-1
 424 90 l 1,19,-1
 440 90 l 1,20,-1
 477 126 l 1,21,-1
 477 658 l 1,0,-1
178 445 m 1,22,-1
 178 482 l 1,23,-1
 151 508 l 1,24,-1
 115 508 l 1,25,-1
 88 482 l 1,26,-1
 88 445 l 1,27,-1
 115 419 l 1,28,-1
 151 419 l 1,29,-1
 178 445 l 1,22,-1
EndSplineSet
EndChar
StartChar: uni0E03
Encoding: 3587 3587 214
Width: 667
VWidth: 1661
Flags: W
HStem: 0 21G<365.222 495.455> 583 75<211 251 341 355>
VStem: 27 74<460 497> 296 89<126 447> 475 90<126 658>
Fore
475 658 m 1,0,-1
 565 658 l 1,1,-1
 565 88 l 1,2,-1
 475 0 l 1,3,-1
 385 0 l 1,4,-1
 296 90 l 1,5,-1
 296 462 l 1,6,-1
 370 537 l 1,7,-1
 370 566 l 1,8,-1
 355 583 l 1,9,-1
 341 583 l 1,10,-1
 296 537 l 1,11,-1
 251 583 l 1,12,-1
 211 583 l 1,13,-1
 266 527 l 1,14,-1
 266 429 l 1,15,-1
 196 359 l 1,16,-1
 96 359 l 1,17,-1
 27 429 l 1,18,-1
 27 568 l 1,19,-1
 116 658 l 1,20,-1
 259 658 l 1,21,-1
 296 621 l 1,22,-1
 331 658 l 1,23,-1
 385 658 l 1,24,-1
 445 598 l 1,25,-1
 445 507 l 1,26,-1
 385 447 l 1,27,-1
 385 126 l 1,28,-1
 422 90 l 1,29,-1
 439 90 l 1,30,-1
 475 126 l 1,31,-1
 475 658 l 1,0,-1
191 460 m 1,32,-1
 191 497 l 1,33,-1
 164 523 l 1,34,-1
 128 523 l 1,35,-1
 101 497 l 1,36,-1
 101 460 l 1,37,-1
 128 434 l 1,38,-1
 164 434 l 1,39,-1
 191 460 l 1,32,-1
EndSplineSet
EndChar
StartChar: uni0E04
Encoding: 3588 3588 215
Width: 719
VWidth: 1661
Flags: W
HStem: 0 21G<80 169 527 616> 223 76<329 367> 387 75<329 367> 566 90<206 490>
VStem: 80 89<0 216 332 530> 392 75<324 362> 527 89<0 530>
Fore
527 656 m 1,0,-1
 616 566 l 1,1,-1
 616 0 l 1,2,-1
 527 0 l 1,3,-1
 527 530 l 1,4,-1
 490 566 l 1,5,-1
 206 566 l 1,6,-1
 169 530 l 1,7,-1
 169 332 l 1,8,-1
 299 462 l 1,9,-1
 397 462 l 1,10,-1
 467 392 l 1,11,-1
 467 294 l 1,12,-1
 397 223 l 1,13,-1
 299 223 l 1,14,-1
 238 284 l 1,15,-1
 169 216 l 1,16,-1
 169 0 l 1,17,-1
 80 0 l 1,18,-1
 80 568 l 1,19,-1
 168 656 l 1,20,-1
 527 656 l 1,0,-1
304 362 m 1,21,-1
 304 324 l 1,22,-1
 329 299 l 1,23,-1
 367 299 l 1,24,-1
 392 324 l 1,25,-1
 392 362 l 1,26,-1
 367 387 l 1,27,-1
 329 387 l 1,28,-1
 304 362 l 1,21,-1
EndSplineSet
EndChar
StartChar: uni0E05
Encoding: 3589 3589 216
Width: 719
VWidth: 1661
Flags: W
HStem: 0 21G<78 168 527 616> 568 90<204 272 422 490>
VStem: 78 90<0 216 332 532> 527 89<0 530>
Fore
527 658 m 1,0,-1
 616 568 l 1,1,-1
 616 0 l 1,2,-1
 527 0 l 1,3,-1
 527 530 l 1,4,-1
 490 568 l 1,5,-1
 422 568 l 1,6,-1
 347 492 l 1,7,-1
 272 568 l 1,8,-1
 204 568 l 1,9,-1
 168 532 l 1,10,-1
 168 332 l 1,11,-1
 297 463 l 1,12,-1
 397 463 l 1,13,-1
 467 394 l 1,14,-1
 467 294 l 1,15,-1
 397 224 l 1,16,-1
 297 224 l 1,17,-1
 236 286 l 1,18,-1
 168 216 l 1,19,-1
 168 0 l 1,20,-1
 78 0 l 1,21,-1
 78 568 l 1,22,-1
 168 658 l 1,23,-1
 309 658 l 1,24,-1
 347 620 l 1,25,-1
 385 658 l 1,26,-1
 527 658 l 1,0,-1
302 362 m 1,27,-1
 302 326 l 1,28,-1
 329 299 l 1,29,-1
 365 299 l 1,30,-1
 392 326 l 1,31,-1
 392 362 l 1,32,-1
 365 389 l 1,33,-1
 329 389 l 1,34,-1
 302 362 l 1,27,-1
EndSplineSet
EndChar
StartChar: uni0E06
Encoding: 3590 3590 217
Width: 787
VWidth: 1661
Flags: W
HStem: 0 21G<226.282 365.437 560.049 684> 583 75<211 251 341 355>
VStem: 27 74<460 498> 176 75<101 140> 191 75<460 498> 296 89<239 447> 595 89<95 658>
Fore
595 658 m 1,0,-1
 684 658 l 1,1,-1
 684 0 l 1,2,-1
 595 0 l 1,3,-1
 415 103 l 1,4,-1
 415 71 l 1,5,-1
 346 0 l 1,6,-1
 246 0 l 1,7,-1
 176 71 l 1,8,-1
 176 169 l 1,9,-1
 246 239 l 1,10,-1
 296 239 l 1,11,-1
 296 463 l 1,12,-1
 370 538 l 1,13,-1
 370 568 l 1,14,-1
 355 583 l 1,15,-1
 341 583 l 1,16,-1
 296 538 l 1,17,-1
 251 583 l 1,18,-1
 211 583 l 1,19,-1
 266 528 l 1,20,-1
 266 429 l 1,21,-1
 196 359 l 1,22,-1
 96 359 l 1,23,-1
 27 429 l 1,24,-1
 27 570 l 1,25,-1
 116 658 l 1,26,-1
 261 658 l 1,27,-1
 296 623 l 1,28,-1
 331 658 l 1,29,-1
 385 658 l 1,30,-1
 445 598 l 1,31,-1
 445 507 l 1,32,-1
 385 447 l 1,33,-1
 385 214 l 1,34,-1
 595 95 l 1,35,-1
 595 658 l 1,0,-1
191 460 m 1,36,-1
 191 498 l 1,37,-1
 164 523 l 1,38,-1
 128 523 l 1,39,-1
 101 498 l 1,40,-1
 101 460 l 1,41,-1
 128 435 l 1,42,-1
 164 435 l 1,43,-1
 191 460 l 1,36,-1
341 101 m 1,44,-1
 341 140 l 1,45,-1
 327 153 l 1,46,-1
 306 164 l 1,47,-1
 277 164 l 1,48,-1
 251 140 l 1,49,-1
 251 101 l 1,50,-1
 277 76 l 1,51,-1
 314 76 l 1,52,-1
 341 101 l 1,44,-1
EndSplineSet
EndChar
StartChar: uni0E07
Encoding: 3591 3591 218
Width: 556
VWidth: 1661
Flags: W
HStem: 0 21G<362.035 467> 638 20G<277.286 417>
VStem: 56 411<429 588 497 429> 228 74<520 557> 377 90<138 419>
Fore
397 658 m 1,0,-1
 467 588 l 1,1,-1
 467 0 l 1,2,-1
 377 0 l 1,3,-1
 56 429 l 1,4,-1
 121 478 l 1,5,-1
 377 138 l 1,6,-1
 377 419 l 1,7,-1
 297 419 l 1,8,-1
 228 488 l 1,9,-1
 228 588 l 1,10,-1
 297 658 l 1,11,-1
 397 658 l 1,0,-1
329 493 m 1,12,-1
 365 493 l 1,13,-1
 392 520 l 1,14,-1
 392 557 l 1,15,-1
 365 583 l 1,16,-1
 329 583 l 1,17,-1
 302 557 l 1,18,-1
 302 520 l 1,19,-1
 329 493 l 1,12,-1
EndSplineSet
EndChar
StartChar: uni0E08
Encoding: 3592 3592 219
Width: 672
VWidth: 1661
Flags: W
HStem: 0 21G<493 583> 389 74<294 331> 568 90<171 457>
VStem: 493 90<0 214 331 530>
Fore
493 658 m 1,0,-1
 583 568 l 1,1,-1
 583 0 l 1,2,-1
 493 0 l 1,3,-1
 493 214 l 1,4,-1
 424 286 l 1,5,-1
 362 224 l 1,6,-1
 262 224 l 1,7,-1
 193 294 l 1,8,-1
 193 392 l 1,9,-1
 262 463 l 1,10,-1
 362 463 l 1,11,-1
 493 331 l 1,12,-1
 493 530 l 1,13,-1
 457 568 l 1,14,-1
 171 568 l 1,15,-1
 135 530 l 1,16,-1
 135 493 l 1,17,-1
 45 493 l 1,18,-1
 45 568 l 1,19,-1
 135 658 l 1,20,-1
 493 658 l 1,0,-1
357 326 m 1,21,-1
 357 362 l 1,22,-1
 331 389 l 1,23,-1
 294 389 l 1,24,-1
 267 362 l 1,25,-1
 267 326 l 1,26,-1
 294 299 l 1,27,-1
 331 299 l 1,28,-1
 357 326 l 1,21,-1
EndSplineSet
EndChar
StartChar: uni0E09
Encoding: 3593 3593 220
Width: 725
VWidth: 1661
Flags: W
HStem: 0 21G<224 342.235 483.286 621.571> 389 74<176 213> 568 90<171 455>
VStem: 224 90<101 224> 493 90<239 532>
Fore
601 239 m 1,0,-1
 673 169 l 1,1,-1
 673 70 l 1,2,-1
 601 0 l 1,3,-1
 503 0 l 1,4,-1
 434 70 l 1,5,-1
 434 85 l 1,6,-1
 314 0 l 1,7,-1
 224 0 l 1,8,-1
 224 224 l 1,9,-1
 145 224 l 1,10,-1
 75 294 l 1,11,-1
 75 394 l 1,12,-1
 145 463 l 1,13,-1
 244 463 l 1,14,-1
 314 394 l 1,15,-1
 314 101 l 1,16,-1
 493 229 l 1,17,-1
 493 532 l 1,18,-1
 455 568 l 1,19,-1
 171 568 l 1,20,-1
 135 532 l 1,21,-1
 135 493 l 1,22,-1
 45 493 l 1,23,-1
 45 568 l 1,24,-1
 133 658 l 1,25,-1
 493 658 l 1,26,-1
 583 568 l 1,27,-1
 583 239 l 1,28,-1
 601 239 l 1,0,-1
176 299 m 1,29,-1
 213 299 l 1,30,-1
 238 326 l 1,31,-1
 238 362 l 1,32,-1
 213 389 l 1,33,-1
 176 389 l 1,34,-1
 150 362 l 1,35,-1
 150 326 l 1,36,-1
 176 299 l 1,29,-1
598 101 m 1,37,-1
 598 138 l 1,38,-1
 571 164 l 1,39,-1
 545 164 l 1,40,-1
 508 138 l 1,41,-1
 508 101 l 1,42,-1
 535 75 l 1,43,-1
 571 75 l 1,44,-1
 598 101 l 1,37,-1
EndSplineSet
EndChar
StartChar: uni0E0A
Encoding: 3594 3594 221
Width: 656
VWidth: 1661
Flags: W
HStem: 0 21G<367 497.556> 344 75<115 153> 568 90<198 276>
VStem: 297 90<126 547> 477 89<126 523>
Fore
533 583 m 1,0,-1
 566 550 l 1,1,-1
 566 90 l 1,2,-1
 478 0 l 1,3,-1
 387 0 l 1,4,-1
 297 90 l 1,5,-1
 297 547 l 1,6,-1
 276 568 l 1,7,-1
 198 568 l 1,8,-1
 253 513 l 1,9,-1
 253 414 l 1,10,-1
 183 344 l 1,11,-1
 85 344 l 1,12,-1
 15 414 l 1,13,-1
 15 568 l 1,14,-1
 103 658 l 1,15,-1
 297 658 l 1,16,-1
 387 568 l 1,17,-1
 387 126 l 1,18,-1
 425 90 l 1,19,-1
 440 90 l 1,20,-1
 477 126 l 1,21,-1
 477 523 l 1,22,-1
 417 583 l 1,23,-1
 596 762 l 1,24,-1
 655 704 l 1,25,-1
 533 583 l 1,0,-1
178 445 m 1,26,-1
 178 482 l 1,27,-1
 153 508 l 1,28,-1
 115 508 l 1,29,-1
 90 482 l 1,30,-1
 90 445 l 1,31,-1
 115 419 l 1,32,-1
 153 419 l 1,33,-1
 178 445 l 1,26,-1
EndSplineSet
EndChar
StartChar: uni0E0B
Encoding: 3595 3595 222
Width: 666
VWidth: 1661
Flags: W
HStem: 0 21G<365.222 495.455> 583 73<211 249 341 355>
VStem: 27 74<460 497> 296 89<126 447> 475 90<126 522>
Fore
653 703 m 1,0,-1
 532 581 l 1,1,-1
 565 548 l 1,2,-1
 565 88 l 1,3,-1
 475 0 l 1,4,-1
 385 0 l 1,5,-1
 296 90 l 1,6,-1
 296 462 l 1,7,-1
 370 537 l 1,8,-1
 370 566 l 1,9,-1
 355 583 l 1,10,-1
 341 583 l 1,11,-1
 296 537 l 1,12,-1
 249 583 l 1,13,-1
 211 583 l 1,14,-1
 266 527 l 1,15,-1
 266 429 l 1,16,-1
 196 359 l 1,17,-1
 96 359 l 1,18,-1
 27 429 l 1,19,-1
 27 568 l 1,20,-1
 116 656 l 1,21,-1
 259 656 l 1,22,-1
 296 621 l 1,23,-1
 331 656 l 1,24,-1
 385 656 l 1,25,-1
 437 605 l 1,26,-1
 595 761 l 1,27,-1
 653 703 l 1,0,-1
191 460 m 1,28,-1
 191 497 l 1,29,-1
 164 523 l 1,30,-1
 128 523 l 1,31,-1
 101 497 l 1,32,-1
 101 460 l 1,33,-1
 128 434 l 1,34,-1
 164 434 l 1,35,-1
 191 460 l 1,28,-1
475 522 m 1,36,-1
 445 552 l 1,37,-1
 445 507 l 1,38,-1
 385 447 l 1,39,-1
 385 126 l 1,40,-1
 422 90 l 1,41,-1
 439 90 l 1,42,-1
 475 126 l 1,43,-1
 475 522 l 1,36,-1
EndSplineSet
EndChar
StartChar: uni0E0C
Encoding: 3596 3596 223
Width: 975
VWidth: 1661
Flags: W
HStem: 0 75<179 216 478 515> 164 75<179 216 478 497> 568 90<176 460>
VStem: 78 90<239 367> 243 74<101 138> 497 89<239 532> 796 89<95 658>
Fore
885 658 m 1,0,-1
 885 0 l 1,1,-1
 796 0 l 1,2,-1
 616 101 l 1,3,-1
 616 70 l 1,4,-1
 547 0 l 1,5,-1
 447 0 l 1,6,-1
 377 70 l 1,7,-1
 377 169 l 1,8,-1
 447 239 l 1,9,-1
 497 239 l 1,10,-1
 497 532 l 1,11,-1
 460 568 l 1,12,-1
 176 568 l 1,13,-1
 272 472 l 1,14,-1
 168 367 l 1,15,-1
 168 239 l 1,16,-1
 248 239 l 1,17,-1
 317 169 l 1,18,-1
 317 70 l 1,19,-1
 248 0 l 1,20,-1
 148 0 l 1,21,-1
 78 70 l 1,22,-1
 78 405 l 1,23,-1
 145 472 l 1,24,-1
 48 568 l 1,25,-1
 138 658 l 1,26,-1
 497 658 l 1,27,-1
 586 568 l 1,28,-1
 586 214 l 1,29,-1
 796 95 l 1,30,-1
 796 658 l 1,31,-1
 885 658 l 1,0,-1
216 164 m 1,32,-1
 179 164 l 1,33,-1
 153 138 l 1,34,-1
 153 101 l 1,35,-1
 179 75 l 1,36,-1
 216 75 l 1,37,-1
 243 101 l 1,38,-1
 243 138 l 1,39,-1
 216 164 l 1,32,-1
542 138 m 1,40,-1
 528 153 l 1,41,-1
 507 164 l 1,42,-1
 478 164 l 1,43,-1
 452 138 l 1,44,-1
 452 101 l 1,45,-1
 478 75 l 1,46,-1
 515 75 l 1,47,-1
 542 101 l 1,48,-1
 542 138 l 1,40,-1
EndSplineSet
EndChar
StartChar: uni0E0D
Encoding: 3597 3597 224
Width: 975
VWidth: 1661
Flags: W
HStem: 0 90<586 759> 568 90<176 460>
VStem: 78 90<239 367> 243 74<101 138> 497 89<90 532> 796 89<126 658>
Fore
497 532 m 1,0,-1
 460 568 l 1,1,-1
 176 568 l 1,2,-1
 272 472 l 1,3,-1
 168 367 l 1,4,-1
 168 239 l 1,5,-1
 248 239 l 1,6,-1
 317 169 l 1,7,-1
 317 70 l 1,8,-1
 248 0 l 1,9,-1
 150 0 l 1,10,-1
 78 70 l 1,11,-1
 78 405 l 1,12,-1
 146 472 l 1,13,-1
 50 568 l 1,14,-1
 138 658 l 1,15,-1
 497 658 l 1,16,-1
 586 568 l 1,17,-1
 586 90 l 1,18,-1
 759 90 l 1,19,-1
 796 126 l 1,20,-1
 796 658 l 1,21,-1
 885 658 l 1,22,-1
 885 90 l 1,23,-1
 796 0 l 1,24,-1
 497 0 l 1,25,-1
 497 532 l 1,0,-1
179 164 m 1,26,-1
 153 138 l 1,27,-1
 153 101 l 1,28,-1
 179 75 l 1,29,-1
 216 75 l 1,30,-1
 243 101 l 1,31,-1
 243 138 l 1,32,-1
 216 164 l 1,33,-1
 179 164 l 1,26,-1
824 -120 m 1,34,-1
 887 -183 l 1,35,-1
 771 -301 l 1,36,-1
 558 -301 l 1,37,-1
 497 -239 l 1,38,-1
 497 -153 l 1,39,-1
 558 -91 l 1,40,-1
 645 -91 l 1,41,-1
 706 -153 l 1,42,-1
 706 -211 l 1,43,-1
 734 -211 l 1,44,-1
 824 -120 l 1,34,-1
631 -208 m 1,45,-1
 631 -183 l 1,46,-1
 615 -166 l 1,47,-1
 590 -166 l 1,48,-1
 571 -183 l 1,49,-1
 571 -208 l 1,50,-1
 590 -226 l 1,51,-1
 615 -226 l 1,52,-1
 631 -208 l 1,45,-1
EndSplineSet
Substitution2: "Single Substitution lookup 22 subtable" uni0E0D.alt1
Substitution2: "Single Substitution lookup 22 subtable" uni0E0D.alt1
EndChar
StartChar: uni0E0E
Encoding: 3598 3598 225
Width: 757
VWidth: 1661
Flags: W
HStem: -299 90<267 415> -150 90<267 415> 0 21G<61.2857 201> 568 90<259 543>
VStem: 12 74<101 138> 161 90<-191 -166 239 367> 580 89<-183 532>
Fore
580 658 m 1,0,-1
 669 568 l 1,1,-1
 669 -299 l 1,2,-1
 580 -299 l 1,3,-1
 518 -238 l 1,4,-1
 457 -299 l 1,5,-1
 231 -299 l 1,6,-1
 161 -229 l 1,7,-1
 161 -130 l 1,8,-1
 231 -60 l 1,9,-1
 457 -60 l 1,10,-1
 580 -183 l 1,11,-1
 580 532 l 1,12,-1
 543 568 l 1,13,-1
 259 568 l 1,14,-1
 355 472 l 1,15,-1
 251 367 l 1,16,-1
 251 70 l 1,17,-1
 181 0 l 1,18,-1
 81 0 l 1,19,-1
 12 70 l 1,20,-1
 12 169 l 1,21,-1
 81 239 l 1,22,-1
 161 239 l 1,23,-1
 161 405 l 1,24,-1
 228 472 l 1,25,-1
 131 568 l 1,26,-1
 221 658 l 1,27,-1
 580 658 l 1,0,-1
176 101 m 1,28,-1
 176 138 l 1,29,-1
 150 164 l 1,30,-1
 113 164 l 1,31,-1
 86 138 l 1,32,-1
 86 101 l 1,33,-1
 113 75 l 1,34,-1
 150 75 l 1,35,-1
 176 101 l 1,28,-1
415 -209 m 1,36,-1
 445 -179 l 1,37,-1
 415 -150 l 1,38,-1
 267 -150 l 1,39,-1
 251 -166 l 1,40,-1
 251 -191 l 1,41,-1
 267 -209 l 1,42,-1
 415 -209 l 1,36,-1
EndSplineSet
Substitution2: "Single Substitution lookup 22 subtable" uni0E0E.alt1
Substitution2: "Single Substitution lookup 22 subtable" uni0E0E.alt1
EndChar
StartChar: uni0E0F
Encoding: 3599 3599 226
Width: 757
VWidth: 1661
Flags: W
HStem: 0 75<113 151> 164 75<113 151> 568 90<259 543>
VStem: 163 90<-191 -166 239 367> 580 89<-183 532>
Fore
581 658 m 1,0,-1
 669 568 l 1,1,-1
 669 -299 l 1,2,-1
 580 -299 l 1,3,-1
 518 -236 l 1,4,-1
 455 -299 l 1,5,-1
 392 -238 l 1,6,-1
 331 -299 l 1,7,-1
 233 -299 l 1,8,-1
 163 -229 l 1,9,-1
 163 -130 l 1,10,-1
 233 -60 l 1,11,-1
 331 -60 l 1,12,-1
 455 -183 l 1,13,-1
 518 -120 l 1,14,-1
 580 -183 l 1,15,-1
 580 532 l 1,16,-1
 543 568 l 1,17,-1
 259 568 l 1,18,-1
 355 472 l 1,19,-1
 253 367 l 1,20,-1
 253 70 l 1,21,-1
 181 0 l 1,22,-1
 83 0 l 1,23,-1
 13 70 l 1,24,-1
 13 169 l 1,25,-1
 83 239 l 1,26,-1
 163 239 l 1,27,-1
 163 405 l 1,28,-1
 229 472 l 1,29,-1
 133 568 l 1,30,-1
 221 658 l 1,31,-1
 581 658 l 1,0,-1
176 101 m 1,32,-1
 176 138 l 1,33,-1
 151 164 l 1,34,-1
 113 164 l 1,35,-1
 88 138 l 1,36,-1
 88 101 l 1,37,-1
 113 75 l 1,38,-1
 151 75 l 1,39,-1
 176 101 l 1,32,-1
312 -191 m 1,40,-1
 312 -166 l 1,41,-1
 294 -150 l 1,42,-1
 269 -150 l 1,43,-1
 253 -166 l 1,44,-1
 253 -191 l 1,45,-1
 269 -209 l 1,46,-1
 294 -209 l 1,47,-1
 312 -191 l 1,40,-1
EndSplineSet
Substitution2: "Single Substitution lookup 22 subtable" uni0E0F.alt1
Substitution2: "Single Substitution lookup 22 subtable" uni0E0F.alt1
EndChar
StartChar: uni0E10
Encoding: 3600 3600 227
Width: 657
VWidth: 1661
Flags: W
HStem: 0 21G<465 555> 568 90<173 585>
VStem: 166 75<251 289> 465 90<0 143 259 387>
Fore
585 568 m 1,0,-1
 173 568 l 1,1,-1
 156 552 l 1,2,-1
 555 449 l 1,3,-1
 555 0 l 1,4,-1
 465 0 l 1,5,-1
 465 143 l 1,6,-1
 397 211 l 1,7,-1
 336 150 l 1,8,-1
 236 150 l 1,9,-1
 166 221 l 1,10,-1
 166 319 l 1,11,-1
 236 389 l 1,12,-1
 336 389 l 1,13,-1
 465 259 l 1,14,-1
 465 387 l 1,15,-1
 48 493 l 1,16,-1
 47 493 l 1,17,-1
 47 568 l 1,18,-1
 136 658 l 1,19,-1
 585 658 l 1,20,-1
 585 568 l 1,0,-1
331 251 m 1,21,-1
 331 289 l 1,22,-1
 304 314 l 1,23,-1
 267 314 l 1,24,-1
 241 289 l 1,25,-1
 241 251 l 1,26,-1
 267 226 l 1,27,-1
 304 226 l 1,28,-1
 331 251 l 1,21,-1
493 -90 m 1,29,-1
 555 -151 l 1,30,-1
 555 -239 l 1,31,-1
 493 -299 l 1,32,-1
 407 -299 l 1,33,-1
 301 -194 l 1,34,-1
 209 -284 l 1,35,-1
 65 -141 l 1,36,-1
 118 -88 l 1,37,-1
 209 -179 l 1,38,-1
 301 -88 l 1,39,-1
 355 -143 l 1,40,-1
 407 -90 l 1,41,-1
 493 -90 l 1,29,-1
480 -208 m 1,42,-1
 480 -183 l 1,43,-1
 462 -164 l 1,44,-1
 439 -164 l 1,45,-1
 420 -183 l 1,46,-1
 420 -208 l 1,47,-1
 439 -224 l 1,48,-1
 462 -224 l 1,49,-1
 480 -208 l 1,42,-1
EndSplineSet
Substitution2: "Single Substitution lookup 22 subtable" uni0E10.alt1
Substitution2: "Single Substitution lookup 22 subtable" uni0E10.alt1
EndChar
StartChar: uni0E11
Encoding: 3601 3601 228
Width: 845
VWidth: 1661
Flags: W
HStem: 0 21G<296 392.218 655 744> 583 75<211 249 341 355>
VStem: 27 74<460 498> 191 75<460 498> 296 89<244 447> 655 89<0 532>
Fore
655 658 m 1,0,-1
 744 568 l 1,1,-1
 744 0 l 1,2,-1
 655 0 l 1,3,-1
 655 532 l 1,4,-1
 616 568 l 1,5,-1
 590 568 l 1,6,-1
 385 0 l 1,7,-1
 296 0 l 1,8,-1
 296 463 l 1,9,-1
 370 538 l 1,10,-1
 370 568 l 1,11,-1
 355 583 l 1,12,-1
 341 583 l 1,13,-1
 296 538 l 1,14,-1
 249 583 l 1,15,-1
 211 583 l 1,16,-1
 266 528 l 1,17,-1
 266 429 l 1,18,-1
 196 359 l 1,19,-1
 96 359 l 1,20,-1
 27 429 l 1,21,-1
 27 570 l 1,22,-1
 116 658 l 1,23,-1
 259 658 l 1,24,-1
 296 623 l 1,25,-1
 331 658 l 1,26,-1
 385 658 l 1,27,-1
 445 598 l 1,28,-1
 445 507 l 1,29,-1
 385 447 l 1,30,-1
 385 244 l 1,31,-1
 535 658 l 1,32,-1
 655 658 l 1,0,-1
191 460 m 1,33,-1
 191 498 l 1,34,-1
 164 523 l 1,35,-1
 128 523 l 1,36,-1
 101 498 l 1,37,-1
 101 460 l 1,38,-1
 128 435 l 1,39,-1
 164 435 l 1,40,-1
 191 460 l 1,33,-1
EndSplineSet
EndChar
StartChar: uni0E12
Encoding: 3602 3602 229
Width: 1018
VWidth: 1661
Flags: W
HStem: 0 21G<80 189.34 458.286 598 791.554 917> 568 90<206 274 424 490>
VStem: 80 89<115 532> 409 74<101 138> 528 90<239 530> 827 90<95 658>
Fore
827 658 m 1,0,-1
 917 658 l 1,1,-1
 917 0 l 1,2,-1
 827 0 l 1,3,-1
 648 101 l 1,4,-1
 648 70 l 1,5,-1
 578 0 l 1,6,-1
 478 0 l 1,7,-1
 409 70 l 1,8,-1
 409 169 l 1,9,-1
 478 239 l 1,10,-1
 528 239 l 1,11,-1
 528 530 l 1,12,-1
 490 568 l 1,13,-1
 424 568 l 1,14,-1
 412 557 l 1,15,-1
 349 492 l 1,16,-1
 286 557 l 1,17,-1
 274 568 l 1,18,-1
 206 568 l 1,19,-1
 169 532 l 1,20,-1
 169 115 l 1,21,-1
 291 233 l 1,22,-1
 229 294 l 1,23,-1
 229 394 l 1,24,-1
 299 463 l 1,25,-1
 399 463 l 1,26,-1
 468 394 l 1,27,-1
 468 294 l 1,28,-1
 169 0 l 1,29,-1
 80 0 l 1,30,-1
 80 568 l 1,31,-1
 169 658 l 1,32,-1
 311 658 l 1,33,-1
 349 620 l 1,34,-1
 387 658 l 1,35,-1
 528 658 l 1,36,-1
 618 568 l 1,37,-1
 618 214 l 1,38,-1
 827 95 l 1,39,-1
 827 658 l 1,0,-1
304 362 m 1,40,-1
 304 326 l 1,41,-1
 331 299 l 1,42,-1
 367 299 l 1,43,-1
 394 326 l 1,44,-1
 394 362 l 1,45,-1
 367 389 l 1,46,-1
 331 389 l 1,47,-1
 304 362 l 1,40,-1
573 138 m 1,48,-1
 558 153 l 1,49,-1
 538 164 l 1,50,-1
 510 164 l 1,51,-1
 483 138 l 1,52,-1
 483 101 l 1,53,-1
 510 75 l 1,54,-1
 547 75 l 1,55,-1
 573 101 l 1,56,-1
 573 138 l 1,48,-1
EndSplineSet
EndChar
StartChar: uni0E13
Encoding: 3603 3603 230
Width: 1028
VWidth: 1661
Flags: W
HStem: 0 75<181 218 839 875> 566 90<178 462>
VStem: 80 74<101 138> 80 89<239 367> 498 90<98 530> 797 90<239 656>
Fore
907 239 m 1,0,-1
 977 168 l 1,1,-1
 977 70 l 1,2,-1
 907 0 l 1,3,-1
 807 0 l 1,4,-1
 738 70 l 1,5,-1
 738 98 l 1,6,-1
 585 0 l 1,7,-1
 498 0 l 1,8,-1
 498 530 l 1,9,-1
 462 566 l 1,10,-1
 178 566 l 1,11,-1
 274 470 l 1,12,-1
 169 367 l 1,13,-1
 169 239 l 1,14,-1
 249 239 l 1,15,-1
 319 168 l 1,16,-1
 319 70 l 1,17,-1
 249 0 l 1,18,-1
 150 0 l 1,19,-1
 80 70 l 1,20,-1
 80 404 l 1,21,-1
 146 470 l 1,22,-1
 50 568 l 1,23,-1
 140 656 l 1,24,-1
 498 656 l 1,25,-1
 588 566 l 1,26,-1
 588 98 l 1,27,-1
 797 238 l 1,28,-1
 797 656 l 1,29,-1
 887 656 l 1,30,-1
 887 239 l 1,31,-1
 907 239 l 1,0,-1
218 164 m 1,32,-1
 181 164 l 1,33,-1
 154 138 l 1,34,-1
 154 101 l 1,35,-1
 181 75 l 1,36,-1
 218 75 l 1,37,-1
 244 101 l 1,38,-1
 244 138 l 1,39,-1
 218 164 l 1,32,-1
902 101 m 1,40,-1
 902 138 l 1,41,-1
 875 164 l 1,42,-1
 839 164 l 1,43,-1
 812 138 l 1,44,-1
 812 101 l 1,45,-1
 839 75 l 1,46,-1
 875 75 l 1,47,-1
 902 101 l 1,40,-1
EndSplineSet
EndChar
StartChar: uni0E14
Encoding: 3604 3604 231
Width: 720
VWidth: 1661
Flags: W
HStem: 0 21G<81 191.204 528 618> 389 74<331 369> 568 90<208 492>
VStem: 81 88<115 532> 528 90<0 530>
Fore
528 658 m 1,0,-1
 618 568 l 1,1,-1
 618 0 l 1,2,-1
 528 0 l 1,3,-1
 528 530 l 1,4,-1
 492 568 l 1,5,-1
 208 568 l 1,6,-1
 169 532 l 1,7,-1
 169 115 l 1,8,-1
 291 233 l 1,9,-1
 229 294 l 1,10,-1
 229 394 l 1,11,-1
 301 463 l 1,12,-1
 399 463 l 1,13,-1
 468 394 l 1,14,-1
 468 294 l 1,15,-1
 171 0 l 1,16,-1
 81 0 l 1,17,-1
 81 568 l 1,18,-1
 169 658 l 1,19,-1
 528 658 l 1,0,-1
306 362 m 1,20,-1
 306 326 l 1,21,-1
 331 299 l 1,22,-1
 369 299 l 1,23,-1
 394 326 l 1,24,-1
 394 362 l 1,25,-1
 369 389 l 1,26,-1
 331 389 l 1,27,-1
 306 362 l 1,20,-1
EndSplineSet
EndChar
StartChar: uni0E15
Encoding: 3605 3605 232
Width: 719
VWidth: 1661
Flags: W
HStem: 0 21G<80 189.34 528 618> 566 90<206 274 424 490>
VStem: 80 89<115 530> 229 75<324 362> 394 74<324 362> 528 90<0 530>
Fore
528 656 m 1,0,-1
 618 566 l 1,1,-1
 618 0 l 1,2,-1
 528 0 l 1,3,-1
 528 530 l 1,4,-1
 490 566 l 1,5,-1
 424 566 l 1,6,-1
 349 492 l 1,7,-1
 274 566 l 1,8,-1
 206 566 l 1,9,-1
 169 530 l 1,10,-1
 169 115 l 1,11,-1
 291 233 l 1,12,-1
 229 294 l 1,13,-1
 229 392 l 1,14,-1
 299 462 l 1,15,-1
 399 462 l 1,16,-1
 468 392 l 1,17,-1
 468 294 l 1,18,-1
 169 0 l 1,19,-1
 80 0 l 1,20,-1
 80 568 l 1,21,-1
 169 656 l 1,22,-1
 311 656 l 1,23,-1
 349 618 l 1,24,-1
 387 656 l 1,25,-1
 528 656 l 1,0,-1
304 362 m 1,26,-1
 304 324 l 1,27,-1
 331 299 l 1,28,-1
 367 299 l 1,29,-1
 394 324 l 1,30,-1
 394 362 l 1,31,-1
 367 387 l 1,32,-1
 331 387 l 1,33,-1
 304 362 l 1,26,-1
EndSplineSet
EndChar
StartChar: uni0E16
Encoding: 3606 3606 233
Width: 674
VWidth: 1661
Flags: W
HStem: 0 21G<126 266 495 585> 568 90<174 457>
VStem: 76 90<239 367> 495 90<0 530>
Fore
495 658 m 1,0,-1
 585 568 l 1,1,-1
 585 0 l 1,2,-1
 495 0 l 1,3,-1
 495 530 l 1,4,-1
 457 568 l 1,5,-1
 174 568 l 1,6,-1
 269 472 l 1,7,-1
 166 367 l 1,8,-1
 166 239 l 1,9,-1
 246 239 l 1,10,-1
 316 169 l 1,11,-1
 316 70 l 1,12,-1
 246 0 l 1,13,-1
 146 0 l 1,14,-1
 76 70 l 1,15,-1
 76 404 l 1,16,-1
 143 472 l 1,17,-1
 47 568 l 1,18,-1
 136 658 l 1,19,-1
 495 658 l 1,0,-1
214 164 m 1,20,-1
 178 164 l 1,21,-1
 151 138 l 1,22,-1
 151 101 l 1,23,-1
 178 75 l 1,24,-1
 214 75 l 1,25,-1
 241 101 l 1,26,-1
 241 138 l 1,27,-1
 214 164 l 1,20,-1
EndSplineSet
EndChar
StartChar: uni0E17
Encoding: 3607 3607 234
Width: 759
VWidth: 1661
Flags: W
HStem: 0 21G<161 260.12 580 669> 419 74<113 151> 583 75<113 151>
VStem: 161 90<199 419> 580 89<0 530>
Fore
580 658 m 1,0,-1
 669 568 l 1,1,-1
 669 0 l 1,2,-1
 580 0 l 1,3,-1
 580 530 l 1,4,-1
 543 568 l 1,5,-1
 510 568 l 1,6,-1
 251 0 l 1,7,-1
 161 0 l 1,8,-1
 161 419 l 1,9,-1
 83 419 l 1,10,-1
 13 488 l 1,11,-1
 13 586 l 1,12,-1
 83 658 l 1,13,-1
 181 658 l 1,14,-1
 251 586 l 1,15,-1
 251 199 l 1,16,-1
 460 658 l 1,17,-1
 580 658 l 1,0,-1
113 493 m 1,18,-1
 151 493 l 1,19,-1
 176 520 l 1,20,-1
 176 557 l 1,21,-1
 151 583 l 1,22,-1
 113 583 l 1,23,-1
 88 557 l 1,24,-1
 88 520 l 1,25,-1
 113 493 l 1,18,-1
EndSplineSet
EndChar
StartChar: uni0E18
Encoding: 3608 3608 235
Width: 641
VWidth: 1661
Flags: W
HStem: 0 90<201 427> 568 90<171 553>
VStem: 75 89<126 419> 463 90<126 399>
Fore
553 568 m 1,0,-1
 171 568 l 1,1,-1
 156 552 l 1,2,-1
 553 463 l 1,3,-1
 553 90 l 1,4,-1
 463 0 l 1,5,-1
 164 0 l 1,6,-1
 75 90 l 1,7,-1
 75 419 l 1,8,-1
 164 419 l 1,9,-1
 164 126 l 1,10,-1
 201 90 l 1,11,-1
 427 90 l 1,12,-1
 463 126 l 1,13,-1
 463 399 l 1,14,-1
 45 492 l 1,15,-1
 45 568 l 1,16,-1
 135 658 l 1,17,-1
 553 658 l 1,18,-1
 553 568 l 1,0,-1
EndSplineSet
EndChar
StartChar: uni0E19
Encoding: 3609 3609 236
Width: 754
VWidth: 1661
Flags: W
HStem: 0 75<563 601> 419 74<115 153> 583 75<115 153>
VStem: 163 90<93 419> 522 89<239 658>
Fore
631 239 m 1,0,-1
 701 169 l 1,1,-1
 701 70 l 1,2,-1
 631 0 l 1,3,-1
 532 0 l 1,4,-1
 462 70 l 1,5,-1
 462 108 l 1,6,-1
 253 0 l 1,7,-1
 163 0 l 1,8,-1
 163 419 l 1,9,-1
 85 419 l 1,10,-1
 15 488 l 1,11,-1
 15 586 l 1,12,-1
 85 658 l 1,13,-1
 183 658 l 1,14,-1
 253 586 l 1,15,-1
 253 93 l 1,16,-1
 522 231 l 1,17,-1
 522 658 l 1,18,-1
 611 658 l 1,19,-1
 611 239 l 1,20,-1
 631 239 l 1,0,-1
115 493 m 1,21,-1
 153 493 l 1,22,-1
 178 520 l 1,23,-1
 178 557 l 1,24,-1
 153 583 l 1,25,-1
 115 583 l 1,26,-1
 90 557 l 1,27,-1
 90 520 l 1,28,-1
 115 493 l 1,21,-1
626 101 m 1,29,-1
 626 138 l 1,30,-1
 601 164 l 1,31,-1
 571 164 l 1,32,-1
 555 154 l 1,33,-1
 538 138 l 1,34,-1
 538 101 l 1,35,-1
 563 75 l 1,36,-1
 601 75 l 1,37,-1
 626 101 l 1,29,-1
EndSplineSet
EndChar
StartChar: uni0E1A
Encoding: 3610 3610 237
Width: 730
VWidth: 1661
Flags: W
HStem: 0 90<291 515> 419 74<116 153> 638 20G<65.5556 202.722 552 641>
VStem: 164 90<126 419> 552 89<126 658>
Fore
552 658 m 1,0,-1
 641 658 l 1,1,-1
 641 90 l 1,2,-1
 553 0 l 1,3,-1
 253 0 l 1,4,-1
 164 90 l 1,5,-1
 164 419 l 1,6,-1
 85 419 l 1,7,-1
 15 488 l 1,8,-1
 15 586 l 1,9,-1
 85 658 l 1,10,-1
 183 658 l 1,11,-1
 254 586 l 1,12,-1
 254 126 l 1,13,-1
 291 90 l 1,14,-1
 515 90 l 1,15,-1
 552 126 l 1,16,-1
 552 658 l 1,0,-1
116 493 m 1,17,-1
 153 493 l 1,18,-1
 179 520 l 1,19,-1
 179 557 l 1,20,-1
 153 583 l 1,21,-1
 116 583 l 1,22,-1
 90 557 l 1,23,-1
 90 520 l 1,24,-1
 116 493 l 1,17,-1
EndSplineSet
EndChar
StartChar: uni0E1B
Encoding: 3611 3611 238
Width: 732
VWidth: 1661
Flags: W
HStem: 0 90<291 517> 419 74<116 153> 638 20G<65 204>
VStem: 164 90<128 419> 553 90<126 957>
Fore
553 957 m 1,0,-1
 643 957 l 1,1,-1
 643 90 l 1,2,-1
 553 0 l 1,3,-1
 254 0 l 1,4,-1
 164 90 l 1,5,-1
 164 419 l 1,6,-1
 85 419 l 1,7,-1
 15 488 l 1,8,-1
 15 588 l 1,9,-1
 85 658 l 1,10,-1
 184 658 l 1,11,-1
 254 588 l 1,12,-1
 254 128 l 1,13,-1
 291 90 l 1,14,-1
 517 90 l 1,15,-1
 553 126 l 1,16,-1
 553 957 l 1,0,-1
116 493 m 1,17,-1
 153 493 l 1,18,-1
 179 520 l 1,19,-1
 179 557 l 1,20,-1
 153 583 l 1,21,-1
 116 583 l 1,22,-1
 90 557 l 1,23,-1
 90 520 l 1,24,-1
 116 493 l 1,17,-1
EndSplineSet
EndChar
StartChar: uni0E1C
Encoding: 3612 3612 239
Width: 717
VWidth: 1661
Flags: W
HStem: 0 21G<80 187.653 508.554 616> 417 76<179 218> 581 75<179 218>
VStem: 80 74<518 557> 80 89<120 417> 243 74<518 557> 527 89<121 656>
Fore
527 656 m 1,0,-1
 616 656 l 1,1,-1
 616 0 l 1,2,-1
 527 0 l 1,3,-1
 349 193 l 1,4,-1
 169 0 l 1,5,-1
 80 0 l 1,6,-1
 80 586 l 1,7,-1
 150 656 l 1,8,-1
 248 656 l 1,9,-1
 317 586 l 1,10,-1
 317 488 l 1,11,-1
 248 417 l 1,12,-1
 169 417 l 1,13,-1
 169 120 l 1,14,-1
 349 314 l 1,15,-1
 527 121 l 1,16,-1
 527 656 l 1,0,-1
154 557 m 1,17,-1
 154 518 l 1,18,-1
 179 493 l 1,19,-1
 218 493 l 1,20,-1
 243 518 l 1,21,-1
 243 557 l 1,22,-1
 218 581 l 1,23,-1
 179 581 l 1,24,-1
 154 557 l 1,17,-1
EndSplineSet
EndChar
StartChar: uni0E1D
Encoding: 3613 3613 240
Width: 717
VWidth: 1661
Flags: W
HStem: 0 21G<78 186.756 508.554 616> 417 76<179 218> 581 75<179 218>
VStem: 78 76<518 557> 78 90<120 417> 243 74<518 557> 527 89<121 955>
Fore
616 955 m 1,0,-1
 616 0 l 1,1,-1
 527 0 l 1,2,-1
 349 193 l 1,3,-1
 168 0 l 1,4,-1
 78 0 l 1,5,-1
 78 586 l 1,6,-1
 150 656 l 1,7,-1
 248 656 l 1,8,-1
 317 586 l 1,9,-1
 317 488 l 1,10,-1
 248 417 l 1,11,-1
 168 417 l 1,12,-1
 168 120 l 1,13,-1
 349 314 l 1,14,-1
 527 121 l 1,15,-1
 527 955 l 1,16,-1
 616 955 l 1,0,-1
154 557 m 1,17,-1
 154 518 l 1,18,-1
 179 493 l 1,19,-1
 218 493 l 1,20,-1
 243 518 l 1,21,-1
 243 557 l 1,22,-1
 218 581 l 1,23,-1
 179 581 l 1,24,-1
 154 557 l 1,17,-1
EndSplineSet
EndChar
StartChar: uni0E1E
Encoding: 3614 3614 241
Width: 789
VWidth: 1661
Flags: W
HStem: 0 21G<163 261.136 601.909 699> 638 20G<63.5556 201 423.864 440.091 610 699>
VStem: 163 90<218 419> 610 89<218 658>
Fore
610 658 m 1,0,-1
 699 658 l 1,1,-1
 699 0 l 1,2,-1
 610 0 l 1,3,-1
 432 440 l 1,4,-1
 253 0 l 1,5,-1
 163 0 l 1,6,-1
 163 419 l 1,7,-1
 83 419 l 1,8,-1
 13 488 l 1,9,-1
 13 586 l 1,10,-1
 83 658 l 1,11,-1
 181 658 l 1,12,-1
 253 586 l 1,13,-1
 253 218 l 1,14,-1
 432 658 l 1,15,-1
 610 218 l 1,16,-1
 610 658 l 1,0,-1
115 493 m 1,17,-1
 151 493 l 1,18,-1
 178 520 l 1,19,-1
 178 557 l 1,20,-1
 151 583 l 1,21,-1
 115 583 l 1,22,-1
 88 557 l 1,23,-1
 88 520 l 1,24,-1
 115 493 l 1,17,-1
EndSplineSet
EndChar
StartChar: uni0E1F
Encoding: 3615 3615 242
Width: 790
VWidth: 1661
Flags: W
HStem: 0 21G<164 262.182 604.864 703> 419 74<116 153> 638 20G<65.5556 203.444 425.818 442.136>
VStem: 164 90<218 419> 613 90<218 955>
Fore
613 955 m 1,0,-1
 703 955 l 1,1,-1
 703 0 l 1,2,-1
 613 0 l 1,3,-1
 434 440 l 1,4,-1
 254 0 l 1,5,-1
 164 0 l 1,6,-1
 164 419 l 1,7,-1
 85 419 l 1,8,-1
 15 488 l 1,9,-1
 15 586 l 1,10,-1
 85 658 l 1,11,-1
 184 658 l 1,12,-1
 254 586 l 1,13,-1
 254 218 l 1,14,-1
 434 658 l 1,15,-1
 613 218 l 1,16,-1
 613 955 l 1,0,-1
116 493 m 1,17,-1
 153 493 l 1,18,-1
 179 520 l 1,19,-1
 179 557 l 1,20,-1
 153 583 l 1,21,-1
 116 583 l 1,22,-1
 90 557 l 1,23,-1
 90 520 l 1,24,-1
 116 493 l 1,17,-1
EndSplineSet
EndChar
StartChar: uni0E20
Encoding: 3616 3616 243
Width: 760
VWidth: 1661
Flags: W
HStem: 0 21G<63 203 581 671> 568 90<261 545>
VStem: 163 90<239 367> 581 90<0 530>
Fore
581 658 m 1,0,-1
 671 568 l 1,1,-1
 671 0 l 1,2,-1
 581 0 l 1,3,-1
 581 530 l 1,4,-1
 545 568 l 1,5,-1
 261 568 l 1,6,-1
 357 472 l 1,7,-1
 253 367 l 1,8,-1
 253 70 l 1,9,-1
 183 0 l 1,10,-1
 83 0 l 1,11,-1
 13 70 l 1,12,-1
 13 169 l 1,13,-1
 83 239 l 1,14,-1
 163 239 l 1,15,-1
 163 404 l 1,16,-1
 229 472 l 1,17,-1
 133 568 l 1,18,-1
 223 658 l 1,19,-1
 581 658 l 1,0,-1
178 101 m 1,20,-1
 178 138 l 1,21,-1
 151 164 l 1,22,-1
 115 164 l 1,23,-1
 88 138 l 1,24,-1
 88 101 l 1,25,-1
 115 75 l 1,26,-1
 151 75 l 1,27,-1
 178 101 l 1,20,-1
EndSplineSet
EndChar
StartChar: uni0E21
Encoding: 3617 3617 244
Width: 699
VWidth: 1661
Flags: W
HStem: 0 21G<95.7143 234 479.117 611> 638 20G<63.5556 202.444 522 611>
VStem: 163 90<239 419> 522 89<91 658>
Fore
522 658 m 1,0,-1
 611 658 l 1,1,-1
 611 0 l 1,2,-1
 522 0 l 1,3,-1
 284 111 l 1,4,-1
 284 70 l 1,5,-1
 214 0 l 1,6,-1
 116 0 l 1,7,-1
 45 70 l 1,8,-1
 45 169 l 1,9,-1
 116 239 l 1,10,-1
 163 239 l 1,11,-1
 163 419 l 1,12,-1
 83 419 l 1,13,-1
 13 488 l 1,14,-1
 13 586 l 1,15,-1
 83 658 l 1,16,-1
 183 658 l 1,17,-1
 253 586 l 1,18,-1
 253 218 l 1,19,-1
 522 91 l 1,20,-1
 522 658 l 1,0,-1
115 493 m 1,21,-1
 151 493 l 1,22,-1
 178 520 l 1,23,-1
 178 557 l 1,24,-1
 151 583 l 1,25,-1
 115 583 l 1,26,-1
 88 557 l 1,27,-1
 88 520 l 1,28,-1
 115 493 l 1,21,-1
209 138 m 1,29,-1
 193 154 l 1,30,-1
 173 164 l 1,31,-1
 146 164 l 1,32,-1
 120 138 l 1,33,-1
 120 101 l 1,34,-1
 146 75 l 1,35,-1
 183 75 l 1,36,-1
 209 101 l 1,37,-1
 209 138 l 1,29,-1
EndSplineSet
EndChar
StartChar: uni0E22
Encoding: 3618 3618 245
Width: 677
VWidth: 1661
Flags: W
HStem: 0 90<206 462> 419 74<151 188> 638 20G<100.556 238.444 498 588>
VStem: 80 89<126 201> 498 90<126 658>
Fore
498 658 m 1,0,-1
 588 658 l 1,1,-1
 588 90 l 1,2,-1
 498 0 l 1,3,-1
 169 0 l 1,4,-1
 80 90 l 1,5,-1
 80 239 l 1,6,-1
 140 297 l 1,7,-1
 50 387 l 1,8,-1
 50 586 l 1,9,-1
 120 658 l 1,10,-1
 219 658 l 1,11,-1
 289 586 l 1,12,-1
 289 488 l 1,13,-1
 219 419 l 1,14,-1
 146 419 l 1,15,-1
 266 297 l 1,16,-1
 169 201 l 1,17,-1
 169 126 l 1,18,-1
 206 90 l 1,19,-1
 462 90 l 1,20,-1
 498 126 l 1,21,-1
 498 658 l 1,0,-1
125 557 m 1,22,-1
 125 520 l 1,23,-1
 151 493 l 1,24,-1
 188 493 l 1,25,-1
 214 520 l 1,26,-1
 214 557 l 1,27,-1
 188 583 l 1,28,-1
 151 583 l 1,29,-1
 125 557 l 1,22,-1
EndSplineSet
EndChar
StartChar: uni0E23
Encoding: 3619 3619 246
Width: 551
VWidth: 1661
Flags: W
HStem: 0 75<322 360> 164 75<322 360> 463 195<43 490 199 230> 568 90<169 490>
VStem: 370 90<239 397>
Fore
169 568 m 1,0,-1
 133 530 l 1,1,-1
 460 463 l 1,2,-1
 460 70 l 1,3,-1
 390 0 l 1,4,-1
 292 0 l 1,5,-1
 221 70 l 1,6,-1
 221 169 l 1,7,-1
 292 239 l 1,8,-1
 370 239 l 1,9,-1
 370 397 l 1,10,-1
 47 463 l 1,11,-1
 43 463 l 1,12,-1
 43 568 l 1,13,-1
 131 658 l 1,14,-1
 490 658 l 1,15,-1
 490 568 l 1,16,-1
 169 568 l 1,0,-1
385 101 m 1,17,-1
 385 138 l 1,18,-1
 360 164 l 1,19,-1
 322 164 l 1,20,-1
 297 138 l 1,21,-1
 297 101 l 1,22,-1
 322 75 l 1,23,-1
 360 75 l 1,24,-1
 385 101 l 1,17,-1
EndSplineSet
EndChar
StartChar: uni0E24
Encoding: 3620 3620 247
Width: 674
VWidth: 1661
Flags: W
HStem: 0 75<178 216> 164 75<178 216> 568 90<174 458>
VStem: 76 90<239 367> 495 90<-299 530>
Fore
495 658 m 1,0,-1
 585 568 l 1,1,-1
 585 -299 l 1,2,-1
 495 -299 l 1,3,-1
 495 530 l 1,4,-1
 458 568 l 1,5,-1
 174 568 l 1,6,-1
 271 472 l 1,7,-1
 166 367 l 1,8,-1
 166 239 l 1,9,-1
 246 239 l 1,10,-1
 316 169 l 1,11,-1
 316 70 l 1,12,-1
 246 0 l 1,13,-1
 148 0 l 1,14,-1
 76 70 l 1,15,-1
 76 404 l 1,16,-1
 145 472 l 1,17,-1
 47 568 l 1,18,-1
 136 658 l 1,19,-1
 495 658 l 1,0,-1
216 164 m 1,20,-1
 178 164 l 1,21,-1
 153 138 l 1,22,-1
 153 101 l 1,23,-1
 178 75 l 1,24,-1
 216 75 l 1,25,-1
 241 101 l 1,26,-1
 241 138 l 1,27,-1
 216 164 l 1,20,-1
EndSplineSet
EndChar
StartChar: uni0E25
Encoding: 3621 3621 248
Width: 672
VWidth: 1661
Flags: W
HStem: 0 21G<125 264 493 583> 374 89<201 362> 568 90<171 457>
VStem: 75 89<239 336> 493 90<0 243 359 532>
Fore
493 658 m 1,0,-1
 583 568 l 1,1,-1
 583 0 l 1,2,-1
 493 0 l 1,3,-1
 493 243 l 1,4,-1
 362 374 l 1,5,-1
 201 374 l 1,6,-1
 164 336 l 1,7,-1
 164 239 l 1,8,-1
 244 239 l 1,9,-1
 314 169 l 1,10,-1
 314 70 l 1,11,-1
 244 0 l 1,12,-1
 145 0 l 1,13,-1
 75 70 l 1,14,-1
 75 374 l 1,15,-1
 164 463 l 1,16,-1
 389 463 l 1,17,-1
 493 359 l 1,18,-1
 493 532 l 1,19,-1
 457 568 l 1,20,-1
 171 568 l 1,21,-1
 135 530 l 1,22,-1
 135 493 l 1,23,-1
 45 493 l 1,24,-1
 45 568 l 1,25,-1
 135 658 l 1,26,-1
 493 658 l 1,0,-1
213 164 m 1,27,-1
 176 164 l 1,28,-1
 150 138 l 1,29,-1
 150 101 l 1,30,-1
 176 75 l 1,31,-1
 213 75 l 1,32,-1
 239 101 l 1,33,-1
 239 138 l 1,34,-1
 213 164 l 1,27,-1
EndSplineSet
EndChar
StartChar: uni0E26
Encoding: 3622 3622 249
Width: 759
VWidth: 1661
Flags: W
HStem: 0 75<115 153> 164 75<115 153> 568 90<261 545>
VStem: 163 90<239 367> 581 90<-299 530>
Fore
581 658 m 1,0,-1
 671 568 l 1,1,-1
 671 -299 l 1,2,-1
 581 -299 l 1,3,-1
 581 530 l 1,4,-1
 545 568 l 1,5,-1
 261 568 l 1,6,-1
 357 472 l 1,7,-1
 253 367 l 1,8,-1
 253 70 l 1,9,-1
 183 0 l 1,10,-1
 85 0 l 1,11,-1
 13 70 l 1,12,-1
 13 169 l 1,13,-1
 85 239 l 1,14,-1
 163 239 l 1,15,-1
 163 404 l 1,16,-1
 231 472 l 1,17,-1
 133 568 l 1,18,-1
 223 658 l 1,19,-1
 581 658 l 1,0,-1
178 101 m 1,20,-1
 178 138 l 1,21,-1
 153 164 l 1,22,-1
 115 164 l 1,23,-1
 90 138 l 1,24,-1
 90 101 l 1,25,-1
 115 75 l 1,26,-1
 153 75 l 1,27,-1
 178 101 l 1,20,-1
EndSplineSet
EndChar
StartChar: uni0E27
Encoding: 3623 3623 250
Width: 609
VWidth: 1661
Flags: W
HStem: 0 21G<332 472> 566 90<171 395>
VStem: 43 479<492 568 560 590> 282 75<100 138> 432 90<238 530> 447 75<100 138>
Fore
434 656 m 1,0,-1
 522 568 l 1,1,-1
 522 70 l 1,2,-1
 452 0 l 1,3,-1
 352 0 l 1,4,-1
 282 70 l 1,5,-1
 282 168 l 1,6,-1
 352 238 l 1,7,-1
 432 238 l 1,8,-1
 432 530 l 1,9,-1
 395 566 l 1,10,-1
 171 566 l 1,11,-1
 133 530 l 1,12,-1
 133 492 l 1,13,-1
 43 492 l 1,14,-1
 43 566 l 1,15,-1
 133 656 l 1,16,-1
 434 656 l 1,0,-1
447 100 m 1,17,-1
 447 138 l 1,18,-1
 420 163 l 1,19,-1
 384 163 l 1,20,-1
 357 138 l 1,21,-1
 357 100 l 1,22,-1
 384 75 l 1,23,-1
 420 75 l 1,24,-1
 447 100 l 1,17,-1
EndSplineSet
EndChar
StartChar: uni0E28
Encoding: 3624 3624 251
Width: 719
VWidth: 1661
Flags: W
HStem: 0 21G<78 168 527 616> 568 90<204 490>
VStem: 78 90<0 218 334 532> 527 89<0 532>
Fore
646 684 m 1,0,-1
 573 611 l 1,1,-1
 616 568 l 1,2,-1
 616 0 l 1,3,-1
 527 0 l 1,4,-1
 527 532 l 1,5,-1
 490 568 l 1,6,-1
 204 568 l 1,7,-1
 168 532 l 1,8,-1
 168 334 l 1,9,-1
 297 463 l 1,10,-1
 397 463 l 1,11,-1
 467 394 l 1,12,-1
 467 294 l 1,13,-1
 397 224 l 1,14,-1
 297 224 l 1,15,-1
 238 286 l 1,16,-1
 168 218 l 1,17,-1
 168 0 l 1,18,-1
 78 0 l 1,19,-1
 78 568 l 1,20,-1
 168 658 l 1,21,-1
 493 658 l 1,22,-1
 583 748 l 1,23,-1
 646 684 l 1,0,-1
302 362 m 1,24,-1
 302 326 l 1,25,-1
 329 299 l 1,26,-1
 365 299 l 1,27,-1
 392 326 l 1,28,-1
 392 362 l 1,29,-1
 365 389 l 1,30,-1
 329 389 l 1,31,-1
 302 362 l 1,24,-1
EndSplineSet
EndChar
StartChar: uni0E29
Encoding: 3625 3625 252
Width: 730
VWidth: 1661
Flags: W
HStem: 0 90<289 515> 224 75<384 420 522 552> 638 20G<63.5556 202.444 552 641>
VStem: 163 90<126 419> 552 89<126 224 299 658>
Fore
552 658 m 1,0,-1
 641 658 l 1,1,-1
 641 90 l 1,2,-1
 552 0 l 1,3,-1
 253 0 l 1,4,-1
 163 90 l 1,5,-1
 163 419 l 1,6,-1
 83 419 l 1,7,-1
 13 488 l 1,8,-1
 13 586 l 1,9,-1
 83 658 l 1,10,-1
 183 658 l 1,11,-1
 253 586 l 1,12,-1
 253 126 l 1,13,-1
 289 90 l 1,14,-1
 515 90 l 1,15,-1
 552 126 l 1,16,-1
 552 224 l 1,17,-1
 352 224 l 1,18,-1
 282 294 l 1,19,-1
 282 392 l 1,20,-1
 352 463 l 1,21,-1
 450 463 l 1,22,-1
 522 394 l 1,23,-1
 522 299 l 1,24,-1
 552 299 l 1,25,-1
 552 658 l 1,0,-1
420 299 m 1,26,-1
 447 326 l 1,27,-1
 447 362 l 1,28,-1
 420 389 l 1,29,-1
 384 389 l 1,30,-1
 357 362 l 1,31,-1
 357 326 l 1,32,-1
 384 299 l 1,33,-1
 420 299 l 1,26,-1
115 493 m 1,34,-1
 151 493 l 1,35,-1
 178 520 l 1,36,-1
 178 557 l 1,37,-1
 151 583 l 1,38,-1
 115 583 l 1,39,-1
 88 557 l 1,40,-1
 88 520 l 1,41,-1
 115 493 l 1,34,-1
EndSplineSet
EndChar
StartChar: uni0E2A
Encoding: 3626 3626 253
Width: 672
VWidth: 1661
Flags: W
HStem: 0 21G<125 264 493 583> 372 90<201 362> 566 90<171 457>
VStem: 75 75<100 138> 75 89<238 336> 239 75<100 138> 493 90<0 243 359 530>
Fore
613 688 m 1,0,-1
 538 613 l 1,1,-1
 583 568 l 1,2,-1
 583 0 l 1,3,-1
 493 0 l 1,4,-1
 493 243 l 1,5,-1
 362 372 l 1,6,-1
 201 372 l 1,7,-1
 164 336 l 1,8,-1
 164 238 l 1,9,-1
 244 238 l 1,10,-1
 314 168 l 1,11,-1
 314 70 l 1,12,-1
 244 0 l 1,13,-1
 145 0 l 1,14,-1
 75 70 l 1,15,-1
 75 372 l 1,16,-1
 164 462 l 1,17,-1
 389 462 l 1,18,-1
 493 359 l 1,19,-1
 493 530 l 1,20,-1
 457 566 l 1,21,-1
 171 566 l 1,22,-1
 135 530 l 1,23,-1
 135 493 l 1,24,-1
 45 493 l 1,25,-1
 45 566 l 1,26,-1
 135 656 l 1,27,-1
 465 656 l 1,28,-1
 555 746 l 1,29,-1
 613 688 l 1,0,-1
176 163 m 1,30,-1
 150 138 l 1,31,-1
 150 100 l 1,32,-1
 176 75 l 1,33,-1
 213 75 l 1,34,-1
 239 100 l 1,35,-1
 239 138 l 1,36,-1
 213 163 l 1,37,-1
 176 163 l 1,30,-1
EndSplineSet
EndChar
StartChar: uni0E2B
Encoding: 3627 3627 254
Width: 760
VWidth: 1661
Flags: W
HStem: 0 21G<163 270.103 581 671> 581 75<115 151 533 570>
VStem: 13 75<518 557> 163 90<126 417> 178 75<518 557> 432 75<518 557> 581 90<0 339> 596 75<518 557>
Fore
671 586 m 1,0,-1
 671 487 l 1,1,-1
 605 420 l 1,2,-1
 671 354 l 1,3,-1
 671 0 l 1,4,-1
 581 0 l 1,5,-1
 581 339 l 1,6,-1
 560 359 l 1,7,-1
 253 0 l 1,8,-1
 163 0 l 1,9,-1
 163 417 l 1,10,-1
 83 417 l 1,11,-1
 13 488 l 1,12,-1
 13 586 l 1,13,-1
 83 656 l 1,14,-1
 183 656 l 1,15,-1
 253 586 l 1,16,-1
 253 126 l 1,17,-1
 502 417 l 1,18,-1
 432 488 l 1,19,-1
 432 586 l 1,20,-1
 502 656 l 1,21,-1
 601 656 l 1,22,-1
 671 586 l 1,0,-1
115 493 m 1,23,-1
 151 493 l 1,24,-1
 178 518 l 1,25,-1
 178 557 l 1,26,-1
 151 581 l 1,27,-1
 115 581 l 1,28,-1
 88 557 l 1,29,-1
 88 518 l 1,30,-1
 115 493 l 1,23,-1
507 557 m 1,31,-1
 507 518 l 1,32,-1
 533 493 l 1,33,-1
 570 493 l 1,34,-1
 596 518 l 1,35,-1
 596 557 l 1,36,-1
 570 581 l 1,37,-1
 533 581 l 1,38,-1
 507 557 l 1,31,-1
EndSplineSet
EndChar
StartChar: uni0E2C
Encoding: 3628 3628 255
Width: 759
VWidth: 1661
Flags: W
HStem: 0 21G<163 265.519 568.481 671> 636 20G<63 203>
VStem: 13 75<518 557> 163 90<154 417> 178 75<518 557> 432 75<548 586> 581 90<154 447>
Fore
671 517 m 1,0,-1
 671 0 l 1,1,-1
 581 0 l 1,2,-1
 417 262 l 1,3,-1
 253 0 l 1,4,-1
 163 0 l 1,5,-1
 163 417 l 1,6,-1
 83 417 l 1,7,-1
 13 488 l 1,8,-1
 13 586 l 1,9,-1
 83 656 l 1,10,-1
 183 656 l 1,11,-1
 253 586 l 1,12,-1
 253 154 l 1,13,-1
 417 417 l 1,14,-1
 581 154 l 1,15,-1
 581 447 l 1,16,-1
 502 447 l 1,17,-1
 432 517 l 1,18,-1
 432 616 l 1,19,-1
 502 686 l 1,20,-1
 600 686 l 1,21,-1
 661 625 l 1,22,-1
 724 686 l 1,23,-1
 782 630 l 1,24,-1
 671 517 l 1,0,-1
533 523 m 1,25,-1
 570 523 l 1,26,-1
 596 548 l 1,27,-1
 596 586 l 1,28,-1
 570 611 l 1,29,-1
 533 611 l 1,30,-1
 507 586 l 1,31,-1
 507 548 l 1,32,-1
 533 523 l 1,25,-1
115 493 m 1,33,-1
 151 493 l 1,34,-1
 178 518 l 1,35,-1
 178 557 l 1,36,-1
 151 581 l 1,37,-1
 115 581 l 1,38,-1
 88 557 l 1,39,-1
 88 518 l 1,40,-1
 115 493 l 1,33,-1
EndSplineSet
Substitution2: "Single Substitution lookup 22 subtable" uni0E2C.alt1
Substitution2: "Single Substitution lookup 22 subtable" uni0E2C.alt1
EndChar
StartChar: uni0E2D
Encoding: 3629 3629 256
Width: 674
VWidth: 1661
Flags: W
HStem: 0 90<203 457> 208 76<176 214> 372 75<176 214> 566 90<173 457>
VStem: 76 75<309 347> 76 88<126 208> 239 75<309 347> 493 90<126 530>
Fore
495 656 m 1,0,-1
 583 568 l 1,1,-1
 583 90 l 1,2,-1
 493 0 l 1,3,-1
 164 0 l 1,4,-1
 76 90 l 1,5,-1
 76 377 l 1,6,-1
 146 447 l 1,7,-1
 244 447 l 1,8,-1
 314 377 l 1,9,-1
 314 279 l 1,10,-1
 244 208 l 1,11,-1
 164 208 l 1,12,-1
 164 126 l 1,13,-1
 203 90 l 1,14,-1
 457 90 l 1,15,-1
 493 126 l 1,16,-1
 493 530 l 1,17,-1
 457 566 l 1,18,-1
 173 566 l 1,19,-1
 135 530 l 1,20,-1
 135 492 l 1,21,-1
 47 492 l 1,22,-1
 47 566 l 1,23,-1
 135 656 l 1,24,-1
 495 656 l 1,0,-1
151 347 m 1,25,-1
 151 309 l 1,26,-1
 176 284 l 1,27,-1
 214 284 l 1,28,-1
 239 309 l 1,29,-1
 239 347 l 1,30,-1
 214 372 l 1,31,-1
 176 372 l 1,32,-1
 151 347 l 1,25,-1
EndSplineSet
EndChar
StartChar: uni0E2E
Encoding: 3630 3630 257
Width: 666
VWidth: 1661
Flags: W
HStem: 0 90<194 450> 432 75<164 309> 566 90<164 369>
VStem: 68 75<249 287> 233 74<249 287> 487 89<126 530>
Fore
606 688 m 1,0,-1
 532 613 l 1,1,-1
 576 568 l 1,2,-1
 576 90 l 1,3,-1
 487 0 l 1,4,-1
 158 0 l 1,5,-1
 68 90 l 1,6,-1
 68 317 l 1,7,-1
 138 387 l 1,8,-1
 238 387 l 1,9,-1
 307 317 l 1,10,-1
 307 219 l 1,11,-1
 238 148 l 1,12,-1
 158 148 l 1,13,-1
 158 126 l 1,14,-1
 194 90 l 1,15,-1
 450 90 l 1,16,-1
 487 126 l 1,17,-1
 487 530 l 1,18,-1
 468 550 l 1,19,-1
 352 432 l 1,20,-1
 113 432 l 1,21,-1
 38 507 l 1,22,-1
 38 566 l 1,23,-1
 128 656 l 1,24,-1
 458 656 l 1,25,-1
 548 746 l 1,26,-1
 606 688 l 1,0,-1
143 287 m 1,27,-1
 143 249 l 1,28,-1
 169 224 l 1,29,-1
 206 224 l 1,30,-1
 233 249 l 1,31,-1
 233 287 l 1,32,-1
 206 312 l 1,33,-1
 169 312 l 1,34,-1
 143 287 l 1,27,-1
309 507 m 1,35,-1
 369 566 l 1,36,-1
 164 566 l 1,37,-1
 135 537 l 1,38,-1
 164 507 l 1,39,-1
 309 507 l 1,35,-1
EndSplineSet
EndChar
StartChar: uni0E2F
Encoding: 3631 3631 258
Width: 588
VWidth: 1661
Flags: W
HStem: 0 21G<410 500> 638 20G<101.556 240.444 410 500>
VStem: 410 90<0 493 620 658>
Fore
410 658 m 1,0,-1
 500 658 l 1,1,-1
 500 0 l 1,2,-1
 410 0 l 1,3,-1
 410 493 l 1,4,-1
 336 419 l 1,5,-1
 121 419 l 1,6,-1
 51 488 l 1,7,-1
 51 586 l 1,8,-1
 121 658 l 1,9,-1
 221 658 l 1,10,-1
 291 586 l 1,11,-1
 291 508 l 1,12,-1
 297 508 l 1,13,-1
 410 620 l 1,14,-1
 410 658 l 1,0,-1
153 493 m 1,15,-1
 189 493 l 1,16,-1
 216 520 l 1,17,-1
 216 557 l 1,18,-1
 189 583 l 1,19,-1
 153 583 l 1,20,-1
 126 557 l 1,21,-1
 126 520 l 1,22,-1
 153 493 l 1,15,-1
EndSplineSet
EndChar
StartChar: uni0E30
Encoding: 3632 3632 259
Width: 551
VWidth: 1661
Flags: W
HStem: 0 90<261 349> 417 90<261 349>
VStem: 51 412<478 515 551 564> 51 75<91 116 510 535> 186 75<91 116 510 535>
Fore
365 417 m 1,0,-1
 113 417 l 1,1,-1
 51 478 l 1,2,-1
 51 565 l 1,3,-1
 113 626 l 1,4,-1
 199 626 l 1,5,-1
 261 565 l 1,6,-1
 261 507 l 1,7,-1
 349 507 l 1,8,-1
 410 568 l 1,9,-1
 463 515 l 1,10,-1
 365 417 l 1,0,-1
126 535 m 1,11,-1
 126 510 l 1,12,-1
 145 492 l 1,13,-1
 168 492 l 1,14,-1
 186 510 l 1,15,-1
 186 535 l 1,16,-1
 168 552 l 1,17,-1
 145 552 l 1,18,-1
 126 535 l 1,11,-1
349 90 m 1,19,-1
 410 150 l 1,20,-1
 463 96 l 1,21,-1
 365 0 l 1,22,-1
 113 0 l 1,23,-1
 51 60 l 1,24,-1
 51 148 l 1,25,-1
 113 208 l 1,26,-1
 199 208 l 1,27,-1
 261 148 l 1,28,-1
 261 90 l 1,29,-1
 349 90 l 1,19,-1
186 91 m 1,30,-1
 186 116 l 1,31,-1
 168 133 l 1,32,-1
 145 133 l 1,33,-1
 126 116 l 1,34,-1
 126 91 l 1,35,-1
 145 75 l 1,36,-1
 168 75 l 1,37,-1
 186 91 l 1,30,-1
EndSplineSet
EndChar
StartChar: uni0E31
Encoding: 3633 3633 260
Width: 0
VWidth: 1661
Flags: W
HStem: 756 90<-246 -68> 756 209<-394 -380 -321 -307>
Fore
-8 907 m 1,0,-1
 45 854 l 1,1,-1
 -51 756 l 1,2,-1
 -394 756 l 1,3,-1
 -455 817 l 1,4,-1
 -455 904 l 1,5,-1
 -394 965 l 1,6,-1
 -307 965 l 1,7,-1
 -246 904 l 1,8,-1
 -246 846 l 1,9,-1
 -68 846 l 1,10,-1
 -8 907 l 1,0,-1
-339 831 m 1,11,-1
 -321 849 l 1,12,-1
 -321 872 l 1,13,-1
 -339 890 l 1,14,-1
 -364 890 l 1,15,-1
 -380 872 l 1,16,-1
 -380 849 l 1,17,-1
 -364 831 l 1,18,-1
 -339 831 l 1,11,-1
EndSplineSet
Substitution2: "Single Substitution lookup 22 subtable" uni0E31.alt1
Substitution2: "Single Substitution lookup 22 subtable" uni0E31.alt1
EndChar
StartChar: uni0E32
Encoding: 3634 3634 261
Width: 611
VWidth: 1661
Flags: W
HStem: 0 21G<432 522> 568 90<169 395>
VStem: 432 90<0 532>
Fore
432 658 m 1,0,-1
 522 568 l 1,1,-1
 522 0 l 1,2,-1
 432 0 l 1,3,-1
 432 532 l 1,4,-1
 395 568 l 1,5,-1
 169 568 l 1,6,-1
 133 530 l 1,7,-1
 133 493 l 1,8,-1
 43 493 l 1,9,-1
 43 568 l 1,10,-1
 133 658 l 1,11,-1
 432 658 l 1,0,-1
EndSplineSet
EndChar
StartChar: uni0E33
Encoding: 3635 3635 262
Width: 611
VWidth: 1661
Flags: W
HStem: 0 21G<432 522> 568 90<169 395>
VStem: -355 74<857 894> 432 90<0 532>
Fore
432 658 m 1,0,-1
 522 568 l 1,1,-1
 522 0 l 1,2,-1
 432 0 l 1,3,-1
 432 532 l 1,4,-1
 395 568 l 1,5,-1
 169 568 l 1,6,-1
 133 530 l 1,7,-1
 133 493 l 1,8,-1
 43 493 l 1,9,-1
 43 568 l 1,10,-1
 133 658 l 1,11,-1
 432 658 l 1,0,-1
-286 995 m 1,12,-1
 -188 995 l 1,13,-1
 -116 925 l 1,14,-1
 -116 826 l 1,15,-1
 -188 756 l 1,16,-1
 -286 756 l 1,17,-1
 -355 826 l 1,18,-1
 -355 925 l 1,19,-1
 -286 995 l 1,12,-1
-191 857 m 1,20,-1
 -191 894 l 1,21,-1
 -218 920 l 1,22,-1
 -254 920 l 1,23,-1
 -281 894 l 1,24,-1
 -281 857 l 1,25,-1
 -254 831 l 1,26,-1
 -218 831 l 1,27,-1
 -191 857 l 1,20,-1
EndSplineSet
Substitution2: "Single Substitution lookup 22 subtable" uni0E33.alt1
Substitution2: "Single Substitution lookup 22 subtable" uni0E33.alt1
EndChar
StartChar: uni0E34
Encoding: 3636 3636 263
Width: 0
VWidth: 1661
Flags: W
HStem: 758 194<-181 -90 -107 -181> 758 74<-522 -166> 877 75<-477 -211>
Fore
-181 952 m 1,0,-1
 -90 862 l 1,1,-1
 -90 758 l 1,2,-1
 -598 758 l 1,3,-1
 -598 862 l 1,4,-1
 -508 952 l 1,5,-1
 -181 952 l 1,0,-1
-522 832 m 1,6,-1
 -166 832 l 1,7,-1
 -211 877 l 1,8,-1
 -477 877 l 1,9,-1
 -522 832 l 1,6,-1
EndSplineSet
Substitution2: "Single Substitution lookup 22 subtable" uni0E34.alt1
Substitution2: "Single Substitution lookup 22 subtable" uni0E34.alt1
EndChar
StartChar: uni0E35
Encoding: 3637 3637 264
Width: 0
VWidth: 1661
Flags: W
HStem: 758 74<-522 -164> 758 269<-164 -90> 877 75<-477 -209>
VStem: -164 74<937 1027>
Fore
-90 1027 m 1,0,-1
 -90 758 l 1,1,-1
 -596 758 l 1,2,-1
 -596 862 l 1,3,-1
 -507 952 l 1,4,-1
 -179 952 l 1,5,-1
 -164 937 l 1,6,-1
 -164 1027 l 1,7,-1
 -90 1027 l 1,0,-1
-522 832 m 1,8,-1
 -164 832 l 1,9,-1
 -209 877 l 1,10,-1
 -477 877 l 1,11,-1
 -522 832 l 1,8,-1
EndSplineSet
Substitution2: "Single Substitution lookup 22 subtable" uni0E35.alt1
Substitution2: "Single Substitution lookup 22 subtable" uni0E35.alt1
EndChar
StartChar: uni0E36
Encoding: 3638 3638 265
Width: 0
VWidth: 1661
Flags: W
HStem: 758 74<-522 -166> 758 269<-111 -98> 877 75<-477 -246>
Fore
-98 1027 m 1,0,-1
 -37 965 l 1,1,-1
 -37 879 l 1,2,-1
 -90 826 l 1,3,-1
 -90 758 l 1,4,-1
 -598 758 l 1,5,-1
 -598 862 l 1,6,-1
 -508 952 l 1,7,-1
 -246 952 l 1,8,-1
 -246 965 l 1,9,-1
 -184 1027 l 1,10,-1
 -98 1027 l 1,0,-1
-154 952 m 1,11,-1
 -171 935 l 1,12,-1
 -171 910 l 1,13,-1
 -154 892 l 1,14,-1
 -130 892 l 1,15,-1
 -111 910 l 1,16,-1
 -111 935 l 1,17,-1
 -130 952 l 1,18,-1
 -154 952 l 1,11,-1
-522 832 m 1,19,-1
 -166 832 l 1,20,-1
 -211 877 l 1,21,-1
 -477 877 l 1,22,-1
 -522 832 l 1,19,-1
EndSplineSet
Substitution2: "Single Substitution lookup 22 subtable" uni0E36.alt1
Substitution2: "Single Substitution lookup 22 subtable" uni0E36.alt1
EndChar
StartChar: uni0E37
Encoding: 3639 3639 266
Width: 0
VWidth: 1661
Flags: W
HStem: 758 74<-522 -166> 758 269<-164 -90> 877 75<-477 -284>
VStem: -284 75<952 1027> -164 74<937 1027>
Fore
-90 1027 m 1,0,-1
 -90 758 l 1,1,-1
 -598 758 l 1,2,-1
 -598 862 l 1,3,-1
 -507 952 l 1,4,-1
 -284 952 l 1,5,-1
 -284 1027 l 1,6,-1
 -209 1027 l 1,7,-1
 -209 952 l 1,8,-1
 -179 952 l 1,9,-1
 -164 937 l 1,10,-1
 -164 1027 l 1,11,-1
 -90 1027 l 1,0,-1
-522 832 m 1,12,-1
 -166 832 l 1,13,-1
 -211 877 l 1,14,-1
 -477 877 l 1,15,-1
 -522 832 l 1,12,-1
EndSplineSet
Substitution2: "Single Substitution lookup 22 subtable" uni0E37.alt1
Substitution2: "Single Substitution lookup 22 subtable" uni0E37.alt1
EndChar
StartChar: uni0E38
Encoding: 3640 3640 267
Width: 0
VWidth: 1661
Flags: W
HStem: -375 328<-163 -150>
VStem: -297 209<-194 -181 -121 -108> -178 90<-375 -256>
Fore
-150 -47 m 1,0,-1
 -88 -108 l 1,1,-1
 -88 -375 l 1,2,-1
 -178 -375 l 1,3,-1
 -178 -256 l 1,4,-1
 -236 -256 l 1,5,-1
 -297 -194 l 1,6,-1
 -297 -108 l 1,7,-1
 -236 -47 l 1,8,-1
 -150 -47 l 1,0,-1
-206 -181 m 1,9,-1
 -181 -181 l 1,10,-1
 -163 -164 l 1,11,-1
 -163 -140 l 1,12,-1
 -181 -121 l 1,13,-1
 -206 -121 l 1,14,-1
 -223 -140 l 1,15,-1
 -223 -164 l 1,16,-1
 -206 -181 l 1,9,-1
EndSplineSet
Substitution2: "Single Substitution lookup 21 subtable" a
Substitution2: "Single Substitution lookup 22 subtable" uni0E38.alt1
Substitution2: "Single Substitution lookup 21 subtable" a
Substitution2: "Single Substitution lookup 22 subtable" uni0E38.alt1
EndChar
StartChar: uni0E39
Encoding: 3641 3641 268
Width: 0
VWidth: 1661
Flags: W
HStem: -377 90<-241 -181>
VStem: -181 90<-287 -48 -377 -48 -287 -287>
Fore
-181 -48 m 1,0,-1
 -91 -48 l 1,1,-1
 -91 -377 l 1,2,-1
 -331 -377 l 1,3,-1
 -331 -257 l 1,4,-1
 -389 -257 l 1,5,-1
 -450 -198 l 1,6,-1
 -450 -110 l 1,7,-1
 -389 -48 l 1,8,-1
 -302 -48 l 1,9,-1
 -241 -110 l 1,10,-1
 -241 -287 l 1,11,-1
 -181 -287 l 1,12,-1
 -181 -48 l 1,0,-1
-357 -183 m 1,13,-1
 -332 -183 l 1,14,-1
 -316 -166 l 1,15,-1
 -316 -141 l 1,16,-1
 -332 -123 l 1,17,-1
 -357 -123 l 1,18,-1
 -375 -141 l 1,19,-1
 -375 -166 l 1,20,-1
 -357 -183 l 1,13,-1
EndSplineSet
Substitution2: "Single Substitution lookup 21 subtable" b
Substitution2: "Single Substitution lookup 22 subtable" uni0E39.alt1
Substitution2: "Single Substitution lookup 21 subtable" b
Substitution2: "Single Substitution lookup 22 subtable" uni0E39.alt1
EndChar
StartChar: uni0E3A
Encoding: 3642 3642 269
Width: 0
VWidth: 1661
Flags: W
HStem: -168 120<-169 -120 -169 -120 -169 -169>
VStem: -204 119<-131 -83 -131 -83 -131 -131>
Fore
-85 -83 m 1,0,-1
 -85 -131 l 1,1,-1
 -120 -168 l 1,2,-1
 -169 -168 l 1,3,-1
 -204 -131 l 1,4,-1
 -204 -83 l 1,5,-1
 -169 -48 l 1,6,-1
 -120 -48 l 1,7,-1
 -85 -83 l 1,0,-1
EndSplineSet
Substitution2: "Single Substitution lookup 21 subtable" c
Substitution2: "Single Substitution lookup 22 subtable" uni0E3A.alt1
Substitution2: "Single Substitution lookup 21 subtable" c
Substitution2: "Single Substitution lookup 22 subtable" uni0E3A.alt1
EndChar
StartChar: uni0E3F
Encoding: 3647 3647 270
Width: 588
VWidth: 1661
Flags: W
HStem: 0 90<135 209 299 395> 314 90<135 209 299 367> 628 90<135 209 299 365>
VStem: 45 90<90 314 404 628> 209 90<-60 0 90 314 404 628 718 777> 404 89<440 591> 434 89<126 277>
CounterMasks: 1 e0
Fore
463 374 m 1,0,-1
 523 314 l 1,1,-1
 523 90 l 1,2,-1
 434 0 l 1,3,-1
 299 0 l 1,4,-1
 299 -60 l 1,5,-1
 209 -60 l 1,6,-1
 209 0 l 1,7,-1
 45 0 l 1,8,-1
 45 718 l 1,9,-1
 209 718 l 1,10,-1
 209 777 l 1,11,-1
 299 777 l 1,12,-1
 299 718 l 1,13,-1
 404 718 l 1,14,-1
 493 628 l 1,15,-1
 493 404 l 1,16,-1
 463 374 l 1,0,-1
365 628 m 1,17,-1
 299 628 l 1,18,-1
 299 404 l 1,19,-1
 367 404 l 1,20,-1
 404 440 l 1,21,-1
 404 591 l 1,22,-1
 365 628 l 1,17,-1
209 628 m 1,23,-1
 135 628 l 1,24,-1
 135 404 l 1,25,-1
 209 404 l 1,26,-1
 209 628 l 1,23,-1
135 90 m 1,27,-1
 209 90 l 1,28,-1
 209 314 l 1,29,-1
 135 314 l 1,30,-1
 135 90 l 1,27,-1
434 126 m 1,31,-1
 434 277 l 1,32,-1
 395 314 l 1,33,-1
 299 314 l 1,34,-1
 299 90 l 1,35,-1
 395 90 l 1,36,-1
 434 126 l 1,31,-1
EndSplineSet
EndChar
StartChar: uni0E40
Encoding: 3648 3648 271
Width: 340
VWidth: 1661
Flags: W
HStem: 0 75<159 198> 163 75<159 198> 636 20G<58 148>
VStem: 58 90<238 656> 58 239<70 75 163 168> 223 74<100 138>
Fore
228 238 m 1,0,-1
 297 168 l 1,1,-1
 297 70 l 1,2,-1
 228 0 l 1,3,-1
 130 0 l 1,4,-1
 58 70 l 1,5,-1
 58 656 l 1,6,-1
 148 656 l 1,7,-1
 148 238 l 1,8,-1
 228 238 l 1,0,-1
223 100 m 1,9,-1
 223 138 l 1,10,-1
 198 163 l 1,11,-1
 159 163 l 1,12,-1
 135 138 l 1,13,-1
 135 100 l 1,14,-1
 159 75 l 1,15,-1
 198 75 l 1,16,-1
 223 100 l 1,9,-1
EndSplineSet
EndChar
StartChar: uni0E41
Encoding: 3649 3649 272
Width: 621
VWidth: 1661
Flags: W
HStem: 0 75<159 196 444 480> 164 75<159 196 444 480> 638 20G<58 148 342 432>
VStem: 58 90<239 658> 223 74<101 138> 342 90<239 658> 507 74<101 138>
Fore
148 239 m 1,0,-1
 228 239 l 1,1,-1
 297 169 l 1,2,-1
 297 70 l 1,3,-1
 228 0 l 1,4,-1
 128 0 l 1,5,-1
 58 70 l 1,6,-1
 58 658 l 1,7,-1
 148 658 l 1,8,-1
 148 239 l 1,0,-1
223 101 m 1,9,-1
 223 138 l 1,10,-1
 196 164 l 1,11,-1
 159 164 l 1,12,-1
 133 138 l 1,13,-1
 133 101 l 1,14,-1
 159 75 l 1,15,-1
 196 75 l 1,16,-1
 223 101 l 1,9,-1
512 239 m 1,17,-1
 581 169 l 1,18,-1
 581 70 l 1,19,-1
 512 0 l 1,20,-1
 412 0 l 1,21,-1
 342 70 l 1,22,-1
 342 658 l 1,23,-1
 432 658 l 1,24,-1
 432 239 l 1,25,-1
 512 239 l 1,17,-1
507 101 m 1,26,-1
 507 138 l 1,27,-1
 480 164 l 1,28,-1
 444 164 l 1,29,-1
 417 138 l 1,30,-1
 417 101 l 1,31,-1
 444 75 l 1,32,-1
 480 75 l 1,33,-1
 507 101 l 1,26,-1
EndSplineSet
EndChar
StartChar: uni0E42
Encoding: 3650 3650 273
Width: 498
VWidth: 1661
Flags: W
HStem: 0 21G<266 405> 927 90<73 336>
VStem: 216 90<239 767>
Fore
385 239 m 1,0,-1
 455 169 l 1,1,-1
 455 70 l 1,2,-1
 385 0 l 1,3,-1
 286 0 l 1,4,-1
 216 70 l 1,5,-1
 216 767 l 1,6,-1
 -53 867 l 1,7,-1
 -53 927 l 1,8,-1
 37 1017 l 1,9,-1
 336 1017 l 1,10,-1
 336 927 l 1,11,-1
 73 927 l 1,12,-1
 60 914 l 1,13,-1
 306 822 l 1,14,-1
 306 239 l 1,15,-1
 385 239 l 1,0,-1
380 101 m 1,16,-1
 380 138 l 1,17,-1
 354 164 l 1,18,-1
 317 164 l 1,19,-1
 291 138 l 1,20,-1
 291 101 l 1,21,-1
 317 75 l 1,22,-1
 354 75 l 1,23,-1
 380 101 l 1,16,-1
EndSplineSet
EndChar
StartChar: uni0E43
Encoding: 3651 3651 274
Width: 509
VWidth: 1661
Flags: W
HStem: 0 21G<277.286 417> 927 90<128 191>
VStem: -56 74<804 841> 228 74<101 138> 228 89<239 890>
Fore
397 239 m 1,0,-1
 467 169 l 1,1,-1
 467 70 l 1,2,-1
 397 0 l 1,3,-1
 297 0 l 1,4,-1
 228 70 l 1,5,-1
 228 890 l 1,6,-1
 191 927 l 1,7,-1
 128 927 l 1,8,-1
 183 872 l 1,9,-1
 183 772 l 1,10,-1
 113 703 l 1,11,-1
 13 703 l 1,12,-1
 -56 772 l 1,13,-1
 -56 927 l 1,14,-1
 33 1017 l 1,15,-1
 228 1017 l 1,16,-1
 317 927 l 1,17,-1
 317 239 l 1,18,-1
 397 239 l 1,0,-1
108 804 m 1,19,-1
 108 841 l 1,20,-1
 81 867 l 1,21,-1
 45 867 l 1,22,-1
 18 841 l 1,23,-1
 18 804 l 1,24,-1
 45 777 l 1,25,-1
 81 777 l 1,26,-1
 108 804 l 1,19,-1
392 101 m 1,27,-1
 392 138 l 1,28,-1
 365 164 l 1,29,-1
 329 164 l 1,30,-1
 302 138 l 1,31,-1
 302 101 l 1,32,-1
 329 75 l 1,33,-1
 365 75 l 1,34,-1
 392 101 l 1,27,-1
EndSplineSet
EndChar
StartChar: uni0E44
Encoding: 3652 3652 275
Width: 496
VWidth: 1661
Flags: W
HStem: 0 21G<264 404> 927 90<-55 38>
VStem: 214 90<239 910 1015 1017>
Fore
384 239 m 1,0,-1
 454 169 l 1,1,-1
 454 70 l 1,2,-1
 384 0 l 1,3,-1
 284 0 l 1,4,-1
 214 70 l 1,5,-1
 214 910 l 1,6,-1
 135 831 l 1,7,-1
 38 927 l 1,8,-1
 -55 927 l 1,9,-1
 -55 1017 l 1,10,-1
 55 1017 l 1,11,-1
 135 935 l 1,12,-1
 214 1015 l 1,13,-1
 214 1017 l 1,14,-1
 304 1017 l 1,15,-1
 304 239 l 1,16,-1
 384 239 l 1,0,-1
379 101 m 1,17,-1
 379 138 l 1,18,-1
 352 164 l 1,19,-1
 316 164 l 1,20,-1
 289 138 l 1,21,-1
 289 101 l 1,22,-1
 316 75 l 1,23,-1
 352 75 l 1,24,-1
 379 101 l 1,17,-1
EndSplineSet
EndChar
StartChar: uni0E45
Encoding: 3653 3653 276
Width: 611
VWidth: 1661
Flags: W
HStem: 568 90<171 395>
VStem: 45 477<493 568 493 493> 432 90<-301 532>
Fore
434 658 m 1,0,-1
 522 568 l 1,1,-1
 522 -301 l 1,2,-1
 432 -301 l 1,3,-1
 432 532 l 1,4,-1
 395 568 l 1,5,-1
 171 568 l 1,6,-1
 133 532 l 1,7,-1
 133 493 l 1,8,-1
 45 493 l 1,9,-1
 45 568 l 1,10,-1
 133 658 l 1,11,-1
 434 658 l 1,0,-1
EndSplineSet
EndChar
StartChar: uni0E46
Encoding: 3654 3654 277
Width: 589
VWidth: 1661
Flags: W
HStem: 568 90<178 253 342 374>
VStem: 51 75<415 454> 216 75<415 454> 410 90<-297 532>
Fore
410 658 m 1,0,-1
 500 570 l 1,1,-1
 500 -297 l 1,2,-1
 410 -297 l 1,3,-1
 410 532 l 1,4,-1
 374 568 l 1,5,-1
 342 568 l 1,6,-1
 297 523 l 1,7,-1
 253 568 l 1,8,-1
 178 568 l 1,9,-1
 163 553 l 1,10,-1
 219 553 l 1,11,-1
 291 483 l 1,12,-1
 291 385 l 1,13,-1
 219 314 l 1,14,-1
 121 314 l 1,15,-1
 51 385 l 1,16,-1
 51 568 l 1,17,-1
 141 658 l 1,18,-1
 269 658 l 1,19,-1
 297 630 l 1,20,-1
 327 658 l 1,21,-1
 410 658 l 1,0,-1
216 454 m 1,22,-1
 189 478 l 1,23,-1
 153 478 l 1,24,-1
 126 454 l 1,25,-1
 126 415 l 1,26,-1
 153 390 l 1,27,-1
 189 390 l 1,28,-1
 216 415 l 1,29,-1
 216 454 l 1,22,-1
EndSplineSet
EndChar
StartChar: uni0E47
Encoding: 3655 3655 278
Width: 0
VWidth: 1661
Flags: W
HStem: 756 301<-178 -168 -34 -168> 935 75<-384 -294>
VStem: -505 75<846 889> -505 389<817 831 756 1003 756 756>
Fore
-115 1003 m 1,0,-1
 -164 954 l 1,1,-1
 -116 904 l 1,2,-1
 -116 817 l 1,3,-1
 -178 756 l 1,4,-1
 -355 756 l 1,5,-1
 -385 786 l 1,6,-1
 -414 756 l 1,7,-1
 -505 756 l 1,8,-1
 -505 920 l 1,9,-1
 -415 1010 l 1,10,-1
 -214 1010 l 1,11,-1
 -168 1057 l 1,12,-1
 -115 1003 l 1,0,-1
-385 890 m 1,13,-1
 -326 831 l 1,14,-1
 -326 904 l 1,15,-1
 -294 935 l 1,16,-1
 -384 935 l 1,17,-1
 -430 889 l 1,18,-1
 -430 846 l 1,19,-1
 -385 890 l 1,13,-1
-191 849 m 1,20,-1
 -191 872 l 1,21,-1
 -208 890 l 1,22,-1
 -233 890 l 1,23,-1
 -251 872 l 1,24,-1
 -251 849 l 1,25,-1
 -233 831 l 1,26,-1
 -208 831 l 1,27,-1
 -191 849 l 1,20,-1
EndSplineSet
Substitution2: "Single Substitution lookup 22 subtable" uni0E47.alt1
Substitution2: "Single Substitution lookup 22 subtable" uni0E47.alt1
EndChar
StartChar: uni0E48
Encoding: 3656 3656 279
Width: 0
VWidth: 1661
Flags: W
HStem: 1065 269<-163 -88 -163 -88 -163 -163>
VStem: -163 75<1065 1334>
Fore
-163 1065 m 1,0,-1
 -163 1334 l 1,1,-1
 -88 1334 l 1,2,-1
 -88 1065 l 1,3,-1
 -163 1065 l 1,0,-1
EndSplineSet
Substitution2: "Single Substitution lookup 22 subtable" uni0E48.alt2
Substitution2: "Single Substitution lookup 22 subtable" uni0E48.alt2
EndChar
StartChar: uni0E49
Encoding: 3657 3657 280
Width: 0
VWidth: 1661
Flags: W
HStem: 1063 75<-359 -312 -196 -135>
VStem: -359 412<1063 1221 1136 1149>
Fore
0 1272 m 1,0,-1
 53 1221 l 1,1,-1
 -105 1063 l 1,2,-1
 -359 1063 l 1,3,-1
 -359 1138 l 1,4,-1
 -312 1138 l 1,5,-1
 -359 1184 l 1,6,-1
 -359 1271 l 1,7,-1
 -297 1332 l 1,8,-1
 -211 1332 l 1,9,-1
 -150 1271 l 1,10,-1
 -150 1184 l 1,11,-1
 -196 1138 l 1,12,-1
 -135 1138 l 1,13,-1
 0 1272 l 1,0,-1
-284 1241 m 1,14,-1
 -284 1216 l 1,15,-1
 -266 1198 l 1,16,-1
 -241 1198 l 1,17,-1
 -224 1216 l 1,18,-1
 -224 1241 l 1,19,-1
 -241 1258 l 1,20,-1
 -266 1258 l 1,21,-1
 -284 1241 l 1,14,-1
EndSplineSet
Substitution2: "Single Substitution lookup 22 subtable" uni0E49.alt2
Substitution2: "Single Substitution lookup 22 subtable" uni0E49.alt2
EndChar
StartChar: uni0E4A
Encoding: 3658 3658 281
Width: 0
VWidth: 1661
Flags: W
HStem: 1065 224<-292 -68 -305 -292>
VStem: -354 457<1141 1236 1128 1141>
Fore
55 1284 m 1,0,-1
 103 1236 l 1,1,-1
 -68 1065 l 1,2,-1
 -116 1113 l 1,3,-1
 -70 1160 l 1,4,-1
 -98 1188 l 1,5,-1
 -206 1080 l 1,6,-1
 -292 1080 l 1,7,-1
 -354 1141 l 1,8,-1
 -354 1228 l 1,9,-1
 -292 1289 l 1,10,-1
 -206 1289 l 1,11,-1
 -154 1238 l 1,12,-1
 -103 1289 l 1,13,-1
 -22 1208 l 1,14,-1
 55 1284 l 1,0,-1
-279 1173 m 1,15,-1
 -261 1155 l 1,16,-1
 -238 1155 l 1,17,-1
 -219 1173 l 1,18,-1
 -219 1198 l 1,19,-1
 -236 1214 l 1,20,-1
 -261 1214 l 1,21,-1
 -279 1198 l 1,22,-1
 -279 1173 l 1,15,-1
EndSplineSet
Substitution2: "Single Substitution lookup 22 subtable" uni0E4A.alt2
Substitution2: "Single Substitution lookup 22 subtable" uni0E4A.alt2
EndChar
StartChar: uni0E4B
Encoding: 3659 3659 282
Width: 0
VWidth: 1661
Flags: W
HStem: 1148 75<-246 -164 -90 -7 -246 -7 -246 -246>
VStem: -164 74<1065 1148 1223 1304>
Fore
-7 1223 m 1,0,-1
 -7 1148 l 1,1,-1
 -90 1148 l 1,2,-1
 -90 1065 l 1,3,-1
 -164 1065 l 1,4,-1
 -164 1148 l 1,5,-1
 -246 1148 l 1,6,-1
 -246 1223 l 1,7,-1
 -164 1223 l 1,8,-1
 -164 1304 l 1,9,-1
 -90 1304 l 1,10,-1
 -90 1223 l 1,11,-1
 -7 1223 l 1,0,-1
EndSplineSet
Substitution2: "Single Substitution lookup 22 subtable" uni0E4B.alt2
Substitution2: "Single Substitution lookup 22 subtable" uni0E4B.alt2
EndChar
StartChar: uni0E4C
Encoding: 3660 3660 283
Width: 0
VWidth: 1661
Flags: W
HStem: 985 331<-151 -118 -131 -118>
VStem: -299 234<1047 1263 1034 1047>
Fore
-65 1263 m 1,0,-1
 -141 1184 l 1,1,-1
 -90 1133 l 1,2,-1
 -90 1047 l 1,3,-1
 -151 985 l 1,4,-1
 -238 985 l 1,5,-1
 -299 1047 l 1,6,-1
 -299 1133 l 1,7,-1
 -118 1316 l 1,8,-1
 -65 1263 l 1,0,-1
-183 1120 m 1,9,-1
 -208 1120 l 1,10,-1
 -224 1103 l 1,11,-1
 -224 1078 l 1,12,-1
 -208 1060 l 1,13,-1
 -183 1060 l 1,14,-1
 -164 1078 l 1,15,-1
 -164 1103 l 1,16,-1
 -183 1120 l 1,9,-1
EndSplineSet
Substitution2: "Single Substitution lookup 22 subtable" uni0E4C.alt2
Substitution2: "Single Substitution lookup 22 subtable" uni0E4C.alt2
EndChar
StartChar: uni0E4D
Encoding: 3661 3661 284
Width: 0
VWidth: 1661
Flags: W
HStem: 756 209<-266 -253 -193 -179>
VStem: -327 209<817 831 890 904 817 904 817 817>
Fore
-179 965 m 1,0,-1
 -118 904 l 1,1,-1
 -118 817 l 1,2,-1
 -179 756 l 1,3,-1
 -266 756 l 1,4,-1
 -327 817 l 1,5,-1
 -327 904 l 1,6,-1
 -266 965 l 1,7,-1
 -179 965 l 1,0,-1
-209 831 m 1,8,-1
 -193 849 l 1,9,-1
 -193 872 l 1,10,-1
 -209 890 l 1,11,-1
 -234 890 l 1,12,-1
 -253 872 l 1,13,-1
 -253 849 l 1,14,-1
 -234 831 l 1,15,-1
 -209 831 l 1,8,-1
EndSplineSet
Substitution2: "Single Substitution lookup 22 subtable" uni0E4D.alt1
Substitution2: "Single Substitution lookup 22 subtable" uni0E4D.alt1
EndChar
StartChar: uni0E4E
Encoding: 3662 3662 285
Width: 0
VWidth: 1661
Flags: W
HStem: 756 284<-191 -116 -116 -116> 950 90<-80 18>
VStem: -281 90<756 839>
Fore
-116 1040 m 1,0,-1
 18 1040 l 1,1,-1
 18 950 l 1,2,-1
 -80 950 l 1,3,-1
 -86 944 l 1,4,-1
 -86 846 l 1,5,-1
 -184 846 l 1,6,-1
 -191 839 l 1,7,-1
 -191 756 l 1,8,-1
 -281 756 l 1,9,-1
 -281 875 l 1,10,-1
 -221 935 l 1,11,-1
 -176 935 l 1,12,-1
 -176 980 l 1,13,-1
 -116 1040 l 1,0,-1
EndSplineSet
Substitution2: "Single Substitution lookup 22 subtable" uni0E4E.alt1
Substitution2: "Single Substitution lookup 22 subtable" uni0E4E.alt1
EndChar
StartChar: uni0E4F
Encoding: 3663 3663 286
Width: 644
VWidth: 1661
Flags: W
HStem: 0 478<402 402 397 402> 0 75<236 372> 404 74<236 372>
VStem: 65 478<140 337 135 140> 65 75<171 307> 468 75<171 307>
Fore
254 359 m 1,0,-1
 354 359 l 1,1,-1
 424 289 l 1,2,-1
 424 189 l 1,3,-1
 354 120 l 1,4,-1
 254 120 l 1,5,-1
 184 189 l 1,6,-1
 184 289 l 1,7,-1
 254 359 l 1,0,-1
349 221 m 1,8,-1
 349 257 l 1,9,-1
 322 284 l 1,10,-1
 286 284 l 1,11,-1
 259 257 l 1,12,-1
 259 221 l 1,13,-1
 286 194 l 1,14,-1
 322 194 l 1,15,-1
 349 221 l 1,8,-1
402 478 m 1,16,-1
 543 337 l 1,17,-1
 543 140 l 1,18,-1
 402 0 l 1,19,-1
 204 0 l 1,20,-1
 65 140 l 1,21,-1
 65 337 l 1,22,-1
 204 478 l 1,23,-1
 402 478 l 1,16,-1
468 171 m 1,24,-1
 468 307 l 1,25,-1
 372 404 l 1,26,-1
 236 404 l 1,27,-1
 140 307 l 1,28,-1
 140 171 l 1,29,-1
 236 75 l 1,30,-1
 372 75 l 1,31,-1
 468 171 l 1,24,-1
EndSplineSet
EndChar
StartChar: uni0E50
Encoding: 3664 3664 287
Width: 699
VWidth: 1661
Flags: W
HStem: 0 90<184 468> 389 89<184 468>
VStem: 56 90<126 351> 505 90<126 351>
Fore
505 478 m 1,0,-1
 595 389 l 1,1,-1
 595 88 l 1,2,-1
 507 0 l 1,3,-1
 146 0 l 1,4,-1
 56 90 l 1,5,-1
 56 389 l 1,6,-1
 146 478 l 1,7,-1
 505 478 l 1,0,-1
505 126 m 1,8,-1
 505 351 l 1,9,-1
 468 389 l 1,10,-1
 184 389 l 1,11,-1
 146 351 l 1,12,-1
 146 126 l 1,13,-1
 184 90 l 1,14,-1
 468 90 l 1,15,-1
 505 126 l 1,8,-1
EndSplineSet
EndChar
StartChar: uni0E51
Encoding: 3665 3665 288
Width: 672
VWidth: 1661
Flags: W
HStem: 0 21G<115 354> 389 89<171 457>
VStem: 45 90<126 352> 493 90<81 351>
Fore
493 478 m 1,0,-1
 583 389 l 1,1,-1
 583 45 l 1,2,-1
 478 -60 l 1,3,-1
 415 3 l 1,4,-1
 493 81 l 1,5,-1
 493 351 l 1,6,-1
 457 389 l 1,7,-1
 171 389 l 1,8,-1
 135 352 l 1,9,-1
 135 126 l 1,10,-1
 164 96 l 1,11,-1
 164 169 l 1,12,-1
 234 239 l 1,13,-1
 334 239 l 1,14,-1
 404 169 l 1,15,-1
 404 70 l 1,16,-1
 334 0 l 1,17,-1
 135 0 l 1,18,-1
 45 90 l 1,19,-1
 45 389 l 1,20,-1
 135 478 l 1,21,-1
 493 478 l 1,0,-1
239 138 m 1,22,-1
 239 101 l 1,23,-1
 266 75 l 1,24,-1
 302 75 l 1,25,-1
 329 101 l 1,26,-1
 329 138 l 1,27,-1
 302 164 l 1,28,-1
 266 164 l 1,29,-1
 239 138 l 1,22,-1
EndSplineSet
EndChar
StartChar: uni0E52
Encoding: 3666 3666 289
Width: 790
VWidth: 1661
Flags: W
HStem: 0 75<169 575> 120 74<294 331> 389 89<319 417 566 575>
VStem: 43 90<111 568> 611 90<111 351>
Fore
701 389 m 1,0,-1
 701 88 l 1,1,-1
 611 0 l 1,2,-1
 133 0 l 1,3,-1
 43 90 l 1,4,-1
 43 568 l 1,5,-1
 133 568 l 1,6,-1
 133 111 l 1,7,-1
 169 75 l 1,8,-1
 575 75 l 1,9,-1
 611 111 l 1,10,-1
 611 351 l 1,11,-1
 575 389 l 1,12,-1
 566 389 l 1,13,-1
 492 314 l 1,14,-1
 417 389 l 1,15,-1
 319 389 l 1,16,-1
 289 359 l 1,17,-1
 362 359 l 1,18,-1
 432 289 l 1,19,-1
 432 189 l 1,20,-1
 362 120 l 1,21,-1
 262 120 l 1,22,-1
 193 189 l 1,23,-1
 193 389 l 1,24,-1
 282 478 l 1,25,-1
 454 478 l 1,26,-1
 492 440 l 1,27,-1
 530 478 l 1,28,-1
 611 478 l 1,29,-1
 701 389 l 1,0,-1
331 284 m 1,30,-1
 294 284 l 1,31,-1
 267 257 l 1,32,-1
 267 221 l 1,33,-1
 294 194 l 1,34,-1
 331 194 l 1,35,-1
 357 221 l 1,36,-1
 357 257 l 1,37,-1
 331 284 l 1,30,-1
EndSplineSet
EndChar
StartChar: uni0E53
Encoding: 3667 3667 290
Width: 762
VWidth: 1661
Flags: W
HStem: 0 75<146 184> 164 75<146 184> 389 89<173 307 470 547>
VStem: 47 74<101 138> 47 88<239 352> 344 90<0 351> 583 90<0 351>
Fore
583 478 m 1,0,-1
 673 389 l 1,1,-1
 673 0 l 1,2,-1
 583 0 l 1,3,-1
 583 351 l 1,4,-1
 547 389 l 1,5,-1
 470 389 l 1,6,-1
 434 352 l 1,7,-1
 434 0 l 1,8,-1
 344 0 l 1,9,-1
 344 351 l 1,10,-1
 307 389 l 1,11,-1
 173 389 l 1,12,-1
 135 352 l 1,13,-1
 135 239 l 1,14,-1
 214 239 l 1,15,-1
 284 169 l 1,16,-1
 284 70 l 1,17,-1
 214 0 l 1,18,-1
 116 0 l 1,19,-1
 47 70 l 1,20,-1
 47 389 l 1,21,-1
 135 478 l 1,22,-1
 344 478 l 1,23,-1
 389 434 l 1,24,-1
 434 478 l 1,25,-1
 583 478 l 1,0,-1
184 164 m 1,26,-1
 146 164 l 1,27,-1
 121 138 l 1,28,-1
 121 101 l 1,29,-1
 146 75 l 1,30,-1
 184 75 l 1,31,-1
 209 101 l 1,32,-1
 209 138 l 1,33,-1
 184 164 l 1,26,-1
EndSplineSet
EndChar
StartChar: uni0E54
Encoding: 3668 3668 291
Width: 702
VWidth: 1661
Flags: W
HStem: 0 90<171 309 425 613> 269 75<324 362> 387 90<171 518>
VStem: 45 90<126 351>
Fore
402 113 m 1,0,-1
 425 90 l 1,1,-1
 613 90 l 1,2,-1
 613 0 l 1,3,-1
 135 0 l 1,4,-1
 45 88 l 1,5,-1
 45 389 l 1,6,-1
 135 477 l 1,7,-1
 518 477 l 1,8,-1
 608 568 l 1,9,-1
 673 503 l 1,10,-1
 557 387 l 1,11,-1
 171 387 l 1,12,-1
 135 351 l 1,13,-1
 135 126 l 1,14,-1
 171 90 l 1,15,-1
 309 90 l 1,16,-1
 224 174 l 1,17,-1
 224 274 l 1,18,-1
 294 344 l 1,19,-1
 394 344 l 1,20,-1
 463 274 l 1,21,-1
 463 174 l 1,22,-1
 402 113 l 1,0,-1
299 243 m 1,23,-1
 299 206 l 1,24,-1
 324 179 l 1,25,-1
 362 179 l 1,26,-1
 387 206 l 1,27,-1
 387 243 l 1,28,-1
 362 269 l 1,29,-1
 324 269 l 1,30,-1
 299 243 l 1,23,-1
EndSplineSet
EndChar
StartChar: uni0E55
Encoding: 3669 3669 292
Width: 701
VWidth: 1661
Flags: W
HStem: 0 90<169 307 424 611> 387 90<169 223 324 360 462 518>
VStem: 43 90<126 351> 223 74<206 243 505 542> 387 75<206 243 505 542>
Fore
400 113 m 1,0,-1
 424 90 l 1,1,-1
 611 90 l 1,2,-1
 611 0 l 1,3,-1
 133 0 l 1,4,-1
 43 88 l 1,5,-1
 43 389 l 1,6,-1
 133 477 l 1,7,-1
 223 477 l 1,8,-1
 223 571 l 1,9,-1
 292 643 l 1,10,-1
 392 643 l 1,11,-1
 462 571 l 1,12,-1
 462 477 l 1,13,-1
 518 477 l 1,14,-1
 608 568 l 1,15,-1
 671 503 l 1,16,-1
 555 387 l 1,17,-1
 169 387 l 1,18,-1
 133 351 l 1,19,-1
 133 126 l 1,20,-1
 169 90 l 1,21,-1
 307 90 l 1,22,-1
 223 174 l 1,23,-1
 223 274 l 1,24,-1
 292 344 l 1,25,-1
 392 344 l 1,26,-1
 462 274 l 1,27,-1
 462 174 l 1,28,-1
 400 113 l 1,0,-1
297 243 m 1,29,-1
 297 206 l 1,30,-1
 324 179 l 1,31,-1
 360 179 l 1,32,-1
 387 206 l 1,33,-1
 387 243 l 1,34,-1
 360 269 l 1,35,-1
 324 269 l 1,36,-1
 297 243 l 1,29,-1
297 542 m 1,37,-1
 297 505 l 1,38,-1
 324 478 l 1,39,-1
 360 478 l 1,40,-1
 387 505 l 1,41,-1
 387 542 l 1,42,-1
 360 568 l 1,43,-1
 324 568 l 1,44,-1
 297 542 l 1,37,-1
EndSplineSet
EndChar
StartChar: uni0E56
Encoding: 3670 3670 293
Width: 770
VWidth: 1661
Flags: W
HStem: 0 75<274 312> 0 90<412 555> 164 75<274 312> 387 90<211 555>
VStem: 591 90<126 351>
Fore
593 477 m 1,0,-1
 681 389 l 1,1,-1
 681 90 l 1,2,-1
 591 0 l 1,3,-1
 244 0 l 1,4,-1
 173 70 l 1,5,-1
 173 168 l 1,6,-1
 244 239 l 1,7,-1
 342 239 l 1,8,-1
 412 168 l 1,9,-1
 412 90 l 1,10,-1
 555 90 l 1,11,-1
 591 126 l 1,12,-1
 591 351 l 1,13,-1
 555 387 l 1,14,-1
 173 387 l 1,15,-1
 58 503 l 1,16,-1
 121 568 l 1,17,-1
 211 477 l 1,18,-1
 593 477 l 1,0,-1
312 75 m 1,19,-1
 337 101 l 1,20,-1
 337 138 l 1,21,-1
 312 164 l 1,22,-1
 274 164 l 1,23,-1
 249 138 l 1,24,-1
 249 101 l 1,25,-1
 274 75 l 1,26,-1
 312 75 l 1,19,-1
EndSplineSet
EndChar
StartChar: uni0E57
Encoding: 3671 3671 294
Width: 850
VWidth: 1661
Flags: W
HStem: 0 21G<93 232.714 522 630.133> 389 89<169 253 402 483>
VStem: 43 90<239 352> 208 74<101 138> 522 89<126 351> 671 90<186 566>
Fore
671 566 m 1,0,-1
 761 566 l 1,1,-1
 761 150 l 1,2,-1
 610 0 l 1,3,-1
 522 0 l 1,4,-1
 522 351 l 1,5,-1
 483 389 l 1,6,-1
 402 389 l 1,7,-1
 327 314 l 1,8,-1
 253 389 l 1,9,-1
 169 389 l 1,10,-1
 133 352 l 1,11,-1
 133 239 l 1,12,-1
 213 239 l 1,13,-1
 282 169 l 1,14,-1
 282 70 l 1,15,-1
 213 0 l 1,16,-1
 113 0 l 1,17,-1
 43 70 l 1,18,-1
 43 389 l 1,19,-1
 133 478 l 1,20,-1
 289 478 l 1,21,-1
 327 440 l 1,22,-1
 364 478 l 1,23,-1
 522 478 l 1,24,-1
 611 389 l 1,25,-1
 611 126 l 1,26,-1
 671 186 l 1,27,-1
 671 566 l 1,0,-1
181 164 m 1,28,-1
 145 164 l 1,29,-1
 118 138 l 1,30,-1
 118 101 l 1,31,-1
 145 75 l 1,32,-1
 181 75 l 1,33,-1
 208 101 l 1,34,-1
 208 138 l 1,35,-1
 181 164 l 1,28,-1
EndSplineSet
EndChar
StartChar: uni0E58
Encoding: 3672 3672 295
Width: 757
VWidth: 1661
Flags: W
HStem: 0 21G<125.545 166.208 319 605> 387 91<183 528>
VStem: 56 90<126 351>
Fore
183 387 m 1,0,-1
 146 351 l 1,1,-1
 146 126 l 1,2,-1
 243 223 l 1,3,-1
 377 90 l 1,4,-1
 415 90 l 1,5,-1
 415 168 l 1,6,-1
 485 239 l 1,7,-1
 585 239 l 1,8,-1
 655 168 l 1,9,-1
 655 70 l 1,10,-1
 585 0 l 1,11,-1
 339 0 l 1,12,-1
 243 96 l 1,13,-1
 146 0 l 1,14,-1
 56 88 l 1,15,-1
 56 389 l 1,16,-1
 146 478 l 1,17,-1
 528 478 l 1,18,-1
 618 568 l 1,19,-1
 681 503 l 1,20,-1
 565 389 l 1,21,-1
 565 387 l 1,22,-1
 565 389 l 1,23,-1
 565 387 l 1,24,-1
 183 387 l 1,0,-1
490 101 m 1,25,-1
 517 75 l 1,26,-1
 553 75 l 1,27,-1
 580 101 l 1,28,-1
 580 138 l 1,29,-1
 553 164 l 1,30,-1
 517 164 l 1,31,-1
 490 138 l 1,32,-1
 490 101 l 1,25,-1
EndSplineSet
EndChar
StartChar: uni0E59
Encoding: 3673 3673 296
Width: 717
VWidth: 1661
Flags: W
HStem: 0 21G<116.222 351.286 608.103 648> 389 89<173 241 468 513>
VStem: 47 89<126 352>
Fore
136 352 m 1,0,-1
 136 126 l 1,1,-1
 163 100 l 1,2,-1
 163 169 l 1,3,-1
 233 239 l 1,4,-1
 331 239 l 1,5,-1
 402 169 l 1,6,-1
 402 70 l 1,7,-1
 331 0 l 1,8,-1
 136 0 l 1,9,-1
 47 90 l 1,10,-1
 47 389 l 1,11,-1
 136 478 l 1,12,-1
 267 478 l 1,13,-1
 349 395 l 1,14,-1
 432 478 l 1,15,-1
 513 478 l 1,16,-1
 603 568 l 1,17,-1
 666 503 l 1,18,-1
 550 389 l 1,19,-1
 468 389 l 1,20,-1
 412 332 l 1,21,-1
 686 58 l 1,22,-1
 628 0 l 1,23,-1
 241 389 l 1,24,-1
 173 389 l 1,25,-1
 136 352 l 1,0,-1
238 138 m 1,26,-1
 238 101 l 1,27,-1
 264 75 l 1,28,-1
 301 75 l 1,29,-1
 327 101 l 1,30,-1
 327 138 l 1,31,-1
 301 164 l 1,32,-1
 264 164 l 1,33,-1
 238 138 l 1,26,-1
EndSplineSet
EndChar
StartChar: uni0E5A
Encoding: 3674 3674 297
Width: 759
VWidth: 1661
Flags: W
HStem: 0 21G<370 460 580 669> 419 74<113 151> 583 75<113 151>
VStem: 370 90<0 419 620 658> 580 89<0 493 620 658>
Fore
580 658 m 1,0,-1
 669 658 l 1,1,-1
 669 0 l 1,2,-1
 580 0 l 1,3,-1
 580 493 l 1,4,-1
 505 419 l 1,5,-1
 460 419 l 1,6,-1
 460 0 l 1,7,-1
 370 0 l 1,8,-1
 370 493 l 1,9,-1
 296 419 l 1,10,-1
 83 419 l 1,11,-1
 12 488 l 1,12,-1
 12 588 l 1,13,-1
 83 658 l 1,14,-1
 181 658 l 1,15,-1
 251 588 l 1,16,-1
 251 508 l 1,17,-1
 259 508 l 1,18,-1
 370 620 l 1,19,-1
 370 658 l 1,20,-1
 460 658 l 1,21,-1
 460 508 l 1,22,-1
 468 508 l 1,23,-1
 580 620 l 1,24,-1
 580 658 l 1,0,-1
113 493 m 1,25,-1
 151 493 l 1,26,-1
 176 520 l 1,27,-1
 176 557 l 1,28,-1
 151 583 l 1,29,-1
 113 583 l 1,30,-1
 88 557 l 1,31,-1
 88 520 l 1,32,-1
 113 493 l 1,25,-1
EndSplineSet
EndChar
StartChar: uni0E5B
Encoding: 3675 3675 298
Width: 1237
VWidth: 1661
Flags: W
HStem: 75 477<133 447 201 231> 75 89<169 410> 463 89<169 291>
VStem: 43 90<201 425> 178 75<294 332> 342 75<294 332>
Fore
1020 384 m 1,0,-1
 1150 374 l 1,1,-1
 1150 344 l 1,2,-1
 970 316 l 1,3,-1
 889 234 l 1,4,-1
 806 317 l 1,5,-1
 723 234 l 1,6,-1
 641 317 l 1,7,-1
 558 234 l 1,8,-1
 552 243 l 1,9,-1
 552 179 l 1,10,-1
 447 75 l 1,11,-1
 133 75 l 1,12,-1
 43 164 l 1,13,-1
 43 463 l 1,14,-1
 133 552 l 1,15,-1
 327 552 l 1,16,-1
 417 463 l 1,17,-1
 417 264 l 1,18,-1
 347 194 l 1,19,-1
 248 194 l 1,20,-1
 178 264 l 1,21,-1
 178 362 l 1,22,-1
 248 434 l 1,23,-1
 321 434 l 1,24,-1
 291 463 l 1,25,-1
 169 463 l 1,26,-1
 133 425 l 1,27,-1
 133 201 l 1,28,-1
 169 164 l 1,29,-1
 410 164 l 1,30,-1
 462 216 l 1,31,-1
 462 447 l 1,32,-1
 558 351 l 1,33,-1
 641 432 l 1,34,-1
 723 351 l 1,35,-1
 806 432 l 1,36,-1
 889 351 l 1,37,-1
 970 432 l 1,38,-1
 1020 384 l 1,0,-1
342 332 m 1,39,-1
 316 357 l 1,40,-1
 279 357 l 1,41,-1
 253 332 l 1,42,-1
 253 294 l 1,43,-1
 279 269 l 1,44,-1
 316 269 l 1,45,-1
 342 294 l 1,46,-1
 342 332 l 1,39,-1
EndSplineSet
EndChar
StartChar: zerowidthnonjoiner
Encoding: 8204 8204 299
Width: 0
VWidth: 1661
Flags: W
VStem: -37 75<-512 399>
Fore
-37 399 m 1,0,-1
 38 399 l 1,1,-1
 38 -512 l 1,2,-1
 -37 -512 l 1,3,-1
 -37 399 l 1,0,-1
EndSplineSet
EndChar
StartChar: zerowidthjoiner
Encoding: 8205 8205 300
Width: 0
VWidth: 1661
Flags: W
VStem: -38 75<-512 218>
Fore
-63 400 m 1,0,1
 -50 385 -50 385 -37 372 c 0,2,3
 -27 360 -27 360 -16 350.5 c 128,-1,4
 -5 341 -5 341 -2 337 c 1,5,-1
 61 400 l 1,6,-1
 103 360 l 1,7,-1
 75 332 l 2,8,9
 63 321 63 321 53 310 c 128,-1,10
 43 299 43 299 40 296 c 1,11,-1
 103 233 l 1,12,-1
 61 193 l 1,13,14
 56 196 56 196 51 201 c 0,15,16
 48 204 48 204 44 209 c 128,-1,17
 40 214 40 214 37 218 c 1,18,-1
 37 -512 l 1,19,-1
 -38 -512 l 1,20,-1
 -38 218 l 1,21,-1
 -63 193 l 1,22,-1
 -105 233 l 1,23,-1
 -42 296 l 1,24,25
 -45 299 -45 299 -55 310 c 128,-1,26
 -65 321 -65 321 -76 332 c 2,27,-1
 -105 360 l 1,28,-1
 -63 400 l 1,0,1
EndSplineSet
EndChar
StartChar: lefttorightmark
Encoding: 8206 8206 301
Width: 0
VWidth: 1661
Flags: W
HStem: 271 76<38 174>
VStem: -37 75<-512 271>
Fore
193 409 m 1,0,-1
 292 309 l 1,1,-1
 193 208 l 1,2,-1
 154 251 l 1,3,4
 158 253 158 253 161 257 c 0,5,6
 164.5 260.5 l 0,7,-1
 174 271 l 1,8,-1
 38 271 l 1,9,-1
 38 -512 l 1,10,-1
 -37 -512 l 1,11,-1
 -37 347 l 1,12,-1
 174 347 l 1,13,14
 171 350.5 l 0,15,-1
 161 360 l 0,16,17
 156 365 156 365 154 369 c 1,18,-1
 193 409 l 1,0,-1
EndSplineSet
EndChar
StartChar: righttoleftmark
Encoding: 8207 8207 302
Width: 0
VWidth: 1661
Flags: W
HStem: 272 77<-173 -37>
VStem: -291 329<311 349 311 311> -37 75<-512 272>
Fore
-191 410 m 1,0,-1
 -153 370 l 1,1,-1
 -174 349 l 1,2,-1
 38 349 l 1,3,-1
 38 -512 l 1,4,-1
 -37 -512 l 1,5,-1
 -37 272 l 1,6,-1
 -173 272 l 1,7,-1
 -153 253 l 1,8,-1
 -191 209 l 1,9,-1
 -291 311 l 1,10,-1
 -191 410 l 1,0,-1
EndSplineSet
EndChar
StartChar: endash
Encoding: 8211 8211 303
Width: 586
VWidth: 1661
Flags: W
HStem: 314 90<50 498 50 498 50 50>
Fore
50 314 m 1,0,-1
 50 404 l 1,1,-1
 498 404 l 1,2,-1
 498 314 l 1,3,-1
 50 314 l 1,0,-1
EndSplineSet
EndChar
StartChar: emdash
Encoding: 8212 8212 304
Width: 883
VWidth: 1661
Flags: W
HStem: 314 90<48 794>
Fore
48 314 m 1,0,-1
 48 404 l 1,1,-1
 794 404 l 1,2,-1
 794 314 l 1,3,-1
 48 314 l 1,0,-1
EndSplineSet
EndChar
StartChar: quoteleft
Encoding: 8216 8216 305
Width: 287
VWidth: 1661
Flags: W
HStem: 508 240<138 148>
VStem: 48 150<552 613 552 748 552 552>
Fore
48 552 m 1,0,-1
 48 613 l 1,1,-1
 138 748 l 1,2,-1
 198 748 l 1,3,-1
 148 658 l 1,4,-1
 153 658 l 1,5,-1
 198 613 l 1,6,-1
 198 552 l 1,7,-1
 153 508 l 1,8,-1
 91 508 l 1,9,-1
 48 552 l 1,0,-1
EndSplineSet
EndChar
StartChar: quoteright
Encoding: 8217 8217 306
Width: 287
VWidth: 1661
Flags: W
HStem: 508 240<98 108>
VStem: 48 150<641 703 508 703 641 641>
Fore
198 703 m 1,0,-1
 198 641 l 1,1,-1
 108 508 l 1,2,-1
 48 508 l 1,3,-1
 98 598 l 1,4,-1
 93 598 l 1,5,-1
 48 641 l 1,6,-1
 48 703 l 1,7,-1
 93 748 l 1,8,-1
 154 748 l 1,9,-1
 198 703 l 1,0,-1
EndSplineSet
EndChar
StartChar: quotesinglbase
Encoding: 8218 8218 307
Width: 285
VWidth: 1661
Flags: W
HStem: -90 238<98 108>
VStem: 48 150<43 105 -90 105 43 43>
Fore
198 105 m 1,0,-1
 198 43 l 1,1,-1
 108 -90 l 1,2,-1
 48 -90 l 1,3,-1
 98 0 l 1,4,-1
 91 0 l 1,5,-1
 48 43 l 1,6,-1
 48 105 l 1,7,-1
 91 148 l 1,8,-1
 153 148 l 1,9,-1
 198 105 l 1,0,-1
EndSplineSet
EndChar
StartChar: quotedblleft
Encoding: 8220 8220 308
Width: 495
VWidth: 1661
Flags: W
HStem: 508 240<138 148 346 355>
VStem: 48 357<552 613 760 769>
Fore
138 748 m 1,0,-1
 196 748 l 1,1,-1
 148 658 l 1,2,-1
 153 658 l 1,3,-1
 196 613 l 1,4,-1
 196 552 l 1,5,-1
 153 508 l 1,6,-1
 91 508 l 1,7,-1
 48 552 l 1,8,-1
 48 613 l 1,9,-1
 138 748 l 1,0,-1
355 658 m 1,10,-1
 362 658 l 1,11,-1
 405 613 l 1,12,-1
 405 552 l 1,13,-1
 362 508 l 1,14,-1
 301 508 l 1,15,-1
 256 552 l 1,16,-1
 256 613 l 1,17,-1
 346 748 l 1,18,-1
 405 748 l 1,19,-1
 355 658 l 1,10,-1
EndSplineSet
EndChar
StartChar: quotedblright
Encoding: 8221 8221 309
Width: 495
VWidth: 1661
Flags: W
HStem: 508 240<98 108 307 317>
VStem: 48 359<508 703 724 734>
Fore
362 748 m 1,0,-1
 407 703 l 1,1,-1
 407 641 l 1,2,-1
 317 508 l 1,3,-1
 257 508 l 1,4,-1
 307 598 l 1,5,-1
 301 598 l 1,6,-1
 257 641 l 1,7,-1
 257 703 l 1,8,-1
 301 748 l 1,9,-1
 362 748 l 1,0,-1
91 748 m 1,10,-1
 153 748 l 1,11,-1
 198 703 l 1,12,-1
 198 641 l 1,13,-1
 108 508 l 1,14,-1
 48 508 l 1,15,-1
 98 598 l 1,16,-1
 91 598 l 1,17,-1
 48 641 l 1,18,-1
 48 703 l 1,19,-1
 91 748 l 1,10,-1
EndSplineSet
EndChar
StartChar: quotedblbase
Encoding: 8222 8222 310
Width: 495
VWidth: 1661
Flags: W
HStem: -90 238<96 106 306 316>
VStem: 47 358<-90 105 125 135>
Fore
91 148 m 1,0,-1
 153 148 l 1,1,-1
 196 105 l 1,2,-1
 196 43 l 1,3,-1
 106 -90 l 1,4,-1
 47 -90 l 1,5,-1
 96 0 l 1,6,-1
 91 0 l 1,7,-1
 47 43 l 1,8,-1
 47 105 l 1,9,-1
 91 148 l 1,0,-1
362 148 m 1,10,-1
 405 105 l 1,11,-1
 405 43 l 1,12,-1
 316 -90 l 1,13,-1
 256 -90 l 1,14,-1
 306 0 l 1,15,-1
 301 0 l 1,16,-1
 256 43 l 1,17,-1
 256 105 l 1,18,-1
 301 148 l 1,19,-1
 362 148 l 1,10,-1
EndSplineSet
EndChar
StartChar: dagger
Encoding: 8224 8224 311
Width: 551
VWidth: 1661
Flags: W
HStem: -209 21G<209 299> 404 89<45 209 299 463 45 463 45 45> 638 20G<209 299>
VStem: 209 90<-209 404 493 658>
Fore
463 493 m 1,0,-1
 463 404 l 1,1,-1
 299 404 l 1,2,-1
 299 -209 l 1,3,-1
 209 -209 l 1,4,-1
 209 404 l 1,5,-1
 45 404 l 1,6,-1
 45 493 l 1,7,-1
 209 493 l 1,8,-1
 209 658 l 1,9,-1
 299 658 l 1,10,-1
 299 493 l 1,11,-1
 463 493 l 1,0,-1
EndSplineSet
EndChar
StartChar: daggerdbl
Encoding: 8225 8225 312
Width: 551
VWidth: 1661
Flags: W
HStem: -209 21G<209 299> 164 90<45 209 299 462> 404 89<45 209 299 462> 638 20G<209 299>
VStem: 45 417<164 254 404 493 164 404 164 164> 209 90<-209 164 254 404 493 658>
Fore
462 404 m 1,0,-1
 299 404 l 1,1,-1
 299 254 l 1,2,-1
 462 254 l 1,3,-1
 462 164 l 1,4,-1
 299 164 l 1,5,-1
 299 -209 l 1,6,-1
 209 -209 l 1,7,-1
 209 164 l 1,8,-1
 45 164 l 1,9,-1
 45 254 l 1,10,-1
 209 254 l 1,11,-1
 209 404 l 1,12,-1
 45 404 l 1,13,-1
 45 493 l 1,14,-1
 209 493 l 1,15,-1
 209 658 l 1,16,-1
 299 658 l 1,17,-1
 299 493 l 1,18,-1
 462 493 l 1,19,-1
 462 404 l 1,0,-1
EndSplineSet
EndChar
StartChar: bullet
Encoding: 8226 8226 313
Width: 405
VWidth: 1661
Flags: W
HStem: 224 269<126 238 126 238 126 126>
VStem: 48 268<302 414 302 414 302 302>
Fore
316 414 m 1,0,-1
 316 302 l 1,1,-1
 238 224 l 1,2,-1
 126 224 l 1,3,-1
 48 302 l 1,4,-1
 48 414 l 1,5,-1
 126 493 l 1,6,-1
 238 493 l 1,7,-1
 316 414 l 1,0,-1
EndSplineSet
EndChar
StartChar: ellipsis
Encoding: 8230 8230 314
Width: 822
VWidth: 1661
Flags: W
HStem: 0 148<90 151 359 420 628 689>
Fore
90 148 m 1,0,-1
 151 148 l 1,1,-1
 196 105 l 1,2,-1
 196 43 l 1,3,-1
 151 0 l 1,4,-1
 90 0 l 1,5,-1
 47 43 l 1,6,-1
 47 105 l 1,7,-1
 90 148 l 1,0,-1
359 148 m 1,8,-1
 420 148 l 1,9,-1
 463 105 l 1,10,-1
 463 43 l 1,11,-1
 420 0 l 1,12,-1
 359 0 l 1,13,-1
 316 43 l 1,14,-1
 316 105 l 1,15,-1
 359 148 l 1,8,-1
689 148 m 1,16,-1
 733 105 l 1,17,-1
 733 43 l 1,18,-1
 689 0 l 1,19,-1
 628 0 l 1,20,-1
 583 43 l 1,21,-1
 583 105 l 1,22,-1
 628 148 l 1,23,-1
 689 148 l 1,16,-1
EndSplineSet
EndChar
StartChar: perthousand
Encoding: 8240 8240 315
Width: 1079
VWidth: 1661
Flags: W
HStem: 0 21G<108 222.337> 60 75<508 575 822 889> 254 75<508 575 822 889> 389 74<150 216> 583 75<150 216>
VStem: 48 75<490 557> 243 74<490 557> 407 76<161 228> 601 75<161 228> 721 75<161 228> 915 75<161 228>
Fore
477 329 m 1,0,-1
 606 329 l 1,1,-1
 676 259 l 1,2,-1
 676 130 l 1,3,-1
 606 60 l 1,4,-1
 477 60 l 1,5,-1
 407 130 l 1,6,-1
 407 259 l 1,7,-1
 477 329 l 1,0,-1
601 161 m 1,8,-1
 601 228 l 1,9,-1
 575 254 l 1,10,-1
 508 254 l 1,11,-1
 483 228 l 1,12,-1
 483 161 l 1,13,-1
 508 135 l 1,14,-1
 575 135 l 1,15,-1
 601 161 l 1,8,-1
920 329 m 1,16,-1
 990 259 l 1,17,-1
 990 130 l 1,18,-1
 920 60 l 1,19,-1
 791 60 l 1,20,-1
 721 130 l 1,21,-1
 721 259 l 1,22,-1
 791 329 l 1,23,-1
 920 329 l 1,16,-1
915 161 m 1,24,-1
 915 228 l 1,25,-1
 889 254 l 1,26,-1
 822 254 l 1,27,-1
 796 228 l 1,28,-1
 796 161 l 1,29,-1
 822 135 l 1,30,-1
 889 135 l 1,31,-1
 915 161 l 1,24,-1
515 718 m 1,32,-1
 618 718 l 1,33,-1
 211 0 l 1,34,-1
 108 0 l 1,35,-1
 515 718 l 1,32,-1
317 588 m 1,36,-1
 317 458 l 1,37,-1
 248 389 l 1,38,-1
 118 389 l 1,39,-1
 48 458 l 1,40,-1
 48 588 l 1,41,-1
 118 658 l 1,42,-1
 248 658 l 1,43,-1
 317 588 l 1,36,-1
243 557 m 1,44,-1
 216 583 l 1,45,-1
 150 583 l 1,46,-1
 123 557 l 1,47,-1
 123 490 l 1,48,-1
 150 463 l 1,49,-1
 216 463 l 1,50,-1
 243 490 l 1,51,-1
 243 557 l 1,44,-1
EndSplineSet
EndChar
StartChar: minute
Encoding: 8242 8242 316
Width: 225
VWidth: 1661
Flags: W
HStem: 566 150<48 78 18 138 48 48>
Fore
18 566 m 1,0,-1
 48 716 l 1,1,-1
 138 716 l 1,2,-1
 78 566 l 1,3,-1
 18 566 l 1,0,-1
EndSplineSet
EndChar
StartChar: second
Encoding: 8243 8243 317
Width: 362
VWidth: 1661
Flags: W
HStem: 566 150<48 78 183 213 18 272 48 48>
Fore
18 566 m 1,0,-1
 48 716 l 1,1,-1
 138 716 l 1,2,-1
 78 566 l 1,3,-1
 18 566 l 1,0,-1
183 716 m 1,4,-1
 272 716 l 1,5,-1
 213 566 l 1,6,-1
 153 566 l 1,7,-1
 183 716 l 1,4,-1
EndSplineSet
EndChar
StartChar: guilsinglleft
Encoding: 8249 8249 318
Width: 317
VWidth: 1661
Flags: W
HStem: 81 419<228 228 228 228>
VStem: 48 180<246 500 246 246>
Fore
228 500 m 1,0,-1
 228 379 l 1,1,-1
 133 291 l 1,2,-1
 228 203 l 1,3,-1
 228 81 l 1,4,-1
 48 246 l 1,5,-1
 48 334 l 1,6,-1
 228 500 l 1,0,-1
EndSplineSet
EndChar
StartChar: guilsinglright
Encoding: 8250 8250 319
Width: 315
VWidth: 1661
Flags: W
HStem: 81 419<47 47 47 47>
VStem: 47 179<334 500 500 500>
Fore
47 500 m 1,0,-1
 226 334 l 1,1,-1
 226 246 l 1,2,-1
 47 81 l 1,3,-1
 47 203 l 1,4,-1
 143 291 l 1,5,-1
 47 379 l 1,6,-1
 47 500 l 1,0,-1
EndSplineSet
EndChar
StartChar: fraction
Encoding: 8260 8260 320
Width: 634
VWidth: 1661
Flags: W
HStem: 0 21G<37 151.337>
Fore
444 718 m 1,0,-1
 547 718 l 1,1,-1
 140 0 l 1,2,-1
 37 0 l 1,3,-1
 444 718 l 1,0,-1
EndSplineSet
EndChar
StartChar: Euro
Encoding: 8364 8364 321
Width: 760
VWidth: 1661
Flags: W
HStem: 0 90<231 545> 226 90<48 105 194 507> 405 90<48 105 194 507> 628 90<231 545>
VStem: 105 89<126 226 316 405 495 591> 581 90<126 164 553 590>
Fore
671 553 m 1,0,-1
 581 553 l 1,1,-1
 581 590 l 1,2,-1
 545 628 l 1,3,-1
 231 628 l 1,4,-1
 194 591 l 1,5,-1
 194 495 l 1,6,-1
 507 495 l 1,7,-1
 507 405 l 1,8,-1
 194 405 l 1,9,-1
 194 316 l 1,10,-1
 507 316 l 1,11,-1
 507 226 l 1,12,-1
 194 226 l 1,13,-1
 194 126 l 1,14,-1
 231 90 l 1,15,-1
 545 90 l 1,16,-1
 581 126 l 1,17,-1
 581 164 l 1,18,-1
 671 164 l 1,19,-1
 671 90 l 1,20,-1
 583 0 l 1,21,-1
 194 0 l 1,22,-1
 105 90 l 1,23,-1
 105 226 l 1,24,-1
 48 226 l 1,25,-1
 48 316 l 1,26,-1
 105 316 l 1,27,-1
 105 405 l 1,28,-1
 48 405 l 1,29,-1
 48 495 l 1,30,-1
 105 495 l 1,31,-1
 105 628 l 1,32,-1
 193 718 l 1,33,-1
 581 718 l 1,34,-1
 671 628 l 1,35,-1
 671 553 l 1,0,-1
EndSplineSet
EndChar
StartChar: uni2113
Encoding: 8467 8467 322
Width: 445
VWidth: 1661
Flags: W
HStem: 0 90<244 355>
VStem: 116 90<128 194 419 628> 251 90<457 591>
Fore
244 90 m 1,0,-1
 355 90 l 1,1,-1
 355 0 l 1,2,-1
 206 0 l 1,3,-1
 116 90 l 1,4,-1
 116 194 l 1,5,-1
 110 188 l 1,6,-1
 47 251 l 1,7,-1
 116 322 l 1,8,-1
 116 718 l 1,9,-1
 253 718 l 1,10,-1
 341 628 l 1,11,-1
 341 419 l 1,12,-1
 206 284 l 1,13,-1
 206 128 l 1,14,-1
 244 90 l 1,0,-1
214 628 m 1,15,-1
 206 628 l 1,16,-1
 206 419 l 1,17,-1
 214 419 l 1,18,-1
 251 457 l 1,19,-1
 251 591 l 1,20,-1
 214 628 l 1,15,-1
EndSplineSet
EndChar
StartChar: trademark
Encoding: 8482 8482 323
Width: 913
VWidth: 1661
Flags: W
HStem: 643 75<47 151 226 331>
VStem: 151 75<301 643> 390 75<301 535> 749 75<301 535>
Fore
47 643 m 1,0,-1
 47 718 l 1,1,-1
 331 718 l 1,2,-1
 331 643 l 1,3,-1
 226 643 l 1,4,-1
 226 301 l 1,5,-1
 151 301 l 1,6,-1
 151 643 l 1,7,-1
 47 643 l 1,0,-1
824 718 m 1,8,-1
 824 301 l 1,9,-1
 749 301 l 1,10,-1
 749 535 l 1,11,-1
 645 301 l 1,12,-1
 570 301 l 1,13,-1
 465 535 l 1,14,-1
 465 301 l 1,15,-1
 390 301 l 1,16,-1
 390 718 l 1,17,-1
 467 718 l 1,18,-1
 608 400 l 1,19,-1
 749 718 l 1,20,-1
 824 718 l 1,8,-1
EndSplineSet
EndChar
StartChar: Ohm
Encoding: 8486 8486 324
Width: 732
VWidth: 1661
Flags: W
HStem: 0 90<47 194 493 643> 571 90<203 487>
VStem: 76 88<264 535> 523 90<264 535>
Fore
493 90 m 1,0,-1
 643 90 l 1,1,-1
 643 0 l 1,2,-1
 404 0 l 1,3,-1
 404 151 l 1,4,-1
 523 264 l 1,5,-1
 523 535 l 1,6,-1
 487 571 l 1,7,-1
 203 571 l 1,8,-1
 164 535 l 1,9,-1
 164 264 l 1,10,-1
 284 151 l 1,11,-1
 284 0 l 1,12,-1
 47 0 l 1,13,-1
 47 90 l 1,14,-1
 194 90 l 1,15,-1
 194 113 l 1,16,-1
 76 224 l 1,17,-1
 76 571 l 1,18,-1
 164 661 l 1,19,-1
 523 661 l 1,20,-1
 613 571 l 1,21,-1
 613 224 l 1,22,-1
 493 113 l 1,23,-1
 493 90 l 1,0,-1
EndSplineSet
EndChar
StartChar: estimated
Encoding: 8494 8494 325
Width: 402
VWidth: 1661
Flags: W
HStem: 0 21G<113.444 243.556> 254 90<135 223>
VStem: 45 90<128 254 344 442> 45 267<254 344 90 478 90 90> 223 89<128 164 344 442>
Fore
224 568 m 1,0,-1
 312 478 l 1,1,-1
 312 254 l 1,2,-1
 135 254 l 1,3,-1
 135 128 l 1,4,-1
 171 90 l 1,5,-1
 186 90 l 1,6,-1
 223 128 l 1,7,-1
 223 164 l 1,8,-1
 312 164 l 1,9,-1
 312 90 l 1,10,-1
 224 0 l 1,11,-1
 133 0 l 1,12,-1
 45 90 l 1,13,-1
 45 478 l 1,14,-1
 133 568 l 1,15,-1
 224 568 l 1,0,-1
135 344 m 1,16,-1
 223 344 l 1,17,-1
 223 442 l 1,18,-1
 186 478 l 1,19,-1
 171 478 l 1,20,-1
 135 442 l 1,21,-1
 135 344 l 1,16,-1
EndSplineSet
EndChar
StartChar: partialdiff
Encoding: 8706 8706 326
Width: 402
VWidth: 1661
Flags: W
HStem: 0 21G<113 243.556> 284 90<171 223>
VStem: 43 90<128 248 404 442> 223 89<128 284 374 442>
Fore
223 568 m 1,0,-1
 312 478 l 1,1,-1
 312 90 l 1,2,-1
 224 0 l 1,3,-1
 133 0 l 1,4,-1
 43 90 l 1,5,-1
 43 194 l 1,6,-1
 43 284 l 1,7,-1
 133 374 l 1,8,-1
 223 374 l 1,9,-1
 223 442 l 1,10,-1
 186 478 l 1,11,-1
 169 478 l 1,12,-1
 133 442 l 1,13,-1
 133 404 l 1,14,-1
 43 404 l 1,15,-1
 43 480 l 1,16,-1
 133 568 l 1,17,-1
 223 568 l 1,0,-1
223 128 m 1,18,-1
 223 284 l 1,19,-1
 171 284 l 1,20,-1
 133 248 l 1,21,-1
 133 128 l 1,22,-1
 171 90 l 1,23,-1
 186 90 l 1,24,-1
 223 128 l 1,18,-1
EndSplineSet
EndChar
StartChar: Delta
Encoding: 8710 8710 327
Width: 725
VWidth: 1661
Flags: W
HStem: 0 90<141 533>
Fore
399 553 m 1,0,-1
 638 81 l 1,1,-1
 638 0 l 1,2,-1
 40 0 l 1,3,-1
 40 90 l 1,4,-1
 279 553 l 1,5,-1
 399 553 l 1,0,-1
141 90 m 1,6,-1
 533 90 l 1,7,-1
 344 463 l 1,8,-1
 334 463 l 1,9,-1
 141 90 l 1,6,-1
EndSplineSet
EndChar
StartChar: product
Encoding: 8719 8719 328
Width: 654
VWidth: 1661
Flags: W
HStem: -209 21G<43 133 477 566> 628 90<133 477>
VStem: 43 90<-209 628> 477 89<-209 628>
Fore
43 718 m 1,0,-1
 566 718 l 1,1,-1
 566 -209 l 1,2,-1
 477 -209 l 1,3,-1
 477 628 l 1,4,-1
 133 628 l 1,5,-1
 133 -209 l 1,6,-1
 43 -209 l 1,7,-1
 43 718 l 1,0,-1
EndSplineSet
EndChar
StartChar: summation
Encoding: 8721 8721 329
Width: 641
VWidth: 1661
Flags: W
HStem: 0 90<135 552> 628 90<135 552>
VStem: 45 90<90 128 590 628>
Fore
45 718 m 1,0,-1
 552 718 l 1,1,-1
 552 628 l 1,2,-1
 135 628 l 1,3,-1
 135 590 l 1,4,-1
 360 359 l 1,5,-1
 135 128 l 1,6,-1
 135 90 l 1,7,-1
 552 90 l 1,8,-1
 552 0 l 1,9,-1
 45 0 l 1,10,-1
 45 164 l 1,11,-1
 236 359 l 1,12,-1
 45 553 l 1,13,-1
 45 718 l 1,0,-1
EndSplineSet
EndChar
StartChar: minus
Encoding: 8722 8722 330
Width: 729
VWidth: 1661
Flags: W
HStem: 314 90<58 628>
Fore
58 314 m 1,0,-1
 58 404 l 1,1,-1
 628 404 l 1,2,-1
 628 314 l 1,3,-1
 58 314 l 1,0,-1
EndSplineSet
EndChar
StartChar: radical
Encoding: 8730 8730 331
Width: 671
VWidth: 1661
Flags: W
HStem: 0 21G<218.589 323.382> 224 90<47 143>
Fore
487 718 m 1,0,-1
 581 718 l 1,1,-1
 316 0 l 1,2,-1
 226 0 l 1,3,-1
 143 224 l 1,4,-1
 47 224 l 1,5,-1
 47 314 l 1,6,-1
 204 314 l 1,7,-1
 271 138 l 1,8,-1
 487 718 l 1,0,-1
EndSplineSet
EndChar
StartChar: infinity
Encoding: 8734 8734 332
Width: 938
VWidth: 1661
Flags: W
HStem: 164 90<169 301 593 723> 463 90<169 301 593 723>
VStem: 43 90<291 427> 761 88<291 427>
Fore
761 553 m 1,0,-1
 849 463 l 1,1,-1
 849 254 l 1,2,-1
 761 164 l 1,3,-1
 552 164 l 1,4,-1
 447 289 l 1,5,-1
 342 164 l 1,6,-1
 133 164 l 1,7,-1
 43 254 l 1,8,-1
 43 463 l 1,9,-1
 133 553 l 1,10,-1
 342 553 l 1,11,-1
 447 429 l 1,12,-1
 552 553 l 1,13,-1
 761 553 l 1,0,-1
301 254 m 1,14,-1
 389 359 l 1,15,-1
 301 463 l 1,16,-1
 169 463 l 1,17,-1
 133 427 l 1,18,-1
 133 291 l 1,19,-1
 169 254 l 1,20,-1
 301 254 l 1,14,-1
761 291 m 1,21,-1
 761 427 l 1,22,-1
 723 463 l 1,23,-1
 593 463 l 1,24,-1
 505 359 l 1,25,-1
 593 254 l 1,26,-1
 723 254 l 1,27,-1
 761 291 l 1,21,-1
EndSplineSet
EndChar
StartChar: integral
Encoding: 8747 8747 333
Width: 596
VWidth: 1661
Flags: W
HStem: 0 90<0 116> 628 90<394 507>
Fore
394 628 m 1,0,-1
 349 591 l 1,1,-1
 243 90 l 1,2,-1
 135 0 l 1,3,-1
 0 0 l 1,4,-1
 0 90 l 1,5,-1
 116 90 l 1,6,-1
 161 126 l 1,7,-1
 267 628 l 1,8,-1
 375 718 l 1,9,-1
 507 718 l 1,10,-1
 507 628 l 1,11,-1
 394 628 l 1,0,-1
EndSplineSet
EndChar
StartChar: approxequal
Encoding: 8776 8776 334
Width: 704
VWidth: 1661
Flags: W
HStem: 194 331<193 467 193 193>
Fore
206 429 m 1,0,-1
 103 369 l 1,1,-1
 58 447 l 1,2,-1
 193 525 l 1,3,-1
 454 455 l 1,4,-1
 558 515 l 1,5,-1
 603 437 l 1,6,-1
 467 359 l 1,7,-1
 206 429 l 1,0,-1
454 291 m 1,8,-1
 558 352 l 1,9,-1
 603 274 l 1,10,-1
 467 194 l 1,11,-1
 206 264 l 1,12,-1
 103 206 l 1,13,-1
 58 284 l 1,14,-1
 193 360 l 1,15,-1
 454 291 l 1,8,-1
EndSplineSet
EndChar
StartChar: notequal
Encoding: 8800 8800 335
Width: 488
VWidth: 1661
Flags: W
HStem: 0 21G<100 193.268> 164 90<40 135 243 399> 359 90<40 176 284 399>
VStem: 40 359<164 254 359 449 164 359 164 164>
Fore
399 359 m 1,0,-1
 266 359 l 1,1,-1
 243 254 l 1,2,-1
 399 254 l 1,3,-1
 399 164 l 1,4,-1
 224 164 l 1,5,-1
 189 0 l 1,6,-1
 100 0 l 1,7,-1
 135 164 l 1,8,-1
 40 164 l 1,9,-1
 40 254 l 1,10,-1
 154 254 l 1,11,-1
 176 359 l 1,12,-1
 40 359 l 1,13,-1
 40 449 l 1,14,-1
 194 449 l 1,15,-1
 228 598 l 1,16,-1
 316 598 l 1,17,-1
 284 449 l 1,18,-1
 399 449 l 1,19,-1
 399 359 l 1,0,-1
EndSplineSet
EndChar
StartChar: lessequal
Encoding: 8804 8804 336
Width: 699
VWidth: 1661
Flags: W
HStem: 0 90<58 596>
Fore
58 0 m 1,0,-1
 58 90 l 1,1,-1
 596 90 l 1,2,-1
 596 0 l 1,3,-1
 58 0 l 1,0,-1
596 598 m 1,4,-1
 596 503 l 1,5,-1
 198 359 l 1,6,-1
 596 216 l 1,7,-1
 596 120 l 1,8,-1
 58 314 l 1,9,-1
 58 404 l 1,10,-1
 596 598 l 1,4,-1
EndSplineSet
EndChar
StartChar: greaterequal
Encoding: 8805 8805 337
Width: 699
VWidth: 1661
Flags: W
HStem: 0 90<60 596>
Fore
60 0 m 1,0,-1
 60 90 l 1,1,-1
 596 90 l 1,2,-1
 596 0 l 1,3,-1
 60 0 l 1,0,-1
60 598 m 1,4,-1
 596 404 l 1,5,-1
 596 314 l 1,6,-1
 60 120 l 1,7,-1
 60 216 l 1,8,-1
 457 359 l 1,9,-1
 60 503 l 1,10,-1
 60 598 l 1,4,-1
EndSplineSet
EndChar
StartChar: lozenge
Encoding: 9674 9674 338
Width: 599
VWidth: 1661
Flags: W
HStem: 0 21G<202.942 344.233>
VStem: 40 470<344 344 344 344>
Fore
334 688 m 1,0,-1
 510 344 l 1,1,-1
 334 0 l 1,2,-1
 213 0 l 1,3,-1
 40 344 l 1,4,-1
 213 688 l 1,5,-1
 334 688 l 1,0,-1
279 90 m 1,6,-1
 410 344 l 1,7,-1
 279 598 l 1,8,-1
 267 598 l 1,9,-1
 140 344 l 1,10,-1
 267 90 l 1,11,-1
 279 90 l 1,6,-1
EndSplineSet
EndChar
StartChar: dottedcircle
Encoding: 9676 9676 339
Width: 873
VWidth: 1661
Flags: W
HStem: 0 21G<369 465> 88 136<178 234 600 656> 299 136<90 146 688 744> 510 136<178 234 600 656>
VStem: 138 136<128 184 550 606> 349 136<40 96 638 694> 560 136<128 184 550 606>
CounterMasks: 1 0e
Fore
389 734 m 1,0,-1
 445 734 l 1,1,-1
 485 694 l 1,2,-1
 485 638 l 1,3,-1
 445 598 l 1,4,-1
 389 598 l 1,5,-1
 349 638 l 1,6,-1
 349 694 l 1,7,-1
 389 734 l 1,0,-1
600 646 m 1,8,-1
 656 646 l 1,9,-1
 696 606 l 1,10,-1
 696 550 l 1,11,-1
 656 510 l 1,12,-1
 600 510 l 1,13,-1
 560 550 l 1,14,-1
 560 606 l 1,15,-1
 600 646 l 1,8,-1
178 646 m 1,16,-1
 234 646 l 1,17,-1
 274 606 l 1,18,-1
 274 550 l 1,19,-1
 234 510 l 1,20,-1
 178 510 l 1,21,-1
 138 550 l 1,22,-1
 138 606 l 1,23,-1
 178 646 l 1,16,-1
688 435 m 1,24,-1
 744 435 l 1,25,-1
 784 395 l 1,26,-1
 784 339 l 1,27,-1
 744 299 l 1,28,-1
 688 299 l 1,29,-1
 648 339 l 1,30,-1
 648 395 l 1,31,-1
 688 435 l 1,24,-1
90 435 m 1,32,-1
 146 435 l 1,33,-1
 186 395 l 1,34,-1
 186 339 l 1,35,-1
 146 299 l 1,36,-1
 90 299 l 1,37,-1
 50 339 l 1,38,-1
 50 395 l 1,39,-1
 90 435 l 1,32,-1
600 224 m 1,40,-1
 656 224 l 1,41,-1
 696 184 l 1,42,-1
 696 128 l 1,43,-1
 656 88 l 1,44,-1
 600 88 l 1,45,-1
 560 128 l 1,46,-1
 560 184 l 1,47,-1
 600 224 l 1,40,-1
178 224 m 1,48,-1
 234 224 l 1,49,-1
 274 184 l 1,50,-1
 274 128 l 1,51,-1
 234 88 l 1,52,-1
 178 88 l 1,53,-1
 138 128 l 1,54,-1
 138 184 l 1,55,-1
 178 224 l 1,48,-1
389 136 m 1,56,-1
 445 136 l 1,57,-1
 485 96 l 1,58,-1
 485 40 l 1,59,-1
 445 0 l 1,60,-1
 389 0 l 1,61,-1
 349 40 l 1,62,-1
 349 96 l 1,63,-1
 389 136 l 1,56,-1
EndSplineSet
EndChar
StartChar: uni0E10.alt1
Encoding: 63232 63232 340
Width: 632
VWidth: 1661
Flags: W
HStem: 0 21G<454 543> 568 90<161 573>
VStem: 154 75<251 289> 454 89<0 143 259 387>
Fore
573 568 m 1,0,-1
 161 568 l 1,1,-1
 145 552 l 1,2,-1
 543 449 l 1,3,-1
 543 0 l 1,4,-1
 454 0 l 1,5,-1
 454 143 l 1,6,-1
 385 211 l 1,7,-1
 324 150 l 1,8,-1
 224 150 l 1,9,-1
 154 219 l 1,10,-1
 154 319 l 1,11,-1
 224 389 l 1,12,-1
 324 389 l 1,13,-1
 454 259 l 1,14,-1
 454 387 l 1,15,-1
 37 493 l 1,16,-1
 35 493 l 1,17,-1
 35 568 l 1,18,-1
 125 658 l 1,19,-1
 573 658 l 1,20,-1
 573 568 l 1,0,-1
319 251 m 1,21,-1
 319 289 l 1,22,-1
 292 314 l 1,23,-1
 256 314 l 1,24,-1
 229 289 l 1,25,-1
 229 251 l 1,26,-1
 256 226 l 1,27,-1
 292 226 l 1,28,-1
 319 251 l 1,21,-1
EndSplineSet
EndChar
StartChar: uni0E34.alt1
Encoding: 63233 63233 341
Width: 0
VWidth: 1661
Flags: W
HStem: 756 194<-309 -219 -234 -309> 756 75<-651 -296> 875 75<-606 -341>
Fore
-309 950 m 1,0,-1
 -219 861 l 1,1,-1
 -219 756 l 1,2,-1
 -728 756 l 1,3,-1
 -728 861 l 1,4,-1
 -638 950 l 1,5,-1
 -309 950 l 1,0,-1
-651 831 m 1,6,-1
 -296 831 l 1,7,-1
 -341 875 l 1,8,-1
 -606 875 l 1,9,-1
 -651 831 l 1,6,-1
EndSplineSet
EndChar
StartChar: uni0E35.alt1
Encoding: 63234 63234 342
Width: 0
VWidth: 1661
Flags: W
HStem: 756 75<-650 -294> 756 269<-292 -218> 875 75<-605 -339>
VStem: -292 74<935 1025>
Fore
-218 1025 m 1,0,-1
 -218 756 l 1,1,-1
 -726 756 l 1,2,-1
 -726 861 l 1,3,-1
 -636 950 l 1,4,-1
 -307 950 l 1,5,-1
 -292 935 l 1,6,-1
 -292 1025 l 1,7,-1
 -218 1025 l 1,0,-1
-650 831 m 1,8,-1
 -294 831 l 1,9,-1
 -339 875 l 1,10,-1
 -605 875 l 1,11,-1
 -650 831 l 1,8,-1
EndSplineSet
EndChar
StartChar: uni0E36.alt1
Encoding: 63235 63235 343
Width: 0
VWidth: 1661
Flags: W
HStem: 753 74<-676 -321> 753 269<-267 -254> 872 75<-633 -402>
Fore
-254 1022 m 1,0,-1
 -193 960 l 1,1,-1
 -193 874 l 1,2,-1
 -246 821 l 1,3,-1
 -246 753 l 1,4,-1
 -753 753 l 1,5,-1
 -753 857 l 1,6,-1
 -663 947 l 1,7,-1
 -402 947 l 1,8,-1
 -402 960 l 1,9,-1
 -341 1022 l 1,10,-1
 -254 1022 l 1,0,-1
-309 947 m 1,11,-1
 -327 930 l 1,12,-1
 -327 905 l 1,13,-1
 -309 887 l 1,14,-1
 -284 887 l 1,15,-1
 -267 905 l 1,16,-1
 -267 930 l 1,17,-1
 -284 947 l 1,18,-1
 -309 947 l 1,11,-1
-676 827 m 1,19,-1
 -321 827 l 1,20,-1
 -365 872 l 1,21,-1
 -633 872 l 1,22,-1
 -676 827 l 1,19,-1
EndSplineSet
EndChar
StartChar: uni0E37.alt1
Encoding: 63236 63236 344
Width: 0
VWidth: 1661
Flags: W
HStem: 754 75<-648 -292> 754 269<-291 -216> 874 75<-603 -410>
VStem: -410 74<949 1023> -291 75<934 1023>
Fore
-216 1023 m 1,0,-1
 -216 754 l 1,1,-1
 -724 754 l 1,2,-1
 -724 859 l 1,3,-1
 -635 949 l 1,4,-1
 -410 949 l 1,5,-1
 -410 1023 l 1,6,-1
 -336 1023 l 1,7,-1
 -336 949 l 1,8,-1
 -307 949 l 1,9,-1
 -291 934 l 1,10,-1
 -291 1023 l 1,11,-1
 -216 1023 l 1,0,-1
-648 829 m 1,12,-1
 -292 829 l 1,13,-1
 -337 874 l 1,14,-1
 -603 874 l 1,15,-1
 -648 829 l 1,12,-1
EndSplineSet
EndChar
StartChar: uni0E48.alt1
Encoding: 63237 63237 345
Width: 0
VWidth: 1661
Flags: W
HStem: 756 267<-294 -219 -294 -219 -294 -294>
VStem: -294 75<756 1023>
Fore
-294 756 m 1,0,-1
 -294 1023 l 1,1,-1
 -219 1023 l 1,2,-1
 -219 756 l 1,3,-1
 -294 756 l 1,0,-1
EndSplineSet
Substitution2: "Single Substitution lookup 22 subtable" uni0E48.alt3
Substitution2: "Single Substitution lookup 22 subtable" uni0E48.alt3
EndChar
StartChar: uni0E49.alt1
Encoding: 63238 63238 346
Width: 0
VWidth: 1661
Flags: W
HStem: 756 75<-586 -540 -424 -364>
VStem: -586 410<756 914 831 844>
Fore
-229 967 m 1,0,-1
 -176 914 l 1,1,-1
 -332 756 l 1,2,-1
 -586 756 l 1,3,-1
 -586 831 l 1,4,-1
 -540 831 l 1,5,-1
 -586 877 l 1,6,-1
 -586 963 l 1,7,-1
 -527 1025 l 1,8,-1
 -439 1025 l 1,9,-1
 -379 963 l 1,10,-1
 -379 877 l 1,11,-1
 -424 831 l 1,12,-1
 -364 831 l 1,13,-1
 -229 967 l 1,0,-1
-512 934 m 1,14,-1
 -512 909 l 1,15,-1
 -495 890 l 1,16,-1
 -470 890 l 1,17,-1
 -452 909 l 1,18,-1
 -452 934 l 1,19,-1
 -470 950 l 1,20,-1
 -495 950 l 1,21,-1
 -512 934 l 1,14,-1
EndSplineSet
Substitution2: "Single Substitution lookup 22 subtable" uni0E49.alt3
Substitution2: "Single Substitution lookup 22 subtable" uni0E49.alt3
EndChar
StartChar: uni0E4A.alt1
Encoding: 63239 63239 347
Width: 0
VWidth: 1661
Flags: W
HStem: 756 224<-578 -354 -591 -578>
VStem: -640 457<832 927 819 832>
Fore
-231 977 m 1,0,-1
 -183 927 l 1,1,-1
 -354 756 l 1,2,-1
 -402 804 l 1,3,-1
 -355 851 l 1,4,-1
 -384 879 l 1,5,-1
 -492 771 l 1,6,-1
 -578 771 l 1,7,-1
 -640 832 l 1,8,-1
 -640 919 l 1,9,-1
 -578 980 l 1,10,-1
 -492 980 l 1,11,-1
 -440 929 l 1,12,-1
 -389 980 l 1,13,-1
 -307 899 l 1,14,-1
 -231 977 l 1,0,-1
-565 864 m 1,15,-1
 -547 846 l 1,16,-1
 -522 846 l 1,17,-1
 -505 864 l 1,18,-1
 -505 889 l 1,19,-1
 -522 905 l 1,20,-1
 -547 905 l 1,21,-1
 -565 889 l 1,22,-1
 -565 864 l 1,15,-1
EndSplineSet
Substitution2: "Single Substitution lookup 22 subtable" uni0E4A.alt3
Substitution2: "Single Substitution lookup 22 subtable" uni0E4A.alt3
EndChar
StartChar: uni0E4B.alt1
Encoding: 63240 63240 348
Width: 0
VWidth: 1661
Flags: W
HStem: 839 75<-437 -354 -281 -198 -437 -198 -437 -437>
VStem: -354 73<756 839 914 995>
Fore
-198 914 m 1,0,-1
 -198 839 l 1,1,-1
 -281 839 l 1,2,-1
 -281 756 l 1,3,-1
 -354 756 l 1,4,-1
 -354 839 l 1,5,-1
 -437 839 l 1,6,-1
 -437 914 l 1,7,-1
 -354 914 l 1,8,-1
 -354 995 l 1,9,-1
 -281 995 l 1,10,-1
 -281 914 l 1,11,-1
 -198 914 l 1,0,-1
EndSplineSet
Substitution2: "Single Substitution lookup 22 subtable" uni0E4B.alt3
Substitution2: "Single Substitution lookup 22 subtable" uni0E4B.alt3
EndChar
StartChar: uni0E4C.alt1
Encoding: 63241 63241 349
Width: 0
VWidth: 1661
Flags: W
HStem: 756 330<-279 -246 -260 -246>
VStem: -427 234<817 1033 803 817>
Fore
-193 1033 m 1,0,-1
 -269 957 l 1,1,-1
 -218 904 l 1,2,-1
 -218 817 l 1,3,-1
 -279 756 l 1,4,-1
 -365 756 l 1,5,-1
 -427 817 l 1,6,-1
 -427 904 l 1,7,-1
 -246 1086 l 1,8,-1
 -193 1033 l 1,0,-1
-311 890 m 1,9,-1
 -334 890 l 1,10,-1
 -352 874 l 1,11,-1
 -352 849 l 1,12,-1
 -334 831 l 1,13,-1
 -311 831 l 1,14,-1
 -292 849 l 1,15,-1
 -292 874 l 1,16,-1
 -311 890 l 1,9,-1
EndSplineSet
Substitution2: "Single Substitution lookup 22 subtable" uni0E4C.alt3
Substitution2: "Single Substitution lookup 22 subtable" uni0E4C.alt3
EndChar
StartChar: uni0E48.alt2
Encoding: 63242 63242 350
Width: 0
VWidth: 1661
Flags: W
HStem: 756 269<-191 -118 -191 -118 -191 -191>
VStem: -191 73<756 1025>
Fore
-191 756 m 1,0,-1
 -191 1025 l 1,1,-1
 -118 1025 l 1,2,-1
 -118 756 l 1,3,-1
 -191 756 l 1,0,-1
EndSplineSet
Substitution2: "Single Substitution lookup 20 subtable" uni0E48.alt3
Substitution2: "Single Substitution lookup 21 subtable" uni0E48
Substitution2: "Single Substitution lookup 22 subtable" uni0E48.alt1
Substitution2: "Single Substitution lookup 20 subtable" uni0E48.alt3
Substitution2: "Single Substitution lookup 21 subtable" uni0E48
Substitution2: "Single Substitution lookup 22 subtable" uni0E48.alt1
EndChar
StartChar: uni0E49.alt2
Encoding: 63243 63243 351
Width: 0
VWidth: 1661
Flags: W
HStem: 756 75<-357 -311 -194 -135>
VStem: -357 410<756 912 829 843>
Fore
0 965 m 1,0,-1
 53 912 l 1,1,-1
 -103 756 l 1,2,-1
 -357 756 l 1,3,-1
 -357 831 l 1,4,-1
 -311 831 l 1,5,-1
 -357 877 l 1,6,-1
 -357 963 l 1,7,-1
 -296 1025 l 1,8,-1
 -209 1025 l 1,9,-1
 -148 963 l 1,10,-1
 -148 877 l 1,11,-1
 -194 831 l 1,12,-1
 -135 831 l 1,13,-1
 0 965 l 1,0,-1
-282 932 m 1,14,-1
 -282 907 l 1,15,-1
 -266 890 l 1,16,-1
 -241 890 l 1,17,-1
 -223 907 l 1,18,-1
 -223 932 l 1,19,-1
 -241 950 l 1,20,-1
 -266 950 l 1,21,-1
 -282 932 l 1,14,-1
EndSplineSet
Substitution2: "Single Substitution lookup 20 subtable" uni0E49.alt3
Substitution2: "Single Substitution lookup 21 subtable" uni0E49
Substitution2: "Single Substitution lookup 22 subtable" uni0E49.alt1
Substitution2: "Single Substitution lookup 20 subtable" uni0E49.alt3
Substitution2: "Single Substitution lookup 21 subtable" uni0E49
Substitution2: "Single Substitution lookup 22 subtable" uni0E49.alt1
EndChar
StartChar: uni0E4A.alt2
Encoding: 63244 63244 352
Width: 0
VWidth: 1661
Flags: W
HStem: 758 224<-292 -68 -305 -292>
VStem: -354 457<834 929 821 834>
Fore
55 977 m 1,0,-1
 103 929 l 1,1,-1
 -68 758 l 1,2,-1
 -116 806 l 1,3,-1
 -70 852 l 1,4,-1
 -98 880 l 1,5,-1
 -206 772 l 1,6,-1
 -292 772 l 1,7,-1
 -354 834 l 1,8,-1
 -354 920 l 1,9,-1
 -292 982 l 1,10,-1
 -206 982 l 1,11,-1
 -154 930 l 1,12,-1
 -103 980 l 1,13,-1
 -22 900 l 1,14,-1
 55 977 l 1,0,-1
-279 864 m 1,15,-1
 -261 847 l 1,16,-1
 -236 847 l 1,17,-1
 -219 864 l 1,18,-1
 -219 889 l 1,19,-1
 -236 907 l 1,20,-1
 -261 907 l 1,21,-1
 -279 889 l 1,22,-1
 -279 864 l 1,15,-1
EndSplineSet
Substitution2: "Single Substitution lookup 20 subtable" uni0E4A.alt3
Substitution2: "Single Substitution lookup 21 subtable" uni0E4A
Substitution2: "Single Substitution lookup 22 subtable" uni0E4A.alt1
Substitution2: "Single Substitution lookup 20 subtable" uni0E4A.alt3
Substitution2: "Single Substitution lookup 21 subtable" uni0E4A
Substitution2: "Single Substitution lookup 22 subtable" uni0E4A.alt1
EndChar
StartChar: uni0E4B.alt2
Encoding: 63245 63245 353
Width: 0
VWidth: 1661
Flags: W
HStem: 839 75<-274 -191 -116 -35 -274 -35 -274 -274>
VStem: -191 75<758 839 914 997>
Fore
-35 914 m 1,0,-1
 -35 839 l 1,1,-1
 -116 839 l 1,2,-1
 -116 758 l 1,3,-1
 -191 758 l 1,4,-1
 -191 839 l 1,5,-1
 -274 839 l 1,6,-1
 -274 914 l 1,7,-1
 -191 914 l 1,8,-1
 -191 997 l 1,9,-1
 -116 997 l 1,10,-1
 -116 914 l 1,11,-1
 -35 914 l 1,0,-1
EndSplineSet
Substitution2: "Single Substitution lookup 20 subtable" uni0E4B.alt3
Substitution2: "Single Substitution lookup 21 subtable" uni0E4B
Substitution2: "Single Substitution lookup 22 subtable" uni0E4B.alt1
Substitution2: "Single Substitution lookup 20 subtable" uni0E4B.alt3
Substitution2: "Single Substitution lookup 21 subtable" uni0E4B
Substitution2: "Single Substitution lookup 22 subtable" uni0E4B.alt1
EndChar
StartChar: uni0E4C.alt2
Encoding: 63246 63246 354
Width: 0
VWidth: 1661
Flags: W
HStem: 759 329<-178 -145 -158 -145>
VStem: -326 235<821 1035 808 821>
Fore
-91 1035 m 1,0,-1
 -168 959 l 1,1,-1
 -116 907 l 1,2,-1
 -116 821 l 1,3,-1
 -178 759 l 1,4,-1
 -264 759 l 1,5,-1
 -326 821 l 1,6,-1
 -326 907 l 1,7,-1
 -145 1088 l 1,8,-1
 -91 1035 l 1,0,-1
-208 894 m 1,9,-1
 -233 894 l 1,10,-1
 -251 875 l 1,11,-1
 -251 851 l 1,12,-1
 -233 834 l 1,13,-1
 -208 834 l 1,14,-1
 -191 851 l 1,15,-1
 -191 875 l 1,16,-1
 -208 894 l 1,9,-1
EndSplineSet
Substitution2: "Single Substitution lookup 20 subtable" uni0E4C.alt3
Substitution2: "Single Substitution lookup 21 subtable" uni0E4C
Substitution2: "Single Substitution lookup 22 subtable" uni0E4C.alt1
Substitution2: "Single Substitution lookup 20 subtable" uni0E4C.alt3
Substitution2: "Single Substitution lookup 21 subtable" uni0E4C
Substitution2: "Single Substitution lookup 22 subtable" uni0E4C.alt1
EndChar
StartChar: uni0E0D.alt1
Encoding: 63247 63247 355
Width: 980
VWidth: 1661
Flags: W
HStem: 0 76<179 218> 0 90<586 759> 164 75<179 218> 568 90<176 460>
VStem: 80 74<101 140> 80 89<239 369> 243 76<101 140> 498 88<90 532> 796 89<128 658>
Fore
498 532 m 1,0,-1
 460 568 l 1,1,-1
 176 568 l 1,2,-1
 272 472 l 1,3,-1
 169 369 l 1,4,-1
 169 239 l 1,5,-1
 248 239 l 1,6,-1
 319 169 l 1,7,-1
 319 71 l 1,8,-1
 248 0 l 1,9,-1
 150 0 l 1,10,-1
 80 71 l 1,11,-1
 80 405 l 1,12,-1
 146 472 l 1,13,-1
 50 568 l 1,14,-1
 138 658 l 1,15,-1
 498 658 l 1,16,-1
 586 568 l 1,17,-1
 586 90 l 1,18,-1
 759 90 l 1,19,-1
 796 128 l 1,20,-1
 796 658 l 1,21,-1
 885 658 l 1,22,-1
 885 90 l 1,23,-1
 796 0 l 1,24,-1
 498 0 l 1,25,-1
 498 532 l 1,0,-1
179 164 m 1,26,-1
 154 140 l 1,27,-1
 154 101 l 1,28,-1
 179 76 l 1,29,-1
 218 76 l 1,30,-1
 243 101 l 1,31,-1
 243 140 l 1,32,-1
 218 164 l 1,33,-1
 179 164 l 1,26,-1
EndSplineSet
EndChar
StartChar: uni0E31.alt1
Encoding: 63248 63248 356
Width: 0
VWidth: 1661
Flags: W
HStem: 756 90<-492 -314> 756 207<-641 -626 -566 -553>
Fore
-254 905 m 1,0,-1
 -201 852 l 1,1,-1
 -299 756 l 1,2,-1
 -641 756 l 1,3,-1
 -701 816 l 1,4,-1
 -701 904 l 1,5,-1
 -641 963 l 1,6,-1
 -553 963 l 1,7,-1
 -492 904 l 1,8,-1
 -492 846 l 1,9,-1
 -314 846 l 1,10,-1
 -254 905 l 1,0,-1
-585 831 m 1,11,-1
 -566 847 l 1,12,-1
 -566 872 l 1,13,-1
 -585 890 l 1,14,-1
 -610 890 l 1,15,-1
 -626 872 l 1,16,-1
 -626 847 l 1,17,-1
 -610 831 l 1,18,-1
 -585 831 l 1,11,-1
EndSplineSet
EndChar
StartChar: uni0E4D.alt1
Encoding: 63249 63249 357
Width: 0
VWidth: 1661
Flags: W
HStem: 756 207<-367 -354 -294 -281>
VStem: -429 210<816 831 890 904 816 904 816 816>
Fore
-281 963 m 1,0,-1
 -219 904 l 1,1,-1
 -219 816 l 1,2,-1
 -281 756 l 1,3,-1
 -367 756 l 1,4,-1
 -429 816 l 1,5,-1
 -429 904 l 1,6,-1
 -367 963 l 1,7,-1
 -281 963 l 1,0,-1
-311 831 m 1,8,-1
 -294 847 l 1,9,-1
 -294 872 l 1,10,-1
 -311 890 l 1,11,-1
 -336 890 l 1,12,-1
 -354 872 l 1,13,-1
 -354 847 l 1,14,-1
 -336 831 l 1,15,-1
 -311 831 l 1,8,-1
EndSplineSet
EndChar
StartChar: uni0E47.alt1
Encoding: 63250 63250 358
Width: 0
VWidth: 1661
Flags: W
HStem: 756 299<-281 -271 -137 -271> 934 74<-487 -397>
VStem: -608 75<846 889> -608 389<816 831 756 1002 756 756>
Fore
-218 1002 m 1,0,-1
 -267 952 l 1,1,-1
 -219 904 l 1,2,-1
 -219 816 l 1,3,-1
 -281 756 l 1,4,-1
 -458 756 l 1,5,-1
 -488 784 l 1,6,-1
 -517 756 l 1,7,-1
 -608 756 l 1,8,-1
 -608 919 l 1,9,-1
 -518 1008 l 1,10,-1
 -317 1008 l 1,11,-1
 -271 1055 l 1,12,-1
 -218 1002 l 1,0,-1
-488 890 m 1,13,-1
 -429 831 l 1,14,-1
 -429 904 l 1,15,-1
 -397 934 l 1,16,-1
 -487 934 l 1,17,-1
 -533 889 l 1,18,-1
 -533 846 l 1,19,-1
 -488 890 l 1,13,-1
-294 847 m 1,20,-1
 -294 872 l 1,21,-1
 -311 890 l 1,22,-1
 -336 890 l 1,23,-1
 -354 872 l 1,24,-1
 -354 847 l 1,25,-1
 -336 831 l 1,26,-1
 -311 831 l 1,27,-1
 -294 847 l 1,20,-1
EndSplineSet
EndChar
StartChar: uni0E48.alt3
Encoding: 63251 63251 359
Width: 0
VWidth: 1661
Flags: W
HStem: 1063 269<-292 -218 -292 -218 -292 -292>
VStem: -292 74<1063 1332>
Fore
-292 1063 m 1,0,-1
 -292 1332 l 1,1,-1
 -218 1332 l 1,2,-1
 -218 1063 l 1,3,-1
 -292 1063 l 1,0,-1
EndSplineSet
EndChar
StartChar: uni0E49.alt3
Encoding: 63252 63252 360
Width: 0
VWidth: 1661
Flags: W
HStem: 1062 74<-483 -437 -321 -261>
VStem: -483 410<1062 1218 1135 1148>
Fore
-125 1271 m 1,0,-1
 -73 1218 l 1,1,-1
 -229 1062 l 1,2,-1
 -483 1062 l 1,3,-1
 -483 1136 l 1,4,-1
 -437 1136 l 1,5,-1
 -483 1183 l 1,6,-1
 -483 1269 l 1,7,-1
 -422 1331 l 1,8,-1
 -336 1331 l 1,9,-1
 -274 1269 l 1,10,-1
 -274 1183 l 1,11,-1
 -321 1136 l 1,12,-1
 -261 1136 l 1,13,-1
 -125 1271 l 1,0,-1
-409 1238 m 1,14,-1
 -409 1213 l 1,15,-1
 -390 1196 l 1,16,-1
 -367 1196 l 1,17,-1
 -349 1213 l 1,18,-1
 -349 1238 l 1,19,-1
 -367 1256 l 1,20,-1
 -390 1256 l 1,21,-1
 -409 1238 l 1,14,-1
EndSplineSet
EndChar
StartChar: uni0E4A.alt3
Encoding: 63253 63253 361
Width: 0
VWidth: 1661
Flags: W
HStem: 1065 224<-415 -193 -428 -415>
VStem: -477 457<1141 1236 1128 1141>
Fore
-68 1284 m 1,0,-1
 -20 1236 l 1,1,-1
 -193 1065 l 1,2,-1
 -241 1113 l 1,3,-1
 -194 1160 l 1,4,-1
 -221 1188 l 1,5,-1
 -329 1080 l 1,6,-1
 -415 1080 l 1,7,-1
 -477 1141 l 1,8,-1
 -477 1228 l 1,9,-1
 -415 1289 l 1,10,-1
 -329 1289 l 1,11,-1
 -277 1236 l 1,12,-1
 -226 1287 l 1,13,-1
 -146 1208 l 1,14,-1
 -68 1284 l 1,0,-1
-402 1171 m 1,15,-1
 -385 1155 l 1,16,-1
 -360 1155 l 1,17,-1
 -342 1171 l 1,18,-1
 -342 1196 l 1,19,-1
 -360 1214 l 1,20,-1
 -385 1214 l 1,21,-1
 -402 1196 l 1,22,-1
 -402 1171 l 1,15,-1
EndSplineSet
EndChar
StartChar: uni0E4B.alt3
Encoding: 63254 63254 362
Width: 0
VWidth: 1661
Flags: W
HStem: 1145 74<-387 -304 -229 -148 -387 -148 -387 -387>
VStem: -304 75<1063 1145 1219 1302>
Fore
-148 1219 m 1,0,-1
 -148 1145 l 1,1,-1
 -229 1145 l 1,2,-1
 -229 1063 l 1,3,-1
 -304 1063 l 1,4,-1
 -304 1145 l 1,5,-1
 -387 1145 l 1,6,-1
 -387 1219 l 1,7,-1
 -304 1219 l 1,8,-1
 -304 1302 l 1,9,-1
 -229 1302 l 1,10,-1
 -229 1219 l 1,11,-1
 -148 1219 l 1,0,-1
EndSplineSet
EndChar
StartChar: uni0E4C.alt3
Encoding: 63255 63255 363
Width: 0
VWidth: 1661
Flags: W
HStem: 983 329<-281 -246 -259 -246>
VStem: -429 236<1045 1259 1032 1045>
Fore
-193 1259 m 1,0,-1
 -271 1183 l 1,1,-1
 -219 1131 l 1,2,-1
 -219 1045 l 1,3,-1
 -281 983 l 1,4,-1
 -367 983 l 1,5,-1
 -429 1045 l 1,6,-1
 -429 1131 l 1,7,-1
 -246 1312 l 1,8,-1
 -193 1259 l 1,0,-1
-311 1118 m 1,9,-1
 -336 1118 l 1,10,-1
 -354 1100 l 1,11,-1
 -354 1075 l 1,12,-1
 -336 1058 l 1,13,-1
 -311 1058 l 1,14,-1
 -294 1075 l 1,15,-1
 -294 1100 l 1,16,-1
 -311 1118 l 1,9,-1
EndSplineSet
EndChar
StartChar: uni0E38.alt1
Encoding: 63256 63256 364
Width: 0
VWidth: 1661
Flags: W
HStem: -686 329<-161 -148>
VStem: -296 210<-507 -492 -432 -419> -176 90<-686 -566>
Fore
-148 -357 m 1,0,-1
 -86 -419 l 1,1,-1
 -86 -686 l 1,2,-1
 -176 -686 l 1,3,-1
 -176 -566 l 1,4,-1
 -234 -566 l 1,5,-1
 -296 -507 l 1,6,-1
 -296 -419 l 1,7,-1
 -234 -357 l 1,8,-1
 -148 -357 l 1,0,-1
-204 -492 m 1,9,-1
 -179 -492 l 1,10,-1
 -161 -475 l 1,11,-1
 -161 -450 l 1,12,-1
 -179 -432 l 1,13,-1
 -204 -432 l 1,14,-1
 -221 -450 l 1,15,-1
 -221 -475 l 1,16,-1
 -204 -492 l 1,9,-1
EndSplineSet
EndChar
StartChar: uni0E39.alt1
Encoding: 63257 63257 365
Width: 0
VWidth: 1661
Flags: W
HStem: -686 90<-238 -178>
VStem: -178 90<-596 -357 -686 -357 -596 -596>
Fore
-178 -357 m 1,0,-1
 -88 -357 l 1,1,-1
 -88 -686 l 1,2,-1
 -327 -686 l 1,3,-1
 -327 -566 l 1,4,-1
 -385 -566 l 1,5,-1
 -445 -505 l 1,6,-1
 -445 -419 l 1,7,-1
 -385 -357 l 1,8,-1
 -297 -357 l 1,9,-1
 -238 -419 l 1,10,-1
 -238 -596 l 1,11,-1
 -178 -596 l 1,12,-1
 -178 -357 l 1,0,-1
-354 -492 m 1,13,-1
 -329 -492 l 1,14,-1
 -312 -475 l 1,15,-1
 -312 -450 l 1,16,-1
 -329 -432 l 1,17,-1
 -354 -432 l 1,18,-1
 -372 -450 l 1,19,-1
 -372 -475 l 1,20,-1
 -354 -492 l 1,13,-1
EndSplineSet
EndChar
StartChar: uni0E3A.alt1
Encoding: 63258 63258 366
Width: 0
VWidth: 1661
Flags: W
HStem: -508 149<-196 -135 -196 -135 -196 -196>
VStem: -241 150<-465 -404 -465 -404 -465 -465>
Fore
-91 -404 m 1,0,-1
 -91 -465 l 1,1,-1
 -135 -508 l 1,2,-1
 -196 -508 l 1,3,-1
 -241 -465 l 1,4,-1
 -241 -404 l 1,5,-1
 -196 -359 l 1,6,-1
 -135 -359 l 1,7,-1
 -91 -404 l 1,0,-1
EndSplineSet
EndChar
StartChar: uni0E0E.alt1
Encoding: 63259 63259 367
Width: 757
VWidth: 1661
Flags: W
HStem: -299 90<267 415> -150 90<267 415> 0 21G<61.2857 201> 568 90<259 543>
VStem: 12 74<101 138> 161 90<-191 -166 239 367> 580 89<-183 532>
Fore
580 658 m 1,0,-1
 669 568 l 1,1,-1
 669 -299 l 1,2,-1
 580 -299 l 1,3,-1
 518 -238 l 1,4,-1
 457 -299 l 1,5,-1
 231 -299 l 1,6,-1
 161 -229 l 1,7,-1
 161 -130 l 1,8,-1
 231 -60 l 1,9,-1
 457 -60 l 1,10,-1
 580 -183 l 1,11,-1
 580 532 l 1,12,-1
 543 568 l 1,13,-1
 259 568 l 1,14,-1
 355 472 l 1,15,-1
 251 367 l 1,16,-1
 251 70 l 1,17,-1
 181 0 l 1,18,-1
 81 0 l 1,19,-1
 12 70 l 1,20,-1
 12 169 l 1,21,-1
 81 239 l 1,22,-1
 161 239 l 1,23,-1
 161 405 l 1,24,-1
 228 472 l 1,25,-1
 131 568 l 1,26,-1
 221 658 l 1,27,-1
 580 658 l 1,0,-1
176 101 m 1,28,-1
 176 138 l 1,29,-1
 150 164 l 1,30,-1
 113 164 l 1,31,-1
 86 138 l 1,32,-1
 86 101 l 1,33,-1
 113 75 l 1,34,-1
 150 75 l 1,35,-1
 176 101 l 1,28,-1
415 -209 m 1,36,-1
 445 -179 l 1,37,-1
 415 -150 l 1,38,-1
 267 -150 l 1,39,-1
 251 -166 l 1,40,-1
 251 -191 l 1,41,-1
 267 -209 l 1,42,-1
 415 -209 l 1,36,-1
EndSplineSet
EndChar
StartChar: uni0E0F.alt1
Encoding: 63260 63260 368
Width: 757
VWidth: 1661
Flags: W
HStem: 0 75<113 151> 164 75<113 151> 568 90<259 543>
VStem: 163 90<-191 -166 239 367> 580 89<-183 532>
Fore
581 658 m 1,0,-1
 669 568 l 1,1,-1
 669 -299 l 1,2,-1
 580 -299 l 1,3,-1
 518 -236 l 1,4,-1
 455 -299 l 1,5,-1
 392 -238 l 1,6,-1
 331 -299 l 1,7,-1
 233 -299 l 1,8,-1
 163 -229 l 1,9,-1
 163 -130 l 1,10,-1
 233 -60 l 1,11,-1
 331 -60 l 1,12,-1
 455 -183 l 1,13,-1
 518 -120 l 1,14,-1
 580 -183 l 1,15,-1
 580 532 l 1,16,-1
 543 568 l 1,17,-1
 259 568 l 1,18,-1
 355 472 l 1,19,-1
 253 367 l 1,20,-1
 253 70 l 1,21,-1
 181 0 l 1,22,-1
 83 0 l 1,23,-1
 13 70 l 1,24,-1
 13 169 l 1,25,-1
 83 239 l 1,26,-1
 163 239 l 1,27,-1
 163 405 l 1,28,-1
 229 472 l 1,29,-1
 133 568 l 1,30,-1
 221 658 l 1,31,-1
 581 658 l 1,0,-1
176 101 m 1,32,-1
 176 138 l 1,33,-1
 151 164 l 1,34,-1
 113 164 l 1,35,-1
 88 138 l 1,36,-1
 88 101 l 1,37,-1
 113 75 l 1,38,-1
 151 75 l 1,39,-1
 176 101 l 1,32,-1
312 -191 m 1,40,-1
 312 -166 l 1,41,-1
 294 -150 l 1,42,-1
 269 -150 l 1,43,-1
 253 -166 l 1,44,-1
 253 -191 l 1,45,-1
 269 -209 l 1,46,-1
 294 -209 l 1,47,-1
 312 -191 l 1,40,-1
EndSplineSet
EndChar
StartChar: uni0E2C.alt1
Encoding: 63261 63261 369
Width: 759
VWidth: 1661
Flags: W
HStem: 0 21G<163 265.519 568.481 671> 636 20G<63 203>
VStem: 13 75<518 557> 163 90<154 417> 178 75<518 557> 432 75<548 586> 581 90<154 447>
Fore
671 517 m 1,0,-1
 671 0 l 1,1,-1
 581 0 l 1,2,-1
 417 262 l 1,3,-1
 253 0 l 1,4,-1
 163 0 l 1,5,-1
 163 417 l 1,6,-1
 83 417 l 1,7,-1
 13 488 l 1,8,-1
 13 586 l 1,9,-1
 83 656 l 1,10,-1
 183 656 l 1,11,-1
 253 586 l 1,12,-1
 253 154 l 1,13,-1
 417 417 l 1,14,-1
 581 154 l 1,15,-1
 581 447 l 1,16,-1
 502 447 l 1,17,-1
 432 517 l 1,18,-1
 432 616 l 1,19,-1
 502 686 l 1,20,-1
 600 686 l 1,21,-1
 661 625 l 1,22,-1
 724 686 l 1,23,-1
 782 630 l 1,24,-1
 671 517 l 1,0,-1
533 523 m 1,25,-1
 570 523 l 1,26,-1
 596 548 l 1,27,-1
 596 586 l 1,28,-1
 570 611 l 1,29,-1
 533 611 l 1,30,-1
 507 586 l 1,31,-1
 507 548 l 1,32,-1
 533 523 l 1,25,-1
115 493 m 1,33,-1
 151 493 l 1,34,-1
 178 518 l 1,35,-1
 178 557 l 1,36,-1
 151 581 l 1,37,-1
 115 581 l 1,38,-1
 88 557 l 1,39,-1
 88 518 l 1,40,-1
 115 493 l 1,33,-1
EndSplineSet
EndChar
StartChar: uni0E24.liga
Encoding: 63617 63617 371
Width: 1061
VWidth: 1661
Flags: W
HStem: 0 21G<125 264> 566 90<173 457 620 846>
VStem: 75 75<100 138> 75 89<238 367> 239 75<100 138> 493 90<-299 530> 882 90<-299 530>
Fore
882 656 m 1,0,-1
 972 568 l 1,1,-1
 972 -299 l 1,2,-1
 882 -299 l 1,3,-1
 882 530 l 1,4,-1
 846 566 l 1,5,-1
 620 566 l 1,6,-1
 583 530 l 1,7,-1
 583 -299 l 1,8,-1
 493 -299 l 1,9,-1
 493 530 l 1,10,-1
 457 566 l 1,11,-1
 173 566 l 1,12,-1
 269 470 l 1,13,-1
 164 367 l 1,14,-1
 164 238 l 1,15,-1
 244 238 l 1,16,-1
 314 168 l 1,17,-1
 314 70 l 1,18,-1
 244 0 l 1,19,-1
 145 0 l 1,20,-1
 75 70 l 1,21,-1
 75 404 l 1,22,-1
 143 470 l 1,23,-1
 45 568 l 1,24,-1
 135 656 l 1,25,-1
 493 656 l 1,26,-1
 538 611 l 1,27,-1
 583 656 l 1,28,-1
 882 656 l 1,0,-1
213 163 m 1,29,-1
 176 163 l 1,30,-1
 150 138 l 1,31,-1
 150 100 l 1,32,-1
 176 75 l 1,33,-1
 213 75 l 1,34,-1
 239 100 l 1,35,-1
 239 138 l 1,36,-1
 213 163 l 1,29,-1
EndSplineSet
Ligature2: "'liga' Standard Ligatures in Latin lookup 19 subtable" uni0E24 uni0E45
Ligature2: "'liga' Standard Ligatures in Latin lookup 19 subtable" uni0E24 uni0E32
EndChar
